<?xml version="1.0" encoding="utf-8"?>
<!-- Generator: Adobe Illustrator 19.2.1, SVG Export Plug-In . SVG Version: 6.00 Build 0)  -->
<svg version="1.1" id="Layer_1" xmlns="http://www.w3.org/2000/svg" xmlns:xlink="http://www.w3.org/1999/xlink" x="0px" y="0px"
	 viewBox="0 0 1039.6 605" style="enable-background:new 0 0 1039.6 605;" xml:space="preserve">
<style type="text/css">
	.st0{opacity:0.95;}
	.st1{fill:#FFFFFF;}
	.st2{opacity:0.2;}
	.st3{fill:#652D90;}
	.st4{fill:#EAEAEA;}
</style>
<g>
	<g class="st0">
		<path class="st1" d="M92.8,236l-1.5-4.2h-8.9l-1.5,4.2h-3.6l7.6-20.8h4l7.6,20.8H92.8z M83.4,229.1h7l-3.5-9.8L83.4,229.1z"/>
		<path class="st1" d="M112.7,217c1.3,1.2,2,2.6,2,4.4c0,1.7-0.6,3.2-1.8,4.4c-1.2,1.2-3.1,1.8-5.7,1.8h-3.9v8.4h-3.5v-20.8h7.3
			C109.5,215.2,111.4,215.8,112.7,217z M103.3,224.9h3.9c1.3,0,2.3-0.3,3-0.9c0.7-0.6,1-1.5,1-2.6c0-1.1-0.3-2-1-2.6
			c-0.7-0.6-1.6-0.9-3-0.9h-3.9V224.9z"/>
		<path class="st1" d="M118,215.2h3.5v18.2h7.2v2.6H118V215.2z"/>
		<path class="st1" d="M131.6,236v-20.8h3.5V236H131.6z"/>
		<path class="st1" d="M141.6,233.2c-2.1-2-3.1-4.5-3.1-7.6s1-5.6,3.1-7.6c2.1-2,4.7-3,7.7-3c2.3,0,4.3,0.5,6,1.6
			c1.8,1.1,3,2.6,3.8,4.6H155c-1.1-2.1-3-3.1-5.7-3.1c-2.1,0-3.9,0.7-5.2,2.1c-1.4,1.4-2,3.2-2,5.5s0.7,4.1,2,5.5
			c1.4,1.4,3.1,2.1,5.2,2.1c2.6,0,4.5-1,5.7-3.1h4.2c-0.8,2-2.1,3.5-3.8,4.6c-1.8,1.1-3.8,1.6-6,1.6
			C146.3,236.2,143.7,235.2,141.6,233.2z"/>
		<path class="st1" d="M177.6,236l-1.5-4.2h-8.9l-1.5,4.2H162l7.6-20.8h4l7.6,20.8H177.6z M168.1,229.1h7l-3.5-9.8L168.1,229.1z"/>
		<path class="st1" d="M194.2,218.1c-2.1,0-3.9,0.7-5.2,2.1c-1.4,1.4-2,3.2-2,5.5s0.7,4.1,2,5.5c1.4,1.4,3.1,2.1,5.2,2.1
			c2.6,0,4.5-1,5.7-3.1h4.2c-0.7,1.8-1.9,3.3-3.4,4.3c-1.5,1.1-3.3,1.7-5.3,1.8v1.3c1.2,0,2.1,0.3,2.9,0.8s1.1,1.3,1.1,2.3
			c0,1-0.4,1.8-1.1,2.4s-1.7,0.9-2.8,0.9h-4v-2.2h3.3c0.6,0,1-0.1,1.3-0.2c0.3-0.2,0.4-0.4,0.4-0.9c0-0.4-0.1-0.7-0.4-0.9
			c-0.3-0.2-0.7-0.2-1.3-0.2H193v-3.3c-2.8-0.3-5.1-1.4-6.9-3.3c-1.8-1.9-2.8-4.4-2.8-7.4c0-3,1-5.5,3.1-7.5c2.1-2,4.7-3,7.7-3
			c2.3,0,4.3,0.5,6,1.6c1.8,1.1,3,2.6,3.8,4.6h-4.2C198.8,219.1,196.9,218.1,194.2,218.1z"/>
		<path class="st1" d="M217.9,236.2c-3,0-5.6-1-7.7-3c-2.1-2-3.1-4.5-3.1-7.6s1-5.6,3.1-7.6c2.1-2,4.7-3,7.7-3c3,0,5.6,1,7.7,3
			c2.1,2,3.1,4.5,3.1,7.6s-1,5.6-3.1,7.6C223.5,235.2,220.9,236.2,217.9,236.2z M217.9,233.2c2.1,0,3.9-0.7,5.2-2.1
			c1.4-1.4,2-3.2,2-5.5s-0.7-4.1-2-5.5c-1.4-1.4-3.1-2.1-5.2-2.1c-2.1,0-3.9,0.7-5.2,2.1c-1.4,1.4-2,3.2-2,5.5s0.7,4.1,2,5.5
			C214,232.5,215.7,233.2,217.9,233.2z M214,210.9c0.6-0.6,1.3-0.9,2-0.9s1.5,0.2,2.2,0.7c0.7,0.4,1.2,0.7,1.6,0.7
			c0.8,0,1.2-0.4,1.3-1.3h2c-0.2,1.2-0.5,2-1.2,2.6s-1.3,0.9-2,0.9s-1.5-0.2-2.2-0.7s-1.2-0.7-1.6-0.7c-0.8,0-1.2,0.4-1.3,1.3h-2
			C213,212.4,213.4,211.5,214,210.9z"/>
		<path class="st1" d="M243.9,215.2v2.7h-8.3v6.3h7.3v2.6h-7.3v6.5h8.3v2.7h-11.7v-20.8H243.9z"/>
		<path class="st1" d="M254.7,217.8c-1,0-1.9,0.3-2.5,0.8c-0.7,0.5-1,1.3-1,2.3s0.4,1.7,1.2,2.3c0.8,0.5,1.7,0.9,2.8,1.1
			c1.1,0.2,2.2,0.5,3.3,0.8c1.1,0.3,2,0.9,2.8,1.7c0.8,0.8,1.2,2,1.2,3.6c0,1.5-0.7,2.9-2,4.1c-1.3,1.2-3.1,1.8-5.3,1.8
			c-2.2,0-4-0.5-5.4-1.5s-2.1-2.4-2.1-4.2h3.7c0.1,0.9,0.4,1.6,1,2.2c0.6,0.5,1.5,0.8,2.7,0.8c1.2,0,2.1-0.3,2.8-0.9s1-1.3,1-2.1
			c0-0.8-0.2-1.5-0.6-1.9c-0.4-0.5-1-0.8-1.6-1s-1.4-0.4-2.2-0.6c-0.8-0.2-1.6-0.4-2.4-0.6c-0.8-0.2-1.5-0.5-2.2-0.9
			s-1.2-0.9-1.6-1.7c-0.4-0.7-0.6-1.6-0.6-2.7c0-1.8,0.7-3.3,2-4.4c1.3-1.1,3.1-1.7,5.2-1.7c2.1,0,3.8,0.5,5.1,1.4s2,2.3,2.1,4.2
			h-3.9c-0.1-0.8-0.4-1.5-1-2C256.6,218,255.8,217.8,254.7,217.8z"/>
		<path class="st1" d="M62,253.8v-2.7h14.8v2.7h-5.7v18.1h-3.5v-18.1H62z"/>
		<path class="st1" d="M80.4,271.9v-20.8h3.5v20.8H80.4z"/>
		<path class="st1" d="M101.3,252.9c1.3,1.2,2,2.6,2,4.4c0,1.7-0.6,3.2-1.8,4.4c-1.2,1.2-3.1,1.8-5.7,1.8h-3.9v8.4h-3.5v-20.8h7.3
			C98.2,251.1,100,251.7,101.3,252.9z M91.9,260.8h3.9c1.3,0,2.3-0.3,3-0.9c0.7-0.6,1-1.5,1-2.6c0-1.1-0.3-2-1-2.6
			c-0.7-0.6-1.6-0.9-3-0.9h-3.9V260.8z"/>
		<path class="st1" d="M116.3,272.1c-3,0-5.6-1-7.7-3c-2.1-2-3.1-4.5-3.1-7.6s1-5.6,3.1-7.6c2.1-2,4.7-3,7.7-3c3,0,5.6,1,7.7,3
			c2.1,2,3.1,4.5,3.1,7.6s-1,5.6-3.1,7.6C121.9,271.1,119.4,272.1,116.3,272.1z M116.3,269c2.1,0,3.9-0.7,5.2-2.1
			c1.4-1.4,2-3.2,2-5.5s-0.7-4.1-2-5.5c-1.4-1.4-3.1-2.1-5.2-2.1c-2.1,0-3.9,0.7-5.2,2.1c-1.4,1.4-2,3.2-2,5.5s0.7,4.1,2,5.5
			C112.4,268.3,114.2,269,116.3,269z"/>
		<path class="st1" d="M140.1,272.1c-2.9,0-5.4-1-7.5-3c-2.1-2-3.1-4.5-3.1-7.6s1-5.6,3.1-7.6c2.1-2,4.7-3,7.7-3
			c2.3,0,4.3,0.5,6,1.6c1.8,1.1,3,2.6,3.8,4.6h-4.2c-1.1-2.1-3-3.1-5.7-3.1c-2.1,0-3.9,0.7-5.2,2.1c-1.4,1.4-2,3.2-2,5.5
			s0.7,4.1,2,5.5c1.4,1.4,3,2.1,5.1,2.1c2,0,3.6-0.5,4.8-1.6c1.2-1,1.9-2.5,2.2-4.3h-8v-2.7h11.7v2.7c-0.3,2.5-1.5,4.6-3.4,6.3
			S143,272.1,140.1,272.1z"/>
		<path class="st1" d="M157.7,263.5v8.4h-3.5v-20.8h7.3c2.4,0,4.3,0.6,5.6,1.7s2,2.6,2,4.4c0,1.4-0.4,2.7-1.3,3.8
			c-0.9,1.1-2.2,1.8-4,2.2l5.6,8.6h-4.2l-5.3-8.4H157.7z M157.7,253.8v7h3.9c1.3,0,2.3-0.3,3-0.9c0.7-0.6,1-1.5,1-2.6
			c0-1.1-0.3-2-1-2.6c-0.7-0.6-1.6-0.9-3-0.9H157.7z"/>
		<path class="st1" d="M187.8,271.9l-1.5-4.2h-8.9l-1.5,4.2h-3.6l7.6-20.8h4l7.6,20.8H187.8z M185,243.8v2.9l-6.8,3.3v-2.5
			L185,243.8z M178.4,265h7l-3.5-9.8L178.4,265z"/>
		<path class="st1" d="M194.8,271.9v-20.8h12.5v2.7h-9v6.3h7v2.6h-7v9.2H194.8z"/>
		<path class="st1" d="M210.5,271.9v-20.8h3.5v20.8H210.5z"/>
		<path class="st1" d="M220.6,269.1c-2.1-2-3.1-4.5-3.1-7.6s1-5.6,3.1-7.6c2.1-2,4.7-3,7.7-3c2.3,0,4.3,0.5,6,1.6
			c1.8,1.1,3,2.6,3.8,4.6H234c-1.1-2.1-3-3.1-5.7-3.1c-2.1,0-3.9,0.7-5.2,2.1c-1.4,1.4-2,3.2-2,5.5s0.7,4.1,2,5.5
			c1.4,1.4,3.1,2.1,5.2,2.1c2.6,0,4.5-1,5.7-3.1h4.2c-0.8,2-2.1,3.5-3.8,4.6c-1.8,1.1-3.8,1.6-6,1.6
			C225.3,272.1,222.7,271.1,220.6,269.1z"/>
		<path class="st1" d="M256.6,271.9l-1.5-4.2h-8.9l-1.5,4.2H241l7.6-20.8h4l7.6,20.8H256.6z M247.1,265h7l-3.5-9.8L247.1,265z"/>
		<path class="st1" d="M270.1,253.6c-1,0-1.9,0.3-2.5,0.8c-0.7,0.5-1,1.3-1,2.3s0.4,1.7,1.2,2.3c0.8,0.5,1.7,0.9,2.8,1.1
			c1.1,0.2,2.2,0.5,3.3,0.8c1.1,0.3,2,0.9,2.8,1.7c0.8,0.8,1.2,2,1.2,3.6c0,1.5-0.7,2.9-2,4.1c-1.3,1.2-3.1,1.8-5.3,1.8
			c-2.2,0-4-0.5-5.4-1.5s-2.1-2.4-2.1-4.2h3.7c0.1,0.9,0.4,1.6,1,2.2s1.5,0.8,2.7,0.8c1.2,0,2.1-0.3,2.8-0.9c0.7-0.6,1-1.3,1-2.1
			c0-0.8-0.2-1.5-0.6-1.9c-0.4-0.5-1-0.8-1.6-1s-1.4-0.4-2.2-0.6c-0.8-0.2-1.6-0.4-2.4-0.6c-0.8-0.2-1.5-0.5-2.2-0.9
			s-1.2-0.9-1.6-1.7c-0.4-0.7-0.6-1.6-0.6-2.7c0-1.8,0.7-3.3,2-4.4c1.3-1.1,3.1-1.7,5.2-1.7c2.1,0,3.8,0.5,5.1,1.4s2,2.3,2.1,4.2
			h-3.9c-0.1-0.8-0.4-1.5-1-2C272,253.9,271.2,253.6,270.1,253.6z"/>
	</g>
	<g>
		<path class="st1" d="M95.1,155.1c0.5-0.9,1-1.7,1.4-2.5c0.4-0.8,0.7-1.6,1-2.5h0.5c0.7,0,1.3-0.2,1.7-0.5c0.4-0.3,0.8-0.6,1.3-0.9
			c0.3,0,0.6,0,0.9-0.1c0.4-0.1,0.7-0.1,0.9-0.1c0.6-0.6,1.4-0.9,2.2-0.8c0.9,0.1,1.6,0,2.2-0.4c0.8,0,1.7,0,2.6-0.1
			c0.9,0,1.9-0.1,2.9-0.1h0.1c1-0.5,1.8-1.1,2.3-1.8c0.5-0.7,1.1-1.4,1.6-2.2c0.3-0.7,0.5-1.3,0.7-1.9c0.2-0.6,0.7-1.2,1.4-1.9
			c0.2-0.4,0.4-0.9,0.6-1.3c0.2-0.4,0.4-0.8,0.6-1.3c0.3-0.7,0.5-1.3,0.8-1.8c0.3-0.5,0.4-0.9,0.4-1.4c0.1-0.4,0.4-0.9,0.8-1.5
			c0.5-0.5,0.9-1,1.4-1.5v-0.5c0-0.7,0.1-1.3,0.3-1.7c0.2-0.4,0.4-0.9,0.5-1.5c0.2-0.7,0.4-1.3,0.7-1.7c0.3-0.4,0.7-0.8,1.2-1.3
			v-1.3c0.3-0.5,0.4-1.1,0.5-1.7c0-0.6,0.2-1.1,0.3-1.5c0.7-0.6,1.2-1.4,1.5-2.3c0.3-0.9,0.6-1.9,1-2.8c0.1-1.2,0.4-2.4,0.9-3.6
			c0.5-1.1,1.1-2.3,1.7-3.3c0-0.3,0.1-0.6,0.2-0.9c0.1-0.4,0.2-0.7,0.2-0.9c0.6-2.3,1.3-4.5,2-6.5c0.7-2,1.6-4.2,2.6-6.5
			c0.6-0.6,1-1.3,1.1-2.1c0.1-0.8,0.2-1.7,0.3-2.7c0.4-0.4,0.7-0.9,0.9-1.5c0.2-0.5,0.4-1.1,0.6-1.7c0.2-0.4,0.4-0.8,0.6-1
			c0.2-0.2,0.4-0.5,0.6-1c0.1,0,0.2-0.1,0.4-0.3c0-0.1,0-0.2,0.1-0.3c0.5-1.3,0.9-2.7,1.4-4c0.5-1.4,1.1-2.7,1.8-3.9
			c0.5-1,0.9-1.9,1.4-2.8c0.5-0.9,1-1.8,1.8-2.7c0.2-0.7,0.5-1.4,1.1-2c0.5-0.6,1-1.3,1.5-2c0.5-1,1.1-1.8,1.8-2.5
			c0.6-0.7,1.3-1.4,2-2.1c0.5-0.1,0.9-0.3,1.4-0.7c0.4-0.4,0.9-0.8,1.4-1.3c0.3-0.3,0.5-0.4,0.6-0.5c0.1-0.1,0.2-0.3,0.2-0.5
			c2.8-1.3,5.2-2.9,7.3-4.8c0.7-0.4,1.4-0.7,2-0.8c0.6-0.1,1.3-0.3,2-0.5c0.5,0,0.8-0.1,1.1-0.3c0.3-0.2,0.6-0.3,1.1-0.3
			c0.7-0.2,1.5-0.3,2.4-0.3c0.9,0,1.8,0,2.8,0c0.5,0,0.9,0,1.4-0.1c0.5,0,0.9-0.2,1.4-0.5h1.4c0.7,0,1.4,0.1,2,0.3
			c0.6,0.2,1.2,0.3,1.6,0.3c0.5,0.2,0.9,0.3,1.2,0.3c0.2,0,0.7,0,1.3,0c0.2,0,0.4,0,0.5,0.1c0.2,0,0.3,0.2,0.3,0.5
			c0.6,0.4,1.3,0.9,1.9,1.4c0.6,0.5,1.2,1.1,1.6,1.8c0.3,0.2,0.5,0.5,0.7,0.9c0.2,0.4,0.4,0.8,0.6,1.3c0.2,1.1,0.4,2.2,0.7,3.3
			c0.3,1.2,0.4,2.3,0.4,3.3c0,0.5,0.1,1,0.4,1.4c0.3,0.4,0.4,0.8,0.4,1.3c0.5,0.5,0.5,1,0,1.3c-0.9,2-1.5,4.2-1.9,6.5v0.1
			c0.2,0.4,0.3,0.6,0.3,0.9c0,0.2,0.1,0.4,0.1,0.6c0,0.3-0.1,0.5-0.2,0.7c-0.1,0.2-0.2,0.4-0.2,0.6c-0.5,1-0.8,2-1,3.1
			c-0.2,1.1-0.4,2-0.6,2.8c-0.3,1.2-0.6,2.4-0.9,3.4c-0.4,1.1-0.7,2.1-1.1,3.1c-0.2,1.2-0.5,2.4-0.8,3.4c-0.4,1-0.7,2-0.9,3
			c0,0.4,0,0.9,0,1.3c0,0.4-0.1,0.9-0.3,1.5c-0.3,0.9-0.5,1.7-0.5,2.5c-0.1,0.8-0.3,1.7-0.7,2.7l-0.1,0.5c-0.4,0.2-0.6,0.4-0.7,0.7
			c-0.1,0.3-0.4,0.3-0.8,0.1h-1.2c-1,0.3-1.8,0.2-2.3-0.1c-0.5-0.4-1.1-0.8-1.6-1.2c-0.2-0.4-0.4-0.8-0.6-1c-0.2-0.2-0.5-0.6-0.7-1
			c-0.2-0.6-0.3-1.1-0.3-1.3c0-0.3-0.2-0.6-0.5-1.1c-0.7-1.2-0.7-2.4,0-3.6V94c-0.3-0.6-0.4-1.1-0.5-1.3c0-0.3-0.1-0.6-0.1-1.1V90
			c0-0.2,0-0.3-0.1-0.3c0,0-0.1-0.1-0.1-0.2l-0.1-0.1c-0.3-0.4-0.3-0.8-0.2-1.1c0.1-0.3,0.3-0.5,0.5-0.7c-0.1-0.1-0.1-0.2,0-0.3
			l0.5-0.5l0.5-0.5c0.2-0.8,0.5-1.6,0.8-2.5c0.4-0.8,0.5-1.6,0.5-2.3c0.2-1,0.5-1.8,0.9-2.5c0.4-0.7,0.8-1.5,1.3-2.5
			c0.3-0.7,0.6-1.4,1-2.1c0.4-0.7,0.7-1.4,1-2.1c0.7-1.4,1.3-3,1.6-4.8c0-1.7,0.4-3.1,1.1-4.4c0-0.2,0-0.3-0.1-0.4
			c0-0.1-0.3-0.2-0.6-0.4c-0.2-0.3-0.4-0.5-0.6-0.7c-0.2-0.2-0.4-0.4-0.6-0.7c-0.5-0.4-0.9-0.6-1.4-0.7c-0.5-0.1-0.8-0.1-0.9,0
			c-1,0.6-1.9,1.1-2.8,1.5c-0.9,0.4-1.8,0.8-2.6,1.3c-1.1,0.4-1.9,1.3-2.4,2.7l-0.5,0.5c-0.2,0.2-0.5,0.4-0.9,0.8
			c-0.4,0.4-0.7,0.7-0.9,1.1c-1.3,2-2.6,4.1-4,6.1c-1.4,2-2.4,4.2-3.1,6.5c-0.4,1.1-0.8,2.1-1.4,3c-0.6,0.9-1.2,1.8-1.8,2.6
			c-0.5,0.7-0.8,1.3-1.1,1.9c-0.3,0.5-0.5,1.1-0.5,1.9c-0.4,0.8-0.7,1.7-1,2.8c-0.3,1.1-0.6,2-1.1,2.8c-0.5,1.2-0.9,2.4-1.3,3.4
			c-0.4,1-0.6,2.1-0.6,3.4c0,0.4-0.1,0.8-0.3,1.1c-0.2,0.3-0.4,0.6-0.5,1.1c-0.5,1-1.1,2-1.6,3c-0.5,1.1-0.9,2.3-1.1,3.7
			c0,0.4-0.1,0.8-0.3,1c-0.2,0.2-0.5,0.6-0.7,1c-0.2,0.7-0.4,1.5-0.6,2.3c-0.2,0.8-0.6,1.6-1,2.3c-0.5,1.6-1,3.2-1.7,4.7
			c-0.7,1.5-1.4,3.1-2.1,4.6c-0.6,1.3-1.2,2.7-1.7,4c-0.5,1.3-1.1,2.7-1.8,4c-0.8,2.8-2.2,5.6-4.1,8.2c-0.5,0.7-0.9,1.4-1.4,2.1
			c-0.5,0.7-0.9,1.4-1.4,2c-0.4,0.6-0.6,1.2-0.6,1.7c0,0.5-0.1,1-0.1,1.5c0.1,0.1,0.2,0.1,0.3,0.1c0.1,0.1,0.2,0.1,0.3,0.1
			c0.1,0,0.1,0.1,0.1,0.3c0.1,0.2,0.4,0.4,0.8,0.5c0.5,0.2,0.9,0.3,1.4,0.3c0.6,0.4,1.2,0.6,1.6,0.7c0.4,0.1,0.8,0.4,1.3,0.7
			c1.3,0.4,2.5,0.9,3.8,1.4c1.3,0.5,2.6,1.1,3.9,1.8c1.4,0.6,2.8,1.4,4.2,2.3c1.4,0.9,2.9,1.8,4.5,2.7c0.2,0.3,0.5,0.6,0.8,0.9
			c0.4,0.4,0.6,0.6,0.8,0.8h0.5c1.4,0.6,2.5,1.3,3.5,2.1c0.2,0,0.3,0,0.4,0.1c0.1,0.1,0.2,0.2,0.4,0.3c0.2,0.1,0.3,0.2,0.4,0.3
			c0.8,0.6,1.6,1.1,2.2,1.5c0.7,0.4,1.5,0.7,2.4,1c1.2,0.7,2.4,1.3,3.7,1.8c1.3,0.5,2.5,1,3.8,1.7c0.3,0.3,0.6,0.5,0.9,0.8
			c0.4,0.3,0.7,0.4,0.9,0.5c0.1,0,0.3,0.1,0.5,0.4l0.3,0.3c1,0.2,1.9,0.4,2.7,0.8c0.8,0.4,1.8,0.7,2.8,0.9h3.3c0.6,0,1.3,0,1.9,0.1
			c0.6,0,1.2,0.2,1.6,0.6h0.5c0.8-0.4,1.6-0.6,2.5-0.9c0.9-0.2,1.7-0.3,2.4-0.3c0.6-0.2,1.3-0.4,1.9-0.7c0.6-0.3,1.2-0.7,1.8-1.2
			c0.5-0.4,0.9-0.8,1.3-1.1c0.4-0.3,0.9-0.6,1.6-1.1h0.8c0.2,0,0.4,0.1,0.6,0.3c0.2,0.2,0.4,0.3,0.6,0.3v3.2c0,0.4-0.1,0.8-0.3,1.1
			c-0.2,0.3-0.4,0.7-0.5,1.1v0.4c-0.4,1.2-1.3,2.1-2.7,2.7c-0.7,0.4-1.4,0.7-2,0.8c-0.6,0.1-1.2,0.3-1.8,0.5c-0.8,0.4-1.7,0.8-2.6,1
			c-0.9,0.2-2,0.3-3.3,0.3h-3.1c-0.6,0-1.2,0-1.8,0c-0.5,0-1,0.1-1.5,0.3c-0.5,0.5-0.9,0.5-1.2,0h-0.8c-0.3,0-0.6,0-0.9,0
			c-0.3,0-0.5-0.1-0.6-0.3c-0.5-0.3-1.1-0.4-1.8-0.5c-0.6-0.1-1.3-0.3-2-0.5c-0.9,0-1.4-0.1-1.6-0.3c-0.8-0.5-1.5-0.9-2-1.1
			c-0.5-0.2-1.3-0.5-2.3-0.7c-2.3,0-4.3-0.7-6.2-2.1c-1-0.5-1.9-1-2.8-1.4c-0.9-0.4-1.9-0.7-3.2-1c-0.2,0-0.3,0-0.4-0.1
			c-0.1,0-0.2,0-0.4-0.1c-0.4-0.4-0.6-0.5-0.8-0.5c-0.5-0.2-1-0.4-1.7-0.7c-0.7-0.3-1.4-0.5-2.1-0.5c-0.3,0-0.5-0.1-0.7-0.4
			c-0.2-0.3-0.4-0.5-0.7-0.8c-0.4,0-0.6,0-0.7-0.1c-0.1,0-0.1,0-0.1-0.1l-2.7-1.3c-0.5,0-0.8-0.1-1.1-0.2c-0.3-0.1-0.5-0.2-0.7-0.2
			c-0.4-0.4-0.6-0.6-0.7-0.6c-0.1,0-0.4-0.1-0.7-0.1c-0.7-0.4-1.3-0.8-1.8-1.1c-0.5-0.3-1-0.6-1.6-1.1c-0.6-0.2-1.1-0.3-1.4-0.4
			c-0.3-0.1-0.6-0.2-1.1-0.4c-0.5-0.2-1-0.4-1.6-0.7c-0.6-0.3-1.1-0.4-1.6-0.5c-1.3-0.6-2.5-1.1-3.6-1.5c-1.1-0.4-2.3-0.7-3.6-0.9
			c-1-0.2-2-0.5-3.1-0.9c-1.1-0.4-2.3-0.7-3.5-0.9c-0.2-0.3-0.5-0.3-0.9-0.2c-0.4,0.1-0.7,0.2-0.7,0.2c-0.6,0.2-1.2,0.3-1.6,0.4
			c-0.4,0.1-0.8,0.3-1.3,0.5c-0.5,0-0.8,0.1-1.1,0.3c-0.3,0.2-0.7,0.4-1.4,0.5c-0.5,0.2-1,0.4-1.5,0.7c-0.5,0.3-1.2,0.4-1.9,0.5
			h-1.5c-0.5,0.4-0.8,0.5-1,0.5s-0.5-0.2-0.7-0.5h-1.5c-0.2,0-0.5,0.1-0.8,0.3c-0.4,0.2-0.7,0.3-0.9,0.3c-0.2,0-0.4,0-0.5-0.1
			c-0.2,0-0.3-0.2-0.3-0.6h-1.5c-0.5,0.8-1.1,0.8-1.8,0c-0.5-0.1-0.9-0.3-1.5-0.7c-0.5-0.4-1-0.7-1.5-0.9c-0.3-0.2-0.6-0.3-0.9-0.4
			c-0.4-0.1-0.7-0.3-0.9-0.5c-0.5-0.4-0.9-0.9-1.2-1.3c-0.2-0.4-0.5-0.9-0.7-1.5c0-0.4-0.1-0.9-0.3-1.3c-0.2-0.4-0.3-0.7-0.3-0.9
			V155.1z"/>
		<path class="st1" d="M209.8,97.5c0.7,0,1.3,0.1,1.8,0.2c0.5,0.1,1.1,0.2,1.8,0.2c1.6,0.5,3.1,1.1,4.5,1.7c1.4,0.6,2.7,1.2,4,1.9
			c1,0.5,1.7,1.1,2.2,1.7c0.5,0.6,1,1.4,1.4,2.3c0.4,0.5,0.7,1.1,0.9,1.7c0.2,0.6,0.5,1.1,0.7,1.5c0.2,0.4,0.4,0.8,0.6,1.1
			c0.2,0.3,0.3,0.7,0.3,1.1c0.1,0,0.1,0.1,0.1,0.3c0,0.1,0,0.1-0.1,0.1c0,0.3-0.1,0.6-0.3,0.9c-0.2,0.4-0.4,0.6-0.6,0.8l-0.5,0.7
			c-0.5,0-0.9,0-1.2-0.1c-0.3-0.1-0.6-0.4-1.1-0.9c-0.9-0.7-1.9-1.3-3-1.9c-1.1-0.6-2.3-1.1-3.5-1.7c-0.6-0.2-1.4-0.3-2.2-0.3
			c-0.8,0-1.6-0.1-2.3-0.1H213c-0.7,0.7-1.4,1.3-2,1.8c-0.6,0.5-1.2,1.1-1.6,1.8c-0.5,0.7-0.9,1.4-1.3,2.1c-0.4,0.7-0.7,1.2-0.9,1.7
			c-0.4,0.4-0.7,0.8-0.9,1.1c-0.2,0.3-0.4,0.6-0.6,0.7c-0.7,1.5-1.4,3-2.1,4.5c-0.7,1.5-1.3,3-2,4.4c-0.7,1.3-1.3,2.6-1.8,3.9
			c-0.5,1.3-0.8,2.6-1,4c-0.2,1.1-0.5,2.2-0.8,3.2c-0.4,1-0.7,2-0.9,3c-0.2,1.1-0.4,2.1-0.6,3.1c-0.2,1-0.4,2.1-0.6,3.3
			c-0.4,0.3-0.5,0.6-0.3,0.9c0.1,0.4,0,0.7-0.3,0.9v1.2c0,0.4,0,0.6-0.1,0.9c-0.1,0.2,0,0.4,0.1,0.6c0.4,0.7,0.6,1.4,0.7,2
			c0.1,0.6,0.4,1.3,0.8,2c0.2,0.2,0.5,0.4,0.9,0.6c0.4,0.2,0.8,0.3,1.3,0.3h3.3c0.3,0,0.5-0.2,0.8-0.5c0.5-0.2,1-0.4,1.5-0.6
			c0.5-0.2,0.9-0.4,1.4-0.6c0.7-0.4,1.4-0.8,2-1.3c0.6-0.5,1.2-1,1.6-1.5c0.5-0.2,0.8-0.4,1.1-0.7c0.3-0.3,0.7-0.5,1.2-0.5v-0.7
			c0.2-0.4,0.5-0.9,1.1-1.3c0.5-0.4,1-0.8,1.5-1.3c0.7,0,1.1-0.4,1.1-1.2c0.7-0.2,1.3-0.5,1.8-0.9c0.5-0.4,1-1,1.5-1.7
			c0.9-1,1.8-1.9,2.6-2.9c0.9-1,1.9-1.9,3.2-2.9c0.5-0.4,0.9-1,1.4-1.6c0.5-0.6,1-1.3,1.4-2c0-0.4,0.3-0.9,0.9-1.3
			c0.5,0,0.9-0.2,1.4-0.5c0.5-0.4,0.8-0.8,0.9-1.3c0.5-0.6,0.9-1.2,1.3-1.7c0.4-0.5,0.8-1.1,1.3-1.9c0.2-0.2,0.4-0.4,0.7-0.8
			c0.3-0.4,0.7-0.7,1.2-0.9c0.9-0.6,1.9-1.5,3-2.8c1.1-1.2,1.9-2.3,2.3-3.2v-0.4c0.5-1,0.9-1.5,1.4-1.7c0.5-0.1,1.2-0.2,2.2-0.2h0.3
			c0.3,0,0.4,0.1,0.4,0.4c0,0.2,0.1,0.4,0.3,0.6c0.2,0.2,0.4,0.5,0.5,0.9v0.4c-0.2,0.2-0.3,0.5-0.4,0.9c-0.1,0.4-0.2,0.8-0.4,1.3
			c-0.5,0.5-1.2,1.3-2.1,2.3c-0.9,1-1.6,1.8-2.1,2.5c-0.2,0.2-0.4,0.6-0.6,1.1c-0.2,0.6-0.5,1.1-0.7,1.5c-0.2,0.4-0.5,0.9-0.8,1.3
			c-0.4,0.4-0.7,0.7-1.1,0.9c-0.5,0.5-0.8,0.9-1,1.3c-0.2,0.3-0.5,0.7-0.7,1.1c-0.5,0.2-0.8,0.5-1,0.9c-0.2,0.4-0.5,0.9-0.9,1.4
			c-0.2,0.2-0.4,0.4-0.6,0.7c-0.2,0.3-0.4,0.6-0.6,1.1c0,0.5-0.3,0.8-0.9,0.8c-0.6,0.5-1.2,1-1.7,1.5c-0.5,0.4-1,0.9-1.4,1.3
			c-0.3,0.4-0.5,0.8-0.8,1.1c-0.3,0.3-0.6,0.7-1.1,1.2c-1,0.9-1.9,1.8-2.8,2.7c-0.9,0.9-1.8,1.8-2.8,2.7c-0.7,0.7-1.3,1.3-1.8,1.8
			c-0.5,0.5-1.1,1-1.8,1.4c-0.5,0.2-0.8,0.4-1.1,0.6c-0.3,0.2-0.6,0.4-1.1,0.6c-0.4,0.5-0.7,0.9-1.1,1.2c-0.4,0.3-0.6,0.6-0.8,1.1
			c-0.3,0.3-0.6,0.5-0.9,0.7c-0.4,0.2-0.6,0.4-0.8,0.6c-1.2,1-2.4,1.8-3.8,2.5c-1.4,0.7-2.7,1.5-3.9,2.5h-1.1c-0.2,0-0.5,0-0.9,0.1
			c-0.4,0-0.8,0.2-1.3,0.3c-0.7,0.2-1.5,0.4-2.3,0.7c-0.8,0.3-1.5,0.5-2.2,0.8c-0.2,0.1-0.3,0.1-0.4,0c-0.2,0-0.3-0.2-0.3-0.5
			c-0.5,0-0.8-0.1-1.1-0.3c-0.3-0.2-0.7-0.3-1.2-0.3c-1,0.3-1.9,0.3-2.8,0.1c-0.9-0.2-1.8-0.5-2.8-0.9c-0.6-0.2-1.2-0.3-1.8-0.4
			c-0.5-0.1-1.2-0.3-1.9-0.7h-0.3c-0.1,0-0.1-0.1-0.1-0.4c-0.9-0.7-1.8-1.4-2.6-2c-0.9-0.6-1.6-1.4-2.4-2.4c-0.6-0.9-1.2-1.9-1.8-3
			c-0.6-1.1-0.9-2.4-0.9-3.8c0-0.7-0.1-1.3-0.2-1.8c-0.1-0.5-0.2-1.1-0.2-1.9v-1.7c0-0.5,0.1-0.8,0.4-0.8c0-0.4,0.1-0.7,0.2-1.1
			c0.1-0.4,0.2-0.6,0.2-0.8c1-2.5,1.9-5,2.8-7.4c0.9-2.5,1.9-4.9,3.1-7.3c0.5-1.1,0.9-2.2,1.4-3.3c0.5-1.1,1-2.3,1.5-3.4
			c0.5-0.6,0.9-1.3,1.5-2.1c0.5-0.8,1-1.5,1.5-2.3c1-0.4,1.5-1,1.5-1.9c0-0.7,0.1-1.3,0.3-1.8c0.2-0.5,0.6-1.1,1-1.8
			c1.4-1.6,2.9-3.1,4.3-4.6c1.4-1.5,2.9-3,4.4-4.4c0.7-0.7,1.5-1.3,2.4-1.9c0.9-0.5,1.8-1,2.8-1.3c0.5-0.2,1-0.4,1.6-0.5
			c0.6-0.2,1.2-0.3,1.7-0.3H209.8z"/>
	</g>
</g>
<g>
	<g class="st0">
		<path class="st1" d="M809,217.6h3.5v20.8H809v-9.2h-10v9.2h-3.5v-20.8h3.5v9h10V217.6z"/>
		<path class="st1" d="M831.4,238.4l-1.5-4.2H821l-1.5,4.2h-3.6l7.6-20.8h4l7.6,20.8H831.4z M821.9,231.5h7l-3.5-9.8L821.9,231.5z"
			/>
		<path class="st1" d="M841.9,229.9v8.4h-3.5v-20.8h7.3c2.4,0,4.3,0.6,5.6,1.8c1.3,1.2,2,2.6,2,4.4c0,1.4-0.4,2.7-1.3,3.8
			c-0.9,1.1-2.2,1.8-4,2.2l5.6,8.6h-4.2l-5.3-8.4H841.9z M841.9,220.3v7h3.9c1.3,0,2.3-0.3,3-0.9s1-1.5,1-2.6c0-1.1-0.3-2-1-2.6
			s-1.6-0.9-3-0.9H841.9z"/>
		<path class="st1" d="M880.1,217.6v20.8h-3.5v-14.2l-6.5,14.2h-2.4l-6.5-14.2v14.2h-3.5v-20.8h3.8l7.5,16.3l7.4-16.3H880.1z"/>
		<path class="st1" d="M894.4,238.6c-3,0-5.6-1-7.7-3c-2.1-2-3.1-4.5-3.1-7.6c0-3.1,1-5.6,3.1-7.6c2.1-2,4.7-3,7.7-3
			c3,0,5.6,1,7.7,3c2.1,2,3.1,4.5,3.1,7.6c0,3.1-1,5.6-3.1,7.6C900,237.6,897.4,238.6,894.4,238.6z M894.3,235.5
			c2.1,0,3.9-0.7,5.2-2.1c1.4-1.4,2-3.2,2-5.5s-0.7-4.1-2-5.5c-1.4-1.4-3.1-2.1-5.2-2.1c-2.1,0-3.9,0.7-5.2,2.1
			c-1.4,1.4-2,3.2-2,5.5s0.7,4.1,2,5.5C890.5,234.8,892.2,235.5,894.3,235.5z"/>
		<path class="st1" d="M922.6,217.6h3.5v20.8h-3.5l-10.5-15.5v15.5h-3.5v-20.8h3.5l10.5,15.5V217.6z"/>
		<path class="st1" d="M930.6,238.4v-20.8h3.5v20.8H930.6z"/>
		<path class="st1" d="M953,238.4l-1.5-4.2h-8.9l-1.5,4.2h-3.6l7.6-20.8h4l7.6,20.8H953z M943.6,231.5h7l-3.5-9.8L943.6,231.5z"/>
		<path class="st1" d="M787.1,271.4c-2.1-2-3.1-4.5-3.1-7.6c0-3.1,1-5.6,3.1-7.6c2.1-2,4.7-3,7.7-3c2.3,0,4.3,0.5,6,1.6
			c1.8,1.1,3,2.6,3.8,4.6h-4.2c-1.1-2.1-3-3.1-5.7-3.1c-2.1,0-3.9,0.7-5.2,2.1c-1.4,1.4-2,3.2-2,5.5s0.7,4.1,2,5.5
			c1.4,1.4,3.1,2.1,5.2,2.1c2.6,0,4.5-1,5.7-3.1h4.2c-0.8,2-2.1,3.5-3.8,4.6c-1.8,1.1-3.8,1.6-6,1.6
			C791.7,274.4,789.2,273.4,787.1,271.4z"/>
		<path class="st1" d="M812.2,265.8v8.4h-3.5v-20.8h7.3c2.4,0,4.3,0.6,5.6,1.8c1.3,1.2,2,2.6,2,4.4c0,1.4-0.4,2.7-1.3,3.8
			c-0.9,1.1-2.2,1.8-4,2.2l5.6,8.6h-4.2l-5.3-8.4H812.2z M812.2,256.1v7h3.9c1.3,0,2.3-0.3,3-0.9s1-1.5,1-2.6c0-1.1-0.3-2-1-2.6
			s-1.6-0.9-3-0.9H812.2z"/>
		<path class="st1" d="M837.7,274.5c-3,0-5.6-1-7.7-3c-2.1-2-3.1-4.5-3.1-7.6c0-3.1,1-5.6,3.1-7.6c2.1-2,4.7-3,7.7-3
			c3,0,5.6,1,7.7,3c2.1,2,3.1,4.5,3.1,7.6c0,3.1-1,5.6-3.1,7.6C843.3,273.4,840.8,274.5,837.7,274.5z M837.7,271.4
			c2.1,0,3.9-0.7,5.2-2.1c1.4-1.4,2-3.2,2-5.5s-0.7-4.1-2-5.5c-1.4-1.4-3.1-2.1-5.2-2.1c-2.1,0-3.9,0.7-5.2,2.1
			c-1.4,1.4-2,3.2-2,5.5s0.7,4.1,2,5.5C833.8,270.7,835.6,271.4,837.7,271.4z"/>
		<path class="st1" d="M874.4,253.5v20.8h-3.5V260l-6.5,14.2H862l-6.5-14.2v14.2H852v-20.8h3.8l7.5,16.3l7.4-16.3H874.4z"/>
		<path class="st1" d="M893.3,274.2l-1.5-4.2h-8.9l-1.5,4.2h-3.6l7.6-20.8h4l7.6,20.8H893.3z M890.5,246.1v2.9l-6.8,3.3v-2.5
			L890.5,246.1z M883.8,267.3h7l-3.5-9.8L883.8,267.3z"/>
		<path class="st1" d="M899.1,256.1v-2.7H914v2.7h-5.7v18.1h-3.5v-18.1H899.1z"/>
		<path class="st1" d="M917.5,274.2v-20.8h3.5v20.8H917.5z"/>
		<path class="st1" d="M927.5,271.4c-2.1-2-3.1-4.5-3.1-7.6c0-3.1,1-5.6,3.1-7.6c2.1-2,4.7-3,7.7-3c2.3,0,4.3,0.5,6,1.6
			c1.8,1.1,3,2.6,3.8,4.6h-4.2c-1.1-2.1-3-3.1-5.7-3.1c-2.1,0-3.9,0.7-5.2,2.1c-1.4,1.4-2,3.2-2,5.5s0.7,4.1,2,5.5
			c1.4,1.4,3.1,2.1,5.2,2.1c2.6,0,4.5-1,5.7-3.1h4.2c-0.8,2-2.1,3.5-3.8,4.6c-1.8,1.1-3.8,1.6-6,1.6
			C932.2,274.4,929.6,273.4,927.5,271.4z"/>
		<path class="st1" d="M963.5,274.2L962,270h-8.9l-1.5,4.2h-3.6l7.6-20.8h4l7.6,20.8H963.5z M954,267.3h7l-3.5-9.8L954,267.3z"/>
	</g>
	<g class="st0">
		<g>
			<path class="st1" d="M809.4,102.2c0.2,0.3,0.5,0.5,0.8,0.6l25.2,6.1c0.1,0,0.2,0,0.3,0c0.5,0,1-0.3,1.2-0.9
				c1.7-5.7,4.8-11,8.9-15.5c0.4-0.5,0.4-1.2-0.1-1.7l-18.7-17.6c-0.2-0.2-0.6-0.4-0.9-0.3c-0.3,0-0.7,0.2-0.9,0.4
				c-7.4,7.9-12.9,17.6-15.9,27.9C809.1,101.6,809.2,102,809.4,102.2z M826.1,76L843,91.9c-3.6,4.2-6.5,9.2-8.2,14.4l-22.8-5.5
				C814.8,91.6,819.7,83.1,826.1,76z"/>
			<path class="st1" d="M856.2,54.1c-10.4,3.2-20.1,8.8-28,16.2c-0.2,0.2-0.4,0.6-0.4,0.9c0,0.3,0.1,0.7,0.4,0.9l18.7,17.6
				c0.2,0.2,0.6,0.3,0.9,0.3c0.3,0,0.6-0.1,0.9-0.3c4.4-4,9.8-7.1,15.5-8.9c0.6-0.2,1-0.9,0.8-1.5l-7.2-24.4
				c-0.1-0.3-0.3-0.6-0.6-0.7C856.8,54,856.5,54,856.2,54.1z M862.2,78.9c-5.3,1.8-10.2,4.7-14.4,8.3l-16.9-15.9
				c7.1-6.5,15.7-11.4,24.8-14.4L862.2,78.9z"/>
			<path class="st1" d="M927.9,72.2c-0.2-0.2-0.6-0.4-0.9-0.4c-0.3,0-0.7,0.1-0.9,0.4l-18,18.3c-0.5,0.5-0.5,1.2,0,1.7
				c4,4.3,6.9,9.2,8.8,14.7c0.2,0.5,0.7,0.8,1.2,0.8c0.1,0,0.2,0,0.3,0l24.9-7.1c0.3-0.1,0.6-0.3,0.8-0.6c0.2-0.3,0.2-0.6,0.1-1
				C941,89.1,935.3,79.8,927.9,72.2z"/>
			<path class="st1" d="M808.2,105.4c-1,4.8-1.6,9.6-1.6,14.5c0,5.9,0.8,11.8,2.3,17.5c0.1,0.3,0.3,0.6,0.6,0.8
				c0.2,0.1,0.4,0.2,0.6,0.2c0.1,0,0.2,0,0.3,0l24.9-7.1c0.6-0.2,1-0.8,0.9-1.5c-0.8-3.2-1.2-6.5-1.2-9.8c0-2.7,0.3-5.3,0.8-7.9
				c0.1-0.6-0.3-1.3-0.9-1.4l-25.2-6.1c-0.3-0.1-0.7,0-1,0.2C808.5,104.8,808.3,105.1,808.2,105.4z M810.4,107.2l22.8,5.5
				c-0.4,2.4-0.6,4.8-0.6,7.3c0,3.1,0.3,6.2,1,9.2l-22.5,6.4c-1.3-5.1-1.9-10.4-1.9-15.6C809.1,115.6,809.6,111.4,810.4,107.2z"/>
			<path class="st1" d="M828.1,168.4c0.1,0,0.3-0.1,0.5-0.2l18-18.3c0.2-0.2,0.2-0.6,0-0.9c-4.3-4.3-7.6-9.6-9.7-15.2
				c-0.1-0.3-0.4-0.5-0.8-0.4l-25,7.1c-0.2,0-0.3,0.2-0.4,0.3c-0.1,0.1-0.1,0.3,0,0.5c3.4,10.1,9.3,19.4,16.9,26.9
				C827.8,168.3,828,168.4,828.1,168.4z M835.9,134.8c2,5.4,5.3,10.5,9.3,14.7l-17.1,17.4c-7.2-7.2-12.7-15.9-16-25.4L835.9,134.8z"
				/>
			<path class="st1" d="M896.9,53.8c-0.3-0.1-0.7-0.1-1,0.1c-0.3,0.2-0.5,0.4-0.6,0.8l-6.2,24.7c-0.2,0.6,0.2,1.3,0.8,1.5
				c5.7,1.8,10.8,4.7,15.2,8.6c0.2,0.2,0.5,0.3,0.8,0.3c0.3,0,0.7-0.1,0.9-0.4l18-18.3c0.2-0.2,0.4-0.6,0.4-0.9
				c0-0.3-0.2-0.6-0.4-0.9C916.8,62.1,907.2,56.7,896.9,53.8z"/>
			<path class="st1" d="M892.7,52.7c-10.6-2.3-21.8-2.3-32.3,0.3c-0.3,0.1-0.6,0.3-0.8,0.6c-0.2,0.3-0.2,0.6-0.1,1l7.2,24.4
				c0.2,0.5,0.7,0.9,1.2,0.9c0.1,0,0.2,0,0.3,0c5.9-1.2,11.9-1.2,17.8,0c0.7,0.1,1.3-0.3,1.5-0.9l6.2-24.7c0.1-0.3,0-0.7-0.1-0.9
				C893.3,53,893,52.8,892.7,52.7z M885.2,77.1c-5.5-1-11-1-16.5,0l-6.5-22.1c9.4-2,19.3-2.1,28.7-0.2L885.2,77.1z"/>
			<path class="st1" d="M863.3,186.9c4.5,0.9,9.1,1.3,13.8,1.3c6.1,0,12.2-0.8,18.1-2.3c0.2,0,0.3-0.1,0.4-0.3
				c0.1-0.1,0.1-0.3,0.1-0.5l-7.2-24.4c-0.1-0.3-0.4-0.5-0.8-0.4c-5.8,1.4-11.8,1.7-17.9,0.7c-0.3-0.1-0.6,0.1-0.7,0.5l-6.2,24.7
				c0,0.2,0,0.3,0.1,0.5C863,186.8,863.1,186.9,863.3,186.9z M870.1,162.3c5.9,0.9,11.7,0.7,17.3-0.6l6.9,23.2
				c-9.8,2.5-20.2,2.8-30.1,1L870.1,162.3z"/>
			<path class="st1" d="M859.1,185.9c0.1,0,0.1,0,0.2,0c0.1,0,0.2,0,0.3-0.1c0.1-0.1,0.2-0.2,0.3-0.4l6.2-24.7
				c0.1-0.3-0.1-0.7-0.4-0.7c-5.9-1.6-11.3-4.4-16-8.3c-0.3-0.2-0.6-0.2-0.9,0l-18,18.3c-0.1,0.1-0.2,0.3-0.2,0.5
				c0,0.2,0.1,0.3,0.2,0.4C838.9,178.1,848.7,183.2,859.1,185.9z M849.3,153.1c4.6,3.7,9.8,6.4,15.5,8l-5.9,23.5
				c-9.8-2.6-19-7.5-26.7-14L849.3,153.1z"/>
			<path class="st1" d="M946,134.3c1-4.7,1.5-9.5,1.5-14.3c0-5.7-0.7-11.3-2.1-16.8c-0.1-0.3-0.3-0.6-0.6-0.8
				c-0.3-0.2-0.6-0.2-1-0.1l-25,7.1c-0.6,0.2-1,0.8-0.9,1.5c0.7,3,1.1,6.1,1.1,9.1c0,2.6-0.3,5.2-0.8,7.8c-0.1,0.6,0.3,1.3,0.9,1.4
				l25.2,6.1c0.1,0,0.2,0,0.3,0c0.2,0,0.5-0.1,0.7-0.2C945.7,134.9,945.9,134.6,946,134.3z"/>
			<path class="st1" d="M898.8,184.6c0.1,0,0.2,0.1,0.3,0.1c0.1,0,0.1,0,0.2,0c10.1-3.3,19.4-8.9,27-16.3c0.1-0.1,0.2-0.3,0.2-0.4
				c0-0.2-0.1-0.3-0.2-0.4l-18.7-17.6c-0.2-0.2-0.6-0.2-0.9,0c-4.3,4.1-9.4,7.2-15,9.2c-0.3,0.1-0.5,0.4-0.4,0.7l7.2,24.4
				C898.6,184.4,898.7,184.6,898.8,184.6z M907.1,151.2l17.8,16.7c-7.2,6.9-16,12.2-25.4,15.4l-6.9-23.2
				C898,158.1,902.9,155.1,907.1,151.2z"/>
			<path class="st1" d="M928.7,166.1C928.8,166.1,928.8,166.1,928.7,166.1c0.4,0,0.7-0.2,0.9-0.4c7.1-7.8,12.4-17.3,15.3-27.3
				c0.1-0.3,0-0.7-0.1-0.9c-0.2-0.3-0.5-0.5-0.8-0.6l-25.2-6.1c-0.7-0.2-1.3,0.2-1.5,0.8c-1.7,5.5-4.4,10.5-8.3,14.9
				c-0.4,0.5-0.4,1.2,0.1,1.7l18.7,17.6C928.1,166,928.4,166.1,928.7,166.1z"/>
		</g>
	</g>
</g>
<g>
	<g class="st0">
		<path class="st1" d="M456.6,234.8v2.7h-8.3v6.3h7.3v2.6h-7.3v6.5h8.3v2.7h-11.7v-20.8H456.6z"/>
		<path class="st1" d="M483.2,234.8v20.8h-3.5v-14.2l-6.5,14.2h-2.4l-6.5-14.2v14.2h-3.5v-20.8h3.8l7.5,16.3l7.4-16.3H483.2z"/>
		<path class="st1" d="M497,234.8h8.1c2.2,0,3.9,0.5,5.1,1.6c1.2,1,1.8,2.4,1.8,3.9c0,2.3-1.4,3.9-4.1,4.6c1.4,0.2,2.5,0.8,3.3,1.8
			c0.8,1,1.3,2.1,1.3,3.4c0,1.6-0.6,2.9-1.9,3.9c-1.3,1-3,1.5-5.1,1.5H497V234.8z M500.5,237.5v6.2h4.3c1.1,0,2-0.3,2.7-0.8
			s1-1.3,1-2.3c0-1-0.3-1.7-1-2.3c-0.6-0.5-1.5-0.8-2.7-0.8H500.5z M500.5,252.9h4.7c1.2,0,2.1-0.3,2.8-0.9c0.7-0.6,1-1.4,1-2.4
			c0-1-0.4-1.8-1.1-2.5c-0.7-0.6-1.7-0.9-2.8-0.9h-4.6V252.9z"/>
		<path class="st1" d="M519.7,247.1v8.4h-3.5v-20.8h7.3c2.4,0,4.3,0.6,5.6,1.7c1.3,1.2,2,2.6,2,4.4c0,1.4-0.4,2.7-1.3,3.8
			c-0.9,1.1-2.2,1.8-4,2.2l5.6,8.6h-4.2l-5.3-8.4H519.7z M519.7,237.5v7h3.9c1.3,0,2.3-0.3,3-0.9c0.7-0.6,1-1.5,1-2.6
			c0-1.1-0.3-2-1-2.6c-0.7-0.6-1.6-0.9-3-0.9H519.7z"/>
		<path class="st1" d="M547.3,234.8v2.7H539v6.3h7.3v2.6H539v6.5h8.3v2.7h-11.7v-20.8H547.3z"/>
		<path class="st1" d="M557.9,255.6l-8-20.8h3.7l6.3,17.2l6.3-17.2h3.7l-8,20.8H557.9z"/>
		<path class="st1" d="M584.5,234.8v2.7h-8.3v6.3h7.3v2.6h-7.3v6.5h8.3v2.7h-11.7v-20.8H584.5z"/>
	</g>
	<path class="st1" d="M472.3,186.9h92.8c5.6,0,10.2-4.5,10.2-10v-54.3c0-5.5-4.6-10-10.2-10H558V89c0-21.2-17.6-38.4-39.2-38.4
		c-21.6,0-39.2,17.2-39.2,38.4v23.6h-7.2c-5.6,0-10.2,4.5-10.2,10v54.3C462.1,182.4,466.7,186.9,472.3,186.9z M486.5,89
		c0-17.4,14.5-31.6,32.3-31.6c17.8,0,32.3,14.2,32.3,31.6v23.6h-64.5V89z M469.1,122.7c0-1.7,1.5-3.1,3.2-3.1h92.8
		c1.8,0,3.2,1.4,3.2,3.1v54.3c0,1.7-1.5,3.2-3.2,3.2h-92.8c-1.8,0-3.2-1.4-3.2-3.2V122.7z"/>
	<path class="st1" d="M518.8,163.7c7.8,0,14.2-6.2,14.2-13.9s-6.4-13.9-14.2-13.9c-7.8,0-14.2,6.2-14.2,13.9
		C504.5,157.5,510.9,163.7,518.8,163.7z M518.8,142.7c4,0,7.2,3.2,7.2,7.1c0,3.9-3.2,7.1-7.2,7.1c-4,0-7.2-3.2-7.2-7.1
		C511.5,145.9,514.8,142.7,518.8,142.7z"/>
</g>
<g>
	<rect x="61.6" y="499" class="st2" width="220" height="76"/>
	<g>
		<rect x="57.6" y="495" class="st3" width="220" height="76"/>
		<g>
			<path class="st4" d="M107.5,523.4c1.4,1.2,2,2.8,2,4.6c0,1.8-0.6,3.4-1.9,4.7c-1.3,1.3-3.2,1.9-5.9,1.9h-4v8.9h-3.6v-22h7.6
				C104.2,521.6,106.1,522.2,107.5,523.4z M97.7,531.8h4c1.4,0,2.4-0.3,3.1-1c0.7-0.7,1-1.6,1-2.7s-0.3-2.1-1-2.7
				c-0.7-0.7-1.7-1-3.1-1h-4V531.8z"/>
			<path class="st4" d="M116.6,534.7v8.9H113v-22h7.6c2.5,0,4.4,0.6,5.8,1.9c1.4,1.2,2,2.8,2,4.7c0,1.5-0.4,2.8-1.3,4
				s-2.3,2-4.1,2.3l5.8,9.1h-4.4l-5.5-8.9H116.6z M116.6,524.4v7.4h4c1.4,0,2.4-0.3,3.1-1c0.7-0.7,1-1.6,1-2.7s-0.3-2.1-1-2.7
				c-0.7-0.7-1.7-1-3.1-1H116.6z"/>
			<path class="st4" d="M147.8,543.6l-1.6-4.5H137l-1.6,4.5h-3.8l7.9-22h4.2l7.9,22H147.8z M138,536.3h7.2l-3.6-10.3L138,536.3z"/>
			<path class="st4" d="M153.9,524.4v-2.8h15.3v2.8h-5.9v19.2h-3.6v-19.2H153.9z"/>
			<path class="st4" d="M172.9,543.6v-22h3.6v22H172.9z"/>
			<path class="st4" d="M183.3,540.6c-2.2-2.1-3.3-4.8-3.3-8.1s1.1-5.9,3.3-8.1c2.2-2.1,4.8-3.2,8-3.2c2.3,0,4.4,0.6,6.3,1.7
				c1.8,1.1,3.1,2.8,4,4.9h-4.3c-1.2-2.2-3.1-3.3-5.9-3.3c-2.2,0-4,0.7-5.4,2.2c-1.4,1.5-2.1,3.4-2.1,5.8s0.7,4.3,2.1,5.8
				c1.4,1.5,3.2,2.2,5.4,2.2c2.7,0,4.7-1.1,5.9-3.3h4.3c-0.8,2.1-2.1,3.7-4,4.9c-1.8,1.1-3.9,1.7-6.3,1.7
				C188.1,543.8,185.5,542.7,183.3,540.6z"/>
			<path class="st4" d="M220.5,543.6l-1.6-4.5h-9.2l-1.6,4.5h-3.8l7.9-22h4.2l7.9,22H220.5z M210.7,536.3h7.2l-3.6-10.3L210.7,536.3
				z"/>
			<path class="st4" d="M231.4,534.7v8.9h-3.6v-22h7.6c2.5,0,4.4,0.6,5.8,1.9c1.4,1.2,2,2.8,2,4.7c0,1.5-0.4,2.8-1.3,4
				s-2.3,2-4.1,2.3l5.8,9.1h-4.4l-5.5-8.9H231.4z M231.4,524.4v7.4h4c1.4,0,2.4-0.3,3.1-1c0.7-0.7,1-1.6,1-2.7s-0.3-2.1-1-2.7
				c-0.7-0.7-1.7-1-3.1-1H231.4z"/>
		</g>
	</g>
</g>
<g>
	<rect x="761.6" y="499" class="st2" width="220" height="76"/>
	<g>
		<rect x="757.6" y="495" class="st3" width="220" height="76"/>
		<g>
			<path class="st4" d="M807.5,523.4c1.4,1.2,2,2.8,2,4.6c0,1.8-0.6,3.4-1.9,4.7c-1.3,1.3-3.2,1.9-5.9,1.9h-4v8.9h-3.6v-22h7.6
				C804.2,521.6,806.1,522.2,807.5,523.4z M797.7,531.8h4c1.4,0,2.4-0.3,3.1-1c0.7-0.7,1-1.6,1-2.7s-0.3-2.1-1-2.7
				c-0.7-0.7-1.7-1-3.1-1h-4V531.8z"/>
			<path class="st4" d="M816.6,534.7v8.9H813v-22h7.6c2.5,0,4.4,0.6,5.8,1.9c1.4,1.2,2,2.8,2,4.7c0,1.5-0.4,2.8-1.3,4
				s-2.3,2-4.1,2.3l5.8,9.1h-4.4l-5.5-8.9H816.6z M816.6,524.4v7.4h4c1.4,0,2.4-0.3,3.1-1c0.7-0.7,1-1.6,1-2.7s-0.3-2.1-1-2.7
				c-0.7-0.7-1.7-1-3.1-1H816.6z"/>
			<path class="st4" d="M847.8,543.6l-1.6-4.5H837l-1.6,4.5h-3.8l7.9-22h4.2l7.9,22H847.8z M838,536.3h7.2l-3.6-10.3L838,536.3z"/>
			<path class="st4" d="M853.9,524.4v-2.8h15.3v2.8h-5.9v19.2h-3.6v-19.2H853.9z"/>
			<path class="st4" d="M872.9,543.6v-22h3.6v22H872.9z"/>
			<path class="st4" d="M883.3,540.6c-2.2-2.1-3.3-4.8-3.3-8.1s1.1-5.9,3.3-8.1c2.2-2.1,4.8-3.2,8-3.2c2.3,0,4.4,0.6,6.3,1.7
				c1.8,1.1,3.1,2.8,4,4.9h-4.3c-1.2-2.2-3.1-3.3-5.9-3.3c-2.2,0-4,0.7-5.4,2.2c-1.4,1.5-2.1,3.4-2.1,5.8s0.7,4.3,2.1,5.8
				c1.4,1.5,3.2,2.2,5.4,2.2c2.7,0,4.7-1.1,5.9-3.3h4.3c-0.8,2.1-2.1,3.7-4,4.9c-1.8,1.1-3.9,1.7-6.3,1.7
				C888.1,543.8,885.5,542.7,883.3,540.6z"/>
			<path class="st4" d="M920.5,543.6l-1.6-4.5h-9.2l-1.6,4.5h-3.8l7.9-22h4.2l7.9,22H920.5z M910.7,536.3h7.2l-3.6-10.3L910.7,536.3
				z"/>
			<path class="st4" d="M931.4,534.7v8.9h-3.6v-22h7.6c2.5,0,4.4,0.6,5.8,1.9c1.4,1.2,2,2.8,2,4.7c0,1.5-0.4,2.8-1.3,4
				s-2.3,2-4.1,2.3l5.8,9.1h-4.4l-5.5-8.9H931.4z M931.4,524.4v7.4h4c1.4,0,2.4-0.3,3.1-1c0.7-0.7,1-1.6,1-2.7s-0.3-2.1-1-2.7
				c-0.7-0.7-1.7-1-3.1-1H931.4z"/>
		</g>
	</g>
</g>
</svg>
