<svg xmlns="http://www.w3.org/2000/svg" viewBox="0 0 150.35 133.69"><defs><style>.cls-1{opacity:0.95;}.cls-2{fill:#fff;}</style></defs><title>Ativo 1</title><g id="Camada_2" data-name="Camada 2"><g id="Layer_1" data-name="Layer 1"><g class="cls-1"><path class="cls-2" d="M0,105.31q.81-1.32,1.42-2.45a13.51,13.51,0,0,0,1-2.45H3a2.73,2.73,0,0,0,1.69-.46A13,13,0,0,1,6,99.07a4,4,0,0,0,.95-.13,4.13,4.13,0,0,1,.95-.13A2.68,2.68,0,0,1,10.1,98a3.68,3.68,0,0,0,2.24-.4q1.22,0,2.64-.07t2.91-.07H18a7.44,7.44,0,0,0,2.31-1.79q.81-1,1.63-2.19l.75-1.92a5.94,5.94,0,0,1,1.42-1.92,10.89,10.89,0,0,1,.61-1.26,11.49,11.49,0,0,0,.61-1.26,14,14,0,0,1,.81-1.79A2.85,2.85,0,0,0,26.57,84a3.42,3.42,0,0,1,.81-1.46q.68-.79,1.36-1.46V80.5A4.6,4.6,0,0,1,29,78.78q.27-.67.54-1.46a4.38,4.38,0,0,1,.75-1.66,13.47,13.47,0,0,1,1.15-1.26V73.08a4.35,4.35,0,0,0,.48-1.66,5,5,0,0,1,.34-1.52,4.75,4.75,0,0,0,1.49-2.32q.41-1.39,1-2.85a11,11,0,0,1,.88-3.58,29,29,0,0,1,1.69-3.32,2.66,2.66,0,0,1,.21-.93,2.65,2.65,0,0,0,.2-.93q.95-3.45,2-6.5T42.3,43a3.48,3.48,0,0,0,1.09-2.12c.09-.8.18-1.68.27-2.65a6,6,0,0,0,.88-1.46A16.35,16.35,0,0,0,45.15,35a2.93,2.93,0,0,1,.61-1,2.89,2.89,0,0,0,.61-1c.09,0,.23-.09.41-.27a.38.38,0,0,1,.13-.26q.68-2,1.43-4a23.77,23.77,0,0,1,1.83-3.91q.68-1.46,1.36-2.78a15,15,0,0,1,1.76-2.65,4.83,4.83,0,0,1,1.09-2,16.48,16.48,0,0,0,1.49-2,14,14,0,0,1,1.76-2.52q.95-1.06,2-2.12A2.93,2.93,0,0,0,61,9.75q.67-.6,1.35-1.26A4.58,4.58,0,0,1,63,8a.59.59,0,0,0,.2-.53A30.58,30.58,0,0,0,70.5,2.65a5.4,5.4,0,0,1,2-.8,9.82,9.82,0,0,0,2-.53,2,2,0,0,0,1.08-.26A2,2,0,0,1,76.73.8,10.11,10.11,0,0,1,79.11.53h2.78A13.43,13.43,0,0,0,83.24.46,3.32,3.32,0,0,0,84.6,0H86a7.6,7.6,0,0,1,2,.26,6.1,6.1,0,0,0,1.63.27A4.35,4.35,0,0,0,90.77.8h1.29a2.32,2.32,0,0,1,.54.07c.18,0,.27.2.27.46q.95.67,1.9,1.39a7,7,0,0,1,1.63,1.79,2.44,2.44,0,0,1,.75.86,11.61,11.61,0,0,1,.61,1.26c.18,1.06.41,2.17.68,3.31a14.38,14.38,0,0,1,.41,3.32,2.39,2.39,0,0,0,.41,1.39,2.22,2.22,0,0,1,.41,1.26c.54.53.54,1,0,1.33a25.79,25.79,0,0,0-1.9,6.5v.13a3.78,3.78,0,0,1,.34.86,3.14,3.14,0,0,1,.07.6,1.37,1.37,0,0,1-.2.73,1.17,1.17,0,0,0-.2.6,14.13,14.13,0,0,0-1,3.05q-.34,1.59-.61,2.78a32.37,32.37,0,0,1-.95,3.45q-.54,1.59-1.08,3.05a18,18,0,0,1-.81,3.38q-.54,1.53-.95,3v1.26a5.68,5.68,0,0,1-.27,1.53,14,14,0,0,0-.54,2.52,11.35,11.35,0,0,1-.68,2.65l-.13.53a1.19,1.19,0,0,0-.68.73c-.09.31-.36.33-.81.07H88a2.84,2.84,0,0,1-2.31-.13,18.85,18.85,0,0,1-1.63-1.19,3,3,0,0,0-.61-1,5.1,5.1,0,0,1-.75-1A13.36,13.36,0,0,1,82.36,50a3.36,3.36,0,0,0-.47-1.06,3.22,3.22,0,0,1,0-3.58V44.16a6.69,6.69,0,0,1-.48-1.33,6.41,6.41,0,0,1-.07-1.06V40.19a.54.54,0,0,0-.07-.33.26.26,0,0,1-.07-.2l-.14-.13a1.11,1.11,0,0,1-.2-1.06,2.54,2.54,0,0,1,.48-.66.16.16,0,0,1,0-.26l.54-.53.54-.53A14.06,14.06,0,0,1,83.24,34a6,6,0,0,0,.54-2.32,7.93,7.93,0,0,1,.88-2.52q.61-1.06,1.29-2.52a15.21,15.21,0,0,1,1-2.12,15,15,0,0,0,1-2.12,18.76,18.76,0,0,0,1.63-4.78,8.51,8.51,0,0,1,1.08-4.38.91.91,0,0,0-.07-.4,1.71,1.71,0,0,0-.61-.4,3,3,0,0,0-.61-.66,2.94,2.94,0,0,1-.61-.66,3.26,3.26,0,0,0-1.42-.66q-.75-.13-.88,0A22.76,22.76,0,0,1,83.65,12q-1.36.6-2.58,1.26a4.52,4.52,0,0,0-2.44,2.65l-.54.53c-.18.18-.47.44-.88.8a3.68,3.68,0,0,0-.88,1.06q-1.9,3.05-4,6.1a21.39,21.39,0,0,0-3.05,6.5,14.05,14.05,0,0,1-1.42,3A30.28,30.28,0,0,1,66,36.47q-.68,1.06-1.08,1.86a5.6,5.6,0,0,0-.54,1.86,16.83,16.83,0,0,0-1,2.78,11.19,11.19,0,0,1-1.08,2.79q-.68,1.86-1.29,3.38a9.06,9.06,0,0,0-.61,3.38,1.86,1.86,0,0,1-.27,1.06,5.78,5.78,0,0,0-.54,1.06q-.81,1.46-1.63,3a11.29,11.29,0,0,0-1.09,3.71,1.33,1.33,0,0,1-.34,1,5.43,5.43,0,0,0-.74,1q-.27,1.07-.61,2.32a8.37,8.37,0,0,1-1,2.32,36.94,36.94,0,0,1-1.7,4.71q-1,2.32-2.1,4.58-1,2-1.7,4a31.12,31.12,0,0,1-1.83,4,26.85,26.85,0,0,1-4.07,8.22l-1.36,2.12q-.68,1.06-1.36,2a4.16,4.16,0,0,0-.61,1.72c0,.53-.07,1-.07,1.46a108.5,108.5,0,0,1,.54.27c.09,0,.14.09.14.26a1.51,1.51,0,0,0,.81.53,3.64,3.64,0,0,0,1.36.27,9.34,9.34,0,0,0,1.56.73,4.29,4.29,0,0,1,1.29.73q1.89.67,3.8,1.39a38.12,38.12,0,0,1,3.93,1.79,40.21,40.21,0,0,1,4.2,2.25q2.17,1.33,4.47,2.65a6.37,6.37,0,0,0,.81.93l.81.79h.54a16.84,16.84,0,0,1,3.53,2.13.56.56,0,0,1,.41.13,1.61,1.61,0,0,0,.41.27,1.61,1.61,0,0,1,.41.27,23.11,23.11,0,0,0,2.24,1.53,10.58,10.58,0,0,0,2.37,1,23.28,23.28,0,0,0,3.66,1.79q1.9.73,3.8,1.66a8.76,8.76,0,0,0,.95.8,3.52,3.52,0,0,0,.95.53c.09,0,.27.13.54.4l.27.26a12,12,0,0,1,2.71.8,18.15,18.15,0,0,0,2.85.93h3.25c.63,0,1.27,0,1.9.07a2.91,2.91,0,0,1,1.63.6h.54a16.48,16.48,0,0,1,2.51-.86,9.47,9.47,0,0,1,2.37-.33,16.5,16.5,0,0,0,1.9-.66,5.62,5.62,0,0,0,1.76-1.19,8.49,8.49,0,0,1,1.29-1.06q.61-.4,1.56-1.06h.81a1,1,0,0,1,.61.27,1,1,0,0,0,.61.27v3.18a2.21,2.21,0,0,1-.27,1.13,8.45,8.45,0,0,0-.54,1.13v.4a4,4,0,0,1-2.71,2.65,5.42,5.42,0,0,1-2,.8,7.63,7.63,0,0,0-1.83.53,10.67,10.67,0,0,1-2.58,1,13.92,13.92,0,0,1-3.25.33H91.51a4,4,0,0,0-1.49.26q-.68.8-1.22,0H87.11c-.32,0-.52-.09-.61-.26a5.78,5.78,0,0,0-1.76-.53,9.91,9.91,0,0,1-2-.53,2.88,2.88,0,0,1-1.63-.27,12.71,12.71,0,0,0-2-1.13,20.66,20.66,0,0,0-2.3-.73,10.22,10.22,0,0,1-6.23-2.12q-1.49-.8-2.78-1.39a14.8,14.8,0,0,0-3.19-1,.56.56,0,0,1-.41-.13,1.09,1.09,0,0,1-.41-.13q-.54-.53-.81-.53c-.45-.18-1-.42-1.69-.73a5,5,0,0,0-2.1-.46.8.8,0,0,1-.68-.4,5.37,5.37,0,0,0-.68-.8,1.1,1.1,0,0,1-.68-.13.12.12,0,0,1-.14-.13l-2.71-1.33a2.49,2.49,0,0,1-1.08-.2,1.65,1.65,0,0,0-.68-.2,2.74,2.74,0,0,0-.75-.6,2.69,2.69,0,0,0-.74-.07l-1.76-1.06c-.45-.26-1-.62-1.63-1.06l-1.36-.4c-.27-.09-.63-.22-1.08-.4s-1-.4-1.56-.66a7.18,7.18,0,0,0-1.56-.53,33.72,33.72,0,0,0-3.59-1.52,18.71,18.71,0,0,0-3.59-.86,18.37,18.37,0,0,1-3.12-.86,17.26,17.26,0,0,0-3.52-.86.7.7,0,0,0-.88-.2,4,4,0,0,1-.75.2c-.63.18-1.15.31-1.56.4a4.45,4.45,0,0,0-1.29.53,2,2,0,0,0-1.09.26,5.07,5.07,0,0,1-1.35.53c-.45.18-1,.4-1.49.66a6,6,0,0,1-1.9.53H16.41a2,2,0,0,1-1,.53c-.23,0-.48-.18-.75-.53H13.15a1.81,1.81,0,0,0-.81.33,1.9,1.9,0,0,1-.95.33,2.34,2.34,0,0,1-.54-.07c-.18,0-.27-.24-.27-.6H9.08q-.81,1.19-1.76,0a3.88,3.88,0,0,1-1.49-.73,6.65,6.65,0,0,0-1.49-.86,3.07,3.07,0,0,0-.95-.4,2,2,0,0,1-.95-.53,4.29,4.29,0,0,1-1.15-1.33l-.75-1.46a3,3,0,0,0-.27-1.26,2.46,2.46,0,0,1-.27-.86Z"/><path class="cls-2" d="M114.69,47.74a7.23,7.23,0,0,1,1.83.2,7.24,7.24,0,0,0,1.83.2q2.44.8,4.54,1.66a37.42,37.42,0,0,1,4,1.92,7.21,7.21,0,0,1,2.24,1.72,13.44,13.44,0,0,1,1.42,2.25,8.45,8.45,0,0,1,.88,1.66,9.61,9.61,0,0,0,.74,1.53,5.4,5.4,0,0,0,.61,1.13,1.88,1.88,0,0,1,.34,1.13c.09,0,.14.09.14.27a.12.12,0,0,1-.14.13,1.81,1.81,0,0,1-.34.93,4.49,4.49,0,0,1-.61.8l-.54.66a4.16,4.16,0,0,1-1.22-.13,3,3,0,0,1-1.09-.93,20.35,20.35,0,0,0-3-1.92q-1.63-.86-3.53-1.66a10.12,10.12,0,0,0-2.17-.33q-1.22-.06-2.3-.07h-.41a22.89,22.89,0,0,1-2,1.79,7,7,0,0,0-1.63,1.79c-.45.71-.88,1.39-1.29,2.06a12,12,0,0,0-.88,1.66c-.36.44-.66.82-.88,1.13a6,6,0,0,1-.61.73q-1.09,2.25-2.1,4.51l-2,4.38a32.8,32.8,0,0,0-1.83,3.91,17.18,17.18,0,0,0-1,4,18.19,18.19,0,0,1-.81,3.25q-.54,1.53-.95,3c-.18,1.06-.39,2.08-.61,3.05s-.43,2.08-.61,3.31a.74.74,0,0,0-.34.93.75.75,0,0,1-.34.93v1.19a2.3,2.3,0,0,1-.14.86.5.5,0,0,0,.14.6,6.47,6.47,0,0,1,.68,2,5.13,5.13,0,0,0,.81,2,4.1,4.1,0,0,0,.88.6,2.66,2.66,0,0,0,1.29.33H107a1.09,1.09,0,0,0,.81-.53,11.58,11.58,0,0,0,1.49-.6c.45-.22.91-.42,1.36-.6a9.78,9.78,0,0,0,2-1.33c.63-.53,1.17-1,1.63-1.46a2.77,2.77,0,0,0,1.09-.73,1.53,1.53,0,0,1,1.22-.47v-.66a3.07,3.07,0,0,1,1.08-1.26A13.77,13.77,0,0,0,119.17,98c.72,0,1.08-.4,1.08-1.19A4.06,4.06,0,0,0,122,96a11.66,11.66,0,0,0,1.49-1.66q1.35-1.46,2.64-2.92a22.61,22.61,0,0,1,3.19-2.92,17.88,17.88,0,0,0,1.42-1.59,22.67,22.67,0,0,0,1.42-2c0-.44.32-.88.95-1.33a2.21,2.21,0,0,0,1.36-.53,2.8,2.8,0,0,0,.95-1.33q.68-.93,1.29-1.73T138,78.12q.27-.27.75-.8a4.77,4.77,0,0,1,1.15-.93,16.56,16.56,0,0,0,3-2.79,16.68,16.68,0,0,0,2.31-3.18V70c.45-1,.92-1.53,1.42-1.66a9.33,9.33,0,0,1,2.24-.2h.27a.35.35,0,0,1,.41.4,1,1,0,0,0,.27.6,5,5,0,0,1,.54.86v.4a1.69,1.69,0,0,0-.41.86,8.38,8.38,0,0,1-.41,1.26q-.81.79-2.1,2.25t-2.1,2.52a3.51,3.51,0,0,0-.61,1.13A9.43,9.43,0,0,1,144,80a4.35,4.35,0,0,1-.81,1.26,3.78,3.78,0,0,1-1.09.86q-.68.8-1,1.26c-.23.31-.48.69-.75,1.13a1.94,1.94,0,0,0-1,.86c-.23.4-.52.86-.88,1.39-.18.18-.38.4-.61.66a3.9,3.9,0,0,0-.61,1.06c0,.53-.32.8-.95.8q-1,.8-1.7,1.46T133.13,92a5.41,5.41,0,0,1-.81,1.06q-.41.4-1.09,1.19-1.49,1.33-2.78,2.72t-2.78,2.72l-1.83,1.79a10.08,10.08,0,0,1-1.83,1.39,4.11,4.11,0,0,0-1.08.6,4,4,0,0,1-1.09.6,4.86,4.86,0,0,1-1.08,1.2,2.41,2.41,0,0,0-.81,1.06,5.39,5.39,0,0,1-.95.73,4.72,4.72,0,0,0-.82.6,21.47,21.47,0,0,1-3.79,2.52,26.77,26.77,0,0,0-3.93,2.52h-1.09c-.18,0-.47,0-.88.06a5.19,5.19,0,0,0-1.29.33q-1.09.27-2.31.66c-.81.26-1.54.53-2.17.79-.18.09-.32.09-.4,0s-.27-.18-.27-.53a2,2,0,0,1-1.09-.26,2.26,2.26,0,0,0-1.22-.27,6,6,0,0,1-2.78.13,13.62,13.62,0,0,1-2.78-.93,16.08,16.08,0,0,0-1.76-.4,7,7,0,0,1-1.9-.66h-.27c-.09,0-.14-.13-.14-.4q-1.35-1.06-2.64-2a11,11,0,0,1-2.37-2.39,26.82,26.82,0,0,1-1.83-3,7.91,7.91,0,0,1-.88-3.78,6.75,6.75,0,0,0-.2-1.79,7.33,7.33,0,0,1-.2-1.92V94.69q0-.8.41-.8a3,3,0,0,1,.2-1.06,2.46,2.46,0,0,0,.2-.8q1.49-3.71,2.85-7.43a75.19,75.19,0,0,1,3.12-7.29q.68-1.59,1.36-3.32t1.49-3.45q.68-.93,1.49-2.12c.54-.8,1-1.55,1.49-2.25a1.91,1.91,0,0,0,1.49-1.86,4.22,4.22,0,0,1,.34-1.79,15.82,15.82,0,0,1,1-1.79q2.17-2.39,4.27-4.64t4.41-4.38a13.7,13.7,0,0,1,2.37-1.86,14.49,14.49,0,0,1,2.78-1.32c.45-.18,1-.35,1.56-.53a5.91,5.91,0,0,1,1.7-.27Z"/></g></g></g></svg>