<?xml version="1.0" encoding="utf-8"?>
<!-- Generator: Adobe Illustrator 19.2.1, SVG Export Plug-In . SVG Version: 6.00 Build 0)  -->
<svg version="1.1" id="Layer_1" xmlns="http://www.w3.org/2000/svg" xmlns:xlink="http://www.w3.org/1999/xlink" x="0px" y="0px"
	 viewBox="0 0 4052.1 315.5" style="enable-background:new 0 0 4052.1 315.5;" xml:space="preserve">
<style type="text/css">
	.st0{fill:#ECC4DE;}
	.st1{fill:#F8C09D;}
	.st2{fill:#EF937E;}
	.st3{fill:#FE9987;}
	.st4{fill:#002337;}
	.st5{fill:#EE3466;}
	.st6{fill:#FFFFFF;}
	.st7{fill:none;stroke:#002337;stroke-miterlimit:10;}
	.st8{opacity:0.2;fill:#002337;enable-background:new    ;}
	.st9{opacity:0.4;fill:#B4C8D3;enable-background:new    ;}
	.st10{fill:none;stroke:#4A5154;stroke-width:2.9541;stroke-miterlimit:10;}
	.st11{fill:#EAA883;}
	.st12{fill:#CE7D6F;}
	.st13{fill:#66442C;}
	.st14{fill:#0C0C0C;}
	.st15{opacity:0.4;}
	.st16{clip-path:url(#SVGID_2_);fill:#B4C8D3;}
	.st17{clip-path:url(#SVGID_4_);fill:#B4C8D3;}
	.st18{fill:none;stroke:#4A5154;stroke-width:2.5;stroke-miterlimit:10;}
	.st19{fill:none;stroke:#4A5154;stroke-width:3;stroke-miterlimit:10;}
	.st20{fill:#7F492A;}
	.st21{fill:#3D1C17;}
	.st22{fill:#D89573;}
	.st23{fill:#A5715E;}
	.st24{clip-path:url(#SVGID_6_);fill:#B4C8D3;}
	.st25{clip-path:url(#SVGID_8_);fill:#B4C8D3;}
	.st26{fill:none;stroke:#25292A;stroke-width:3;stroke-miterlimit:10;}
	.st27{fill:none;stroke:#0F6E84;stroke-width:2.2422;stroke-miterlimit:10;}
	.st28{fill:#BF4F3D;}
	.st29{fill:#1F2652;}
	.st30{clip-path:url(#SVGID_10_);fill:#B4C8D3;}
	.st31{clip-path:url(#SVGID_12_);fill:#B4C8D3;}
	.st32{fill:none;stroke:#E5A71C;stroke-width:2.6098;stroke-miterlimit:10;}
	.st33{fill:#2E1915;}
	.st34{fill:#8EC63F;}
	.st35{fill:#E8E8E8;}
	.st36{fill:#65A065;}
	.st37{fill:#38703A;}
</style>
<g>
	<path class="st0" d="M450.3,205.9c-52.3,0-94.6-42.4-94.6-94.7v150.1h188.7V119.9C539.4,168.1,499.7,205.9,450.3,205.9z"/>
	<g>
		<circle class="st1" cx="531.9" cy="166.2" r="17.4"/>
		<circle class="st2" cx="531.9" cy="166.2" r="11.7"/>
	</g>
	<g>
		<circle class="st1" cx="369.4" cy="166.2" r="17.4"/>
		<circle class="st2" cx="369.4" cy="166.2" r="11.7"/>
	</g>
	<path class="st0" d="M450,15.2c-34.1,0-64,18.8-80.7,45.2h161.4C514.1,34,484.2,15.2,450,15.2z"/>
	<path class="st3" d="M544.9,111.2c0-2.9-0.4-5.8-0.4-8.7v17.3C544.5,117,544.9,114.1,544.9,111.2z"/>
	<path class="st0" d="M450.1,205.9c49.4,0,89.3-37.8,94.4-86v-17.3c-1-14.9-6.3-29-13.7-42.2H369.3c-8.9,16.2-14,32-14,50.2
		C355.4,162.9,397.8,205.9,450.1,205.9z"/>
	<path class="st4" d="M377,177.6c-35.1-35.1-30.7-96.3,9.8-136.8"/>
	<path class="st1" d="M415.6,49c-27.1,9.8-46.6,35.7-46.6,66.1v109.4c0,38.8,31.9,71.1,70.7,71.1h21.8c38.8,0,70.8-32.3,70.8-71.1
		V138c-30.4-0.2-61.8-12-85.2-35.4C431.7,87.2,421,68.7,415.6,49z"/>
	<path class="st0" d="M481.4,45.2h-21.8c-8.4,0-16.4,1.3-23.9,4c5.4,19.6,15.7,38.1,31.1,53.5c23.4,23.4,54.4,35.2,84.8,35.3v-22.8
		C551.6,76.3,520.2,45.2,481.4,45.2z"/>
	<g>
		<circle class="st4" cx="410.5" cy="147.9" r="11.6"/>
		<circle class="st4" cx="490.7" cy="147.9" r="11.6"/>
	</g>
	<path class="st2" d="M452.3,193.3h-2.6c-4.9,0.1-8.9-3.8-9-8.8l-0.6-39.7c-0.1-4.9,3.8-8.9,8.8-9h2.6c4.9-0.1,8.9,3.8,9,8.8
		l0.6,39.7C461.1,189.2,457.2,193.2,452.3,193.3z"/>
	<path class="st2" d="M471.4,175.2v5.3c0,4.2-3.4,7.5-7.6,7.5l-26.4-0.2c-4.2,0-7.5-3.4-7.5-7.6v-5.3c0-4.2,3.4-7.5,7.6-7.5
		l26.4,0.2C468,167.6,471.4,171,471.4,175.2z"/>
	<g>
		<path class="st4" d="M450.6,249.1c12.5,0,23.6,6.2,30.3,15.8c7.5-7.7,12.1-18.1,12.1-29.7c0-2.2-0.2-4.4-0.5-6.5l-81.6-8.9
			c-1.8,4.8-2.9,9.9-2.9,15.4c0,11.6,4.6,22.1,12.1,29.7C427,255.3,438,249.1,450.6,249.1z"/>
		<path class="st5" d="M450.6,277.6c11.9,0,22.6-4.9,30.3-12.8c-6.7-9.5-17.8-15.8-30.3-15.8s-23.6,6.2-30.3,15.8
			C428,272.7,438.7,277.6,450.6,277.6z"/>
	</g>
</g>
<g>
	<g>
		<circle class="st1" cx="17.6" cy="166.5" r="17.6"/>
		<circle class="st2" cx="17.6" cy="166.5" r="11.9"/>
	</g>
	<g>
		<circle class="st1" cx="182.4" cy="166.5" r="17.6"/>
		<circle class="st2" cx="182.4" cy="166.5" r="11.9"/>
	</g>
	<circle class="st4" cx="99.4" cy="110.8" r="96"/>
	<path class="st1" d="M182.1,225.6c0,39.4-31.9,71.3-71.3,71.3H88.9c-39.4,0-71.3-31.9-71.3-71.3V115.1c0-39.4,31.9-71.3,71.3-71.3
		h21.9c39.4,0,71.3,31.9,71.3,71.3V225.6z"/>
	<g>
		<circle class="st4" cx="59.7" cy="148" r="13.7"/>
		<circle class="st4" cx="140.3" cy="148" r="13.7"/>
	</g>
	<g>
		<path class="st2" d="M110.2,195.3c0,5.5-4.5,10-10,10h-0.7c-5.5,0-10-4.5-10-10v-51c0-5.5,4.5-10,10-10h0.7c5.5,0,10,4.5,10,10
			V195.3z"/>
		<path class="st2" d="M125,187.2c0,4.6-3.7,8.3-8.3,8.3H84c-4.6,0-8.3-3.7-8.3-8.3v-4.1c0-4.6,3.7-8.3,8.3-8.3h32.7
			c4.6,0,8.3,3.7,8.3,8.3V187.2z"/>
	</g>
	<path class="st4" d="M121,301.5c0,1.8-1.5,3.3-3.3,3.3H82.9c-1.8,0-3.3-1.5-3.3-3.3v-9.2c0-1.8,1.5-3.3,3.3-3.3h34.8
		c1.8,0,3.3,1.5,3.3,3.3V301.5z"/>
	<path class="st4" d="M138.7,63.7c0,9.7-7.9,17.6-17.6,17.6H79.5c-9.7,0-17.6-7.9-17.6-17.6v-25c0-9.7,7.9-17.6,17.6-17.6h41.7
		c9.7,0,17.6,7.9,17.6,17.6v25C138.8,63.7,138.7,63.7,138.7,63.7z"/>
	<g>
		<path class="st4" d="M68.6,251.2c0,3.9,0.7,7.9,2,11.4c5.4-4.2,12.2-6.6,19.5-6.6c13.6,0,25.1,8.6,29.7,20.6
			c7.4-5.8,12.2-15.2,12.2-25.4c0-6.2-1.8-11.4-4.9-17.3H73.5C70.4,239.8,68.6,245,68.6,251.2z"/>
		<path class="st6" d="M100.3,219c-11.3,0-21.2,7-26.8,14.8h53.7C121.5,226,111.6,219,100.3,219z"/>
		<path class="st5" d="M90.2,256.1c-7.4,0-14.1,2.5-19.5,6.7c4.5,12,16.1,20.5,29.7,20.5c7.4,0,14.1-2.5,19.5-6.7
			C115.3,264.6,103.7,256.1,90.2,256.1z"/>
	</g>
	<path class="st4" d="M90.5,205.5l3.6,8.1c0.7,1.6,0,3.6-1.6,4.3l-31.9,14.3c-1.6,0.7-3.6,0-4.3-1.6l-3.6-8.1
		c-0.7-1.6,0-3.6,1.6-4.3l31.9-14.3C87.8,203.1,89.7,203.9,90.5,205.5z"/>
	<path class="st4" d="M109.5,205.5l-3.6,8.1c-0.7,1.6,0,3.6,1.6,4.3l31.9,14.3c1.6,0.7,3.6,0,4.3-1.6l3.6-8.1c0.7-1.6,0-3.6-1.6-4.3
		l-31.9-14.3C112.1,203.1,110.2,203.9,109.5,205.5z"/>
</g>
<rect y="10.8" class="st7" width="200" height="294"/>
<rect x="350" y="10.8" class="st7" width="200" height="294"/>
<rect x="700" y="10.8" class="st7" width="200" height="294"/>
<rect x="1050.1" y="10.8" class="st7" width="200" height="294"/>
<rect x="1400.1" y="10.8" class="st7" width="200" height="294"/>
<rect x="1750.2" y="10.8" class="st7" width="200" height="294"/>
<rect x="2100.2" y="10.8" class="st7" width="200" height="294"/>
<rect x="2450.3" y="10.8" class="st7" width="200" height="294"/>
<rect x="2800.3" y="10.8" class="st7" width="200" height="294"/>
<rect x="3150.4" y="10.8" class="st7" width="200" height="294"/>
<rect x="3500.4" y="10.8" class="st7" width="200" height="294"/>
<rect x="3850.5" y="10.8" class="st7" width="200" height="294"/>
<g>
	<g>
		<circle class="st1" cx="718.6" cy="179.4" r="17.6"/>
		<circle class="st2" cx="718.6" cy="179.4" r="11.9"/>
	</g>
	<g>
		<circle class="st1" cx="883.4" cy="179.4" r="17.6"/>
		<circle class="st2" cx="883.4" cy="179.4" r="11.9"/>
	</g>
	<circle class="st4" cx="777.9" cy="57.3" r="37.6"/>
	<circle class="st4" cx="800.4" cy="123.7" r="96"/>
	<path class="st1" d="M883.1,238.5c0,39.4-31.9,71.3-71.3,71.3h-21.9c-39.4,0-71.3-31.9-71.3-71.3V128c0-39.4,31.9-71.3,71.3-71.3
		h21.9c39.4,0,71.3,31.9,71.3,71.3V238.5z"/>
	<path class="st8" d="M812,309.8h-22.1c-39.4,0-71.3-31.7-71.3-71.1v-37.2H883v37.2C883.1,278,851.4,309.8,812,309.8z"/>
	<circle class="st4" cx="823" cy="72.9" r="27.1"/>
	<circle class="st4" cx="800.9" cy="45.3" r="35.5"/>
	<circle class="st4" cx="764.9" cy="52.7" r="22.5"/>
	<g>
		<circle class="st4" cx="760.7" cy="160.9" r="13.7"/>
		<circle class="st4" cx="841.3" cy="160.9" r="13.7"/>
	</g>
	<path class="st2" d="M801.6,222.7L801.6,222.7c-5.7,0.1-10.4-4.5-10.5-10.2l-0.9-55.8c-0.1-5.7,4.5-10.4,10.2-10.5l0,0
		c5.7-0.1,10.4,4.5,10.5,10.2l0.9,55.8C811.8,217.9,807.3,222.6,801.6,222.7z"/>
	<g>
		<path class="st4" d="M801,263.5c12.7,0,24,6.3,30.8,16c7.6-7.8,12.3-18.4,12.3-30.1c0-2.2-0.2-4.4-0.5-6.5l-82.7-9
			c-1.9,4.8-2.9,10.1-2.9,15.6c0,11.7,4.7,22.4,12.3,30.1C777,269.8,788.3,263.5,801,263.5z"/>
		<path class="st5" d="M801,292.4c12.1,0,22.9-5,30.8-12.9c-6.8-9.7-18-16-30.8-16s-24,6.3-30.8,16C778,287.4,788.9,292.4,801,292.4
			z"/>
	</g>
	<g>
		<path class="st9" d="M784.6,172.6c0,6.7-5.4,12.1-12.1,12.1h-34.9c-6.7,0-12.1-5.4-12.1-12.1v-24c0-6.7,5.4-12.1,12.1-12.1h34.9
			c6.7,0,12.1,5.4,12.1,12.1V172.6z"/>
		<path class="st9" d="M875.2,172.6c0,6.7-5.4,12.1-12.1,12.1h-34.9c-6.7,0-12.1-5.4-12.1-12.1v-24c0-6.7,5.4-12.1,12.1-12.1h34.9
			c6.7,0,12.1,5.4,12.1,12.1V172.6z"/>
		<path class="st10" d="M785.1,173.1c0,6.7-5.4,12.1-12.1,12.1h-34.9c-6.7,0-12.1-5.4-12.1-12.1v-24c0-6.7,5.4-12.1,12.1-12.1H773
			c6.7,0,12.1,5.4,12.1,12.1V173.1z"/>
		<path class="st10" d="M875.7,173.1c0,6.7-5.4,12.1-12.1,12.1h-34.9c-6.7,0-12.1-5.4-12.1-12.1v-24c0-6.7,5.4-12.1,12.1-12.1h34.9
			c6.7,0,12.1,5.4,12.1,12.1V173.1z"/>
		<line class="st10" x1="784.6" y1="160.6" x2="816.1" y2="160.6"/>
		<line class="st10" x1="725.9" y1="161.8" x2="718.4" y2="160.9"/>
		<line class="st10" x1="883.5" y1="160.9" x2="876.1" y2="161.8"/>
	</g>
</g>
<g>
	<path class="st11" d="M3884.7,177.2c0,9.9-8,17.9-17.9,17.9s-17.9-8-17.9-17.9c0-9.9,8-17.9,17.9-17.9S3884.7,167.3,3884.7,177.2"
		/>
	<path class="st12" d="M3878.9,177.2c0,6.7-5.4,12.1-12.1,12.1c-6.7,0-12.1-5.4-12.1-12.1c0-6.7,5.4-12.1,12.1-12.1
		C3873.5,165.2,3878.9,170.6,3878.9,177.2"/>
	<path class="st11" d="M4052.1,177.2c0,9.9-8,17.9-17.9,17.9c-9.9,0-17.9-8-17.9-17.9c0-9.9,8-17.9,17.9-17.9
		C4044,159.3,4052.1,167.3,4052.1,177.2"/>
	<path class="st12" d="M4046.2,177.2c0,6.7-5.4,12.1-12.1,12.1c-6.7,0-12.1-5.4-12.1-12.1c0-6.7,5.4-12.1,12.1-12.1
		C4040.8,165.2,4046.2,170.6,4046.2,177.2"/>
	<path class="st13" d="M3888.8,53.3c0,21.1,17.1,38.2,38.2,38.2c21.1,0,38.2-17.1,38.2-38.2c0-21.1-17.1-38.2-38.2-38.2
		C3905.9,15,3888.8,32.2,3888.8,53.3"/>
	<path class="st13" d="M4047.4,120.6c0,53.8-43.7,97.5-97.5,97.5c-53.8,0-97.5-43.7-97.5-97.5c0-53.8,43.7-97.5,97.5-97.5
		C4003.7,23.1,4047.4,66.8,4047.4,120.6"/>
	<path class="st11" d="M3961.7,309.8h-22.5c-40,0-72.4-32.4-72.4-72.4V124.7c0-40,32.4-72.4,72.4-72.4h22.5
		c40,0,72.4,32.4,72.4,72.4v112.7C4034.1,277.4,4001.7,309.8,3961.7,309.8"/>
	<path class="st13" d="M3945.3,69c0,15.2,12.3,27.5,27.5,27.5c15.2,0,27.5-12.3,27.5-27.5s-12.3-27.5-27.5-27.5
		C3957.6,41.5,3945.3,53.8,3945.3,69"/>
	<path class="st13" d="M3914.3,41c0,19.9,16.2,36.1,36.1,36.1s36.1-16.2,36.1-36.1c0-19.9-16.2-36.1-36.1-36.1
		S3914.3,21.1,3914.3,41"/>
	<path class="st13" d="M3891,48.6c0,12.6,10.2,22.9,22.9,22.9c12.6,0,22.9-10.2,22.9-22.9c0-12.6-10.2-22.9-22.9-22.9
		C3901.2,25.7,3891,35.9,3891,48.6"/>
	<path class="st4" d="M3923.5,158.5c0,7.7-6.2,13.9-13.9,13.9c-7.7,0-13.9-6.2-13.9-13.9s6.2-13.9,13.9-13.9
		C3917.2,144.5,3923.5,150.8,3923.5,158.5"/>
	<path class="st4" d="M4005.3,158.5c0,7.7-6.2,13.9-13.9,13.9s-13.9-6.2-13.9-13.9s6.2-13.9,13.9-13.9S4005.3,150.8,4005.3,158.5"/>
	<path class="st12" d="M3951.1,221.2L3951.1,221.2c-5.8,0.1-10.5-4.5-10.6-10.3l-0.9-56.6c-0.1-5.8,4.5-10.5,10.3-10.6
		c5.8-0.1,10.5,4.5,10.6,10.3l0.9,56.6C3961.5,216.3,3956.8,221.1,3951.1,221.2"/>
	<path class="st14" d="M3950.5,262.6c12.9,0,24.3,6.4,31.2,16.2c7.7-7.9,12.5-18.7,12.5-30.6c0-2.3-0.2-4.5-0.5-6.7l-84-9.2
		c-1.9,4.9-3,10.2-3,15.8c0,11.9,4.8,22.7,12.5,30.6C3926.1,269,3937.5,262.6,3950.5,262.6"/>
	<path class="st5" d="M3950.5,292c12.2,0,23.3-5,31.2-13.1c-6.9-9.8-18.3-16.2-31.2-16.2c-12.9,0-24.3,6.4-31.2,16.2
		C3927.2,286.9,3938.2,292,3950.5,292"/>
	<g class="st15">
		<g>
			<defs>
				<rect id="SVGID_1_" x="3874.2" y="133.9" width="60.2" height="49.2"/>
			</defs>
			<clipPath id="SVGID_2_">
				<use xlink:href="#SVGID_1_"  style="overflow:visible;"/>
			</clipPath>
			<path class="st16" d="M3922.1,183h-35.6c-6.8,0-12.3-5.5-12.3-12.3v-24.6c0-6.8,5.5-12.3,12.3-12.3h35.6
				c6.8,0,12.3,5.5,12.3,12.3v24.6C3934.4,177.5,3928.9,183,3922.1,183"/>
		</g>
	</g>
	<g class="st15">
		<g>
			<defs>
				<rect id="SVGID_3_" x="3966.1" y="133.9" width="60.2" height="49.2"/>
			</defs>
			<clipPath id="SVGID_4_">
				<use xlink:href="#SVGID_3_"  style="overflow:visible;"/>
			</clipPath>
			<path class="st17" d="M4014,183h-35.6c-6.8,0-12.3-5.5-12.3-12.3v-24.6c0-6.8,5.5-12.3,12.3-12.3h35.6c6.8,0,12.3,5.5,12.3,12.3
				v24.6C4026.3,177.5,4020.8,183,4014,183"/>
		</g>
	</g>
	<path class="st18" d="M3922.1,183h-35.6c-6.8,0-12.3-5.5-12.3-12.3v-24.6c0-6.8,5.5-12.3,12.3-12.3h35.6c6.8,0,12.3,5.5,12.3,12.3
		v24.6C3934.4,177.5,3928.9,183,3922.1,183z"/>
	<path class="st18" d="M4014,183h-35.6c-6.8,0-12.3-5.5-12.3-12.3v-24.6c0-6.8,5.5-12.3,12.3-12.3h35.6c6.8,0,12.3,5.5,12.3,12.3
		v24.6C4026.3,177.5,4020.8,183,4014,183z"/>
	<line class="st19" x1="3933.9" y1="158.1" x2="3965.9" y2="158.1"/>
	<line class="st19" x1="3874.2" y1="159.3" x2="3866.6" y2="158.5"/>
	<line class="st19" x1="4034.3" y1="158.5" x2="4026.7" y2="159.3"/>
</g>
<g>
	<path class="st20" d="M3698.2,182.1c0,9.5-7.7,17.1-17.1,17.1c-9.5,0-17.1-7.7-17.1-17.1c0-9.5,7.7-17.1,17.1-17.1
		C3690.5,164.9,3698.2,172.6,3698.2,182.1"/>
	<path class="st21" d="M3692.6,182.1c0,6.4-5.2,11.5-11.5,11.5c-6.4,0-11.5-5.2-11.5-11.5c0-6.4,5.2-11.5,11.5-11.5
		C3687.4,170.5,3692.6,175.7,3692.6,182.1"/>
	<path class="st20" d="M3538,182.1c0,9.5-7.7,17.1-17.1,17.1c-9.5,0-17.1-7.7-17.1-17.1c0-9.5,7.7-17.1,17.1-17.1
		C3530.3,164.9,3538,172.6,3538,182.1"/>
	<path class="st21" d="M3532.4,182.1c0,6.4-5.2,11.5-11.5,11.5c-6.4,0-11.5-5.2-11.5-11.5c0-6.4,5.2-11.5,11.5-11.5
		C3527.2,170.5,3532.4,175.7,3532.4,182.1"/>
	<path class="st0" d="M3600.4,33.3c-33.6,0-63.1,18.5-79.5,44.5h159.1C3663.5,51.8,3634,33.3,3600.4,33.3"/>
	<path class="st3" d="M3693.8,127.9c0-2.9-0.4-5.7-0.4-8.5v17.1C3693.4,133.6,3693.8,130.8,3693.8,127.9"/>
	<path class="st20" d="M3566.4,66.6c-26.7,9.6-46,35.2-46,65.2v107.9c0,38.3,31.4,70.1,69.7,70.1h21.5c38.3,0,69.8-31.9,69.8-70.1
		v-85.3c-30-0.2-60.9-11.8-84-34.9C3582.3,104.2,3571.7,86,3566.4,66.6"/>
	<path class="st14" d="M3572.9,164.1c0,6.3-5.1,11.5-11.5,11.5c-6.3,0-11.5-5.1-11.5-11.5c0-6.3,5.1-11.5,11.5-11.5
		C3567.8,152.6,3572.9,157.8,3572.9,164.1"/>
	<path class="st14" d="M3651.9,164.1c0,6.3-5.1,11.5-11.5,11.5c-6.3,0-11.5-5.1-11.5-11.5c0-6.3,5.1-11.5,11.5-11.5
		C3646.7,152.6,3651.9,157.8,3651.9,164.1"/>
	<path class="st21" d="M3604.4,224.6l-3,0c-5.7,0.1-10.3-4.4-10.4-10.1l-0.7-45.9c-0.1-5.7,4.4-10.3,10.1-10.4l3,0
		c5.7-0.1,10.3,4.4,10.4,10.1l0.7,45.9C3614.6,219.8,3610.1,224.5,3604.4,224.6"/>
	<path class="st21" d="M3626.4,203.7l0,6.1c0,4.8-4,8.7-8.8,8.7l-30.5-0.2c-4.8,0-8.7-4-8.7-8.8l0-6.1c0-4.8,4-8.7,8.8-8.7l30.5,0.2
		C3622.6,194.9,3626.5,198.9,3626.4,203.7"/>
	<path class="st14" d="M3600.9,263.8c12.4,0,23.3,6.2,29.9,15.6c7.4-7.6,12-17.9,12-29.3c0-2.2-0.2-4.3-0.5-6.4l-80.4-8.8
		c-1.8,4.7-2.8,9.8-2.8,15.1c0,11.4,4.6,21.7,12,29.3C3577.6,269.9,3588.5,263.8,3600.9,263.8"/>
	<path class="st5" d="M3600.9,291.9c11.7,0,22.3-4.8,29.9-12.6c-6.6-9.4-17.5-15.6-29.9-15.6s-23.3,6.1-29.9,15.6
		C3578.6,287.1,3589.2,291.9,3600.9,291.9"/>
	<path class="st14" d="M3631.9,130.7c0,14.1,11.5,25.6,25.6,25.6c14.1,0,25.6-11.5,25.6-25.6s-11.5-25.6-25.6-25.6
		C3643.3,105.1,3631.9,116.6,3631.9,130.7"/>
	<path class="st14" d="M3479.4,144.2c0,15.2,12.3,27.5,27.5,27.5c15.2,0,27.5-12.3,27.5-27.5c0-15.2-12.3-27.5-27.5-27.5
		C3491.7,116.7,3479.4,129,3479.4,144.2"/>
	<path class="st14" d="M3666.5,140.4c0,15.2,12.3,27.5,27.5,27.5c15.2,0,27.5-12.3,27.5-27.5c0-15.2-12.3-27.5-27.5-27.5
		C3678.8,112.8,3666.5,125.2,3666.5,140.4"/>
	<path class="st14" d="M3648.4,97.7c0,19.9,16.2,36.1,36.1,36.1c19.9,0,36.1-16.2,36.1-36.1s-16.2-36.1-36.1-36.1
		C3664.5,61.6,3648.4,77.8,3648.4,97.7"/>
	<path class="st14" d="M3592.9,111.2c0,19.9,16.2,36.1,36.1,36.1c19.9,0,36.1-16.2,36.1-36.1c0-19.9-16.2-36.1-36.1-36.1
		C3609,75.1,3592.9,91.3,3592.9,111.2"/>
	<path class="st14" d="M3552.4,75.9c0,22,17.8,39.8,39.8,39.8c22,0,39.8-17.8,39.8-39.8c0-22-17.8-39.8-39.8-39.8
		C3570.2,36.1,3552.4,54,3552.4,75.9"/>
	<path class="st14" d="M3619.3,58.5c0,22,17.8,39.8,39.8,39.8c22,0,39.8-17.8,39.8-39.8s-17.8-39.8-39.8-39.8
		C3637.2,18.6,3619.3,36.5,3619.3,58.5"/>
	<path class="st14" d="M3585.4,46.7c0,19.9,16.2,36.1,36.1,36.1c19.9,0,36.1-16.2,36.1-36.1c0-19.9-16.2-36.1-36.1-36.1
		C3601.5,10.6,3585.4,26.8,3585.4,46.7"/>
	<path class="st14" d="M3523.9,57.2c0,19.9,16.2,36.1,36.1,36.1c19.9,0,36.1-16.2,36.1-36.1s-16.2-36.1-36.1-36.1
		C3540,21.1,3523.9,37.3,3523.9,57.2"/>
	<path class="st14" d="M3481.9,103.7c0,19.9,16.2,36.1,36.1,36.1s36.1-16.2,36.1-36.1s-16.2-36.1-36.1-36.1
		S3481.9,83.8,3481.9,103.7"/>
</g>
<g>
	<path class="st22" d="M3185.6,177.2c0,9.9-8,17.9-17.9,17.9s-17.9-8-17.9-17.9c0-9.9,8-17.9,17.9-17.9S3185.6,167.3,3185.6,177.2"
		/>
	<path class="st23" d="M3179.8,177.2c0,6.7-5.4,12.1-12.1,12.1c-6.7,0-12.1-5.4-12.1-12.1c0-6.7,5.4-12.1,12.1-12.1
		C3174.4,165.2,3179.8,170.6,3179.8,177.2"/>
	<path class="st22" d="M3353,177.2c0,9.9-8,17.9-17.9,17.9c-9.9,0-17.9-8-17.9-17.9c0-9.9,8-17.9,17.9-17.9
		C3344.9,159.3,3353,167.3,3353,177.2"/>
	<path class="st23" d="M3347.1,177.2c0,6.7-5.4,12.1-12.1,12.1c-6.7,0-12.1-5.4-12.1-12.1c0-6.7,5.4-12.1,12.1-12.1
		C3341.7,165.2,3347.1,170.6,3347.1,177.2"/>
	<path class="st14" d="M3348.3,120.6c0,53.8-43.7,97.5-97.5,97.5c-53.8,0-97.5-43.7-97.5-97.5c0-53.8,43.7-97.5,97.5-97.5
		C3304.6,23.1,3348.3,66.8,3348.3,120.6"/>
	<path class="st22" d="M3262.6,309.8h-22.5c-40,0-72.4-32.4-72.4-72.4V124.7c0-40,32.4-72.4,72.4-72.4h22.5
		c40,0,72.4,32.4,72.4,72.4v112.7C3335,277.4,3302.6,309.8,3262.6,309.8"/>
	<path class="st4" d="M3224.4,158.5c0,7.7-6.2,13.9-13.9,13.9c-7.7,0-13.9-6.2-13.9-13.9c0-7.7,6.2-13.9,13.9-13.9
		C3218.1,144.5,3224.4,150.8,3224.4,158.5"/>
	<path class="st4" d="M3306.2,158.5c0,7.7-6.2,13.9-13.9,13.9s-13.9-6.2-13.9-13.9c0-7.7,6.2-13.9,13.9-13.9
		S3306.2,150.8,3306.2,158.5"/>
	<path class="st14" d="M3290.2,47.6v25c0,9.9-8,17.8-17.8,17.8h-41.9c-9.9,0-17.8-8-17.8-17.8v-25c0-9.9,8-17.8,17.8-17.8h41.9
		C3282.2,29.8,3290.2,37.8,3290.2,47.6"/>
	<g class="st15">
		<g>
			<defs>
				<rect id="SVGID_5_" x="3175.1" y="133.9" width="60.2" height="49.2"/>
			</defs>
			<clipPath id="SVGID_6_">
				<use xlink:href="#SVGID_5_"  style="overflow:visible;"/>
			</clipPath>
			<path class="st24" d="M3223,183h-35.6c-6.8,0-12.3-5.5-12.3-12.3v-24.6c0-6.8,5.5-12.3,12.3-12.3h35.6c6.8,0,12.3,5.5,12.3,12.3
				v24.6C3235.3,177.5,3229.8,183,3223,183"/>
		</g>
	</g>
	<g class="st15">
		<g>
			<defs>
				<rect id="SVGID_7_" x="3267" y="133.9" width="60.2" height="49.2"/>
			</defs>
			<clipPath id="SVGID_8_">
				<use xlink:href="#SVGID_7_"  style="overflow:visible;"/>
			</clipPath>
			<path class="st25" d="M3314.9,183h-35.6c-6.8,0-12.3-5.5-12.3-12.3v-24.6c0-6.8,5.5-12.3,12.3-12.3h35.6
				c6.8,0,12.3,5.5,12.3,12.3v24.6C3327.2,177.5,3321.7,183,3314.9,183"/>
		</g>
	</g>
	<path class="st26" d="M3223,183h-35.6c-6.8,0-12.3-5.5-12.3-12.3v-24.6c0-6.8,5.5-12.3,12.3-12.3h35.6c6.8,0,12.3,5.5,12.3,12.3
		v24.6C3235.3,177.5,3229.8,183,3223,183z"/>
	<path class="st26" d="M3314.9,183h-35.6c-6.8,0-12.3-5.5-12.3-12.3v-24.6c0-6.8,5.5-12.3,12.3-12.3h35.6c6.8,0,12.3,5.5,12.3,12.3
		v24.6C3327.2,177.5,3321.7,183,3314.9,183z"/>
	<line class="st26" x1="3175.1" y1="159.3" x2="3167.5" y2="158.5"/>
	<line class="st26" x1="3335.2" y1="158.5" x2="3327.6" y2="159.3"/>
	<path class="st14" d="M3219.5,263.2c0,4,0.7,8,2.1,11.6c5.5-4.3,12.3-6.7,19.8-6.7c13.8,0,25.5,8.7,30.1,20.9
		c7.5-5.9,12.4-15.5,12.4-25.8c0-6.3-1.8-11.5-4.9-17.5h-54.5C3221.3,251.6,3219.5,256.9,3219.5,263.2"/>
	<path class="st6" d="M3251.7,230.6c-11.5,0-21.6,7.1-27.3,15.1h54.5C3273.3,237.6,3263.2,230.6,3251.7,230.6"/>
	<path class="st5" d="M3241.4,268.2c-7.5,0-14.4,2.6-19.8,6.8c4.6,12.2,16.3,20.8,30.1,20.8c7.5,0,14.4-2.6,19.8-6.8
		C3266.9,276.8,3255.2,268.2,3241.4,268.2"/>
	<path class="st23" d="M3251.7,217h-0.7c-5.6,0-10.1-4.5-10.1-10.1v-52.2c0-5.6,4.5-10.1,10.1-10.1h0.7c5.6,0,10.1,4.5,10.1,10.1
		v52.2C3261.8,212.4,3257.3,217,3251.7,217"/>
	<path class="st23" d="M3276.4,194v4.1c0,4.6-3.8,8.4-8.4,8.4h-33.3c-4.6,0-8.4-3.8-8.4-8.4V194c0-4.6,3.8-8.4,8.4-8.4h33.3
		C3272.6,185.6,3276.4,189.4,3276.4,194"/>
	<line class="st26" x1="3234.8" y1="158.1" x2="3266.8" y2="158.1"/>
</g>
<g>
	<path class="st1" d="M1087.4,182.1c0,9.5-7.7,17.1-17.1,17.1c-9.5,0-17.1-7.7-17.1-17.1c0-9.5,7.7-17.1,17.1-17.1
		C1079.7,164.9,1087.4,172.6,1087.4,182.1"/>
	<path class="st2" d="M1081.8,182.1c0,6.4-5.2,11.5-11.5,11.5c-6.4,0-11.5-5.2-11.5-11.5c0-6.4,5.2-11.5,11.5-11.5
		C1076.7,170.5,1081.8,175.7,1081.8,182.1"/>
	<line class="st27" x1="1074.2" y1="169.9" x2="1066.6" y2="169.5"/>
	<path class="st28" d="M1087.4,139.9c0,15.2-12.3,27.5-27.5,27.5c-15.2,0-27.5-12.3-27.5-27.5c0-15.2,12.3-27.5,27.5-27.5
		C1075,112.3,1087.4,124.7,1087.4,139.9"/>
	<path class="st28" d="M1083.9,180.1c0,12.3-10,22.3-22.3,22.3c-12.3,0-22.3-10-22.3-22.3c0-12.3,10-22.3,22.3-22.3
		C1073.9,157.8,1083.9,167.8,1083.9,180.1"/>
	<path class="st28" d="M1081.4,207.6c0,8.2-6.6,14.8-14.8,14.8c-8.2,0-14.8-6.6-14.8-14.8c0-8.2,6.6-14.8,14.8-14.8
		C1074.8,192.8,1081.4,199.5,1081.4,207.6"/>
	<path class="st28" d="M1269.4,183.9c0,12.7-10.3,23-23,23c-12.7,0-23-10.3-23-23c0-12.7,10.3-23,23-23
		C1259.1,160.8,1269.4,171.1,1269.4,183.9"/>
	<path class="st28" d="M1269.4,213.6c0,13.1-10.6,23.8-23.8,23.8c-13.1,0-23.8-10.6-23.8-23.8c0-13.1,10.6-23.8,23.8-23.8
		C1258.8,189.8,1269.4,200.5,1269.4,213.6"/>
	<path class="st28" d="M1280.9,250.9c0,15.2-12.3,27.5-27.5,27.5s-27.5-12.3-27.5-27.5c0-15.2,12.3-27.5,27.5-27.5
		S1280.9,235.7,1280.9,250.9"/>
	<path class="st28" d="M1248.7,253.1c0,12.3-10,22.3-22.3,22.3s-22.3-10-22.3-22.3c0-12.3,10-22.3,22.3-22.3
		S1248.7,240.8,1248.7,253.1"/>
	<path class="st1" d="M1247.6,182.1c0,9.5-7.7,17.1-17.1,17.1c-9.5,0-17.1-7.7-17.1-17.1c0-9.5,7.7-17.1,17.1-17.1
		C1239.9,164.9,1247.6,172.6,1247.6,182.1"/>
	<path class="st2" d="M1242,182.1c0,6.4-5.2,11.5-11.5,11.5c-6.4,0-11.5-5.2-11.5-11.5c0-6.4,5.2-11.5,11.5-11.5
		C1236.8,170.5,1242,175.7,1242,182.1"/>
	<path class="st3" d="M1243.3,127.9c0-2.9-0.4-5.7-0.4-8.5v17.1C1242.9,133.6,1243.3,130.8,1243.3,127.9"/>
	<path class="st1" d="M1184.9,66.6c26.7,9.6,46,35.2,46,65.2v107.9c0,38.3-31.4,70.1-69.7,70.1h-21.5c-38.3,0-69.8-31.9-69.8-70.1
		v-85.3c30-0.2,60.9-11.8,84-34.9C1169,104.2,1179.6,86,1184.9,66.6"/>
	<path class="st29" d="M1122.3,164.1c0,6.3-5.1,11.5-11.5,11.5c-6.3,0-11.5-5.1-11.5-11.5c0-6.3,5.1-11.5,11.5-11.5
		C1117.2,152.6,1122.3,157.8,1122.3,164.1"/>
	<path class="st29" d="M1201.3,164.1c0,6.3-5.1,11.5-11.5,11.5c-6.3,0-11.5-5.1-11.5-11.5c0-6.3,5.1-11.5,11.5-11.5
		C1196.2,152.6,1201.3,157.8,1201.3,164.1"/>
	<path class="st2" d="M1152,208.8l-2.5,0c-4.8,0.1-8.8-3.8-8.9-8.6L1140,161c-0.1-4.8,3.8-8.8,8.6-8.9l2.5,0
		c4.8-0.1,8.8,3.8,8.9,8.6l0.6,39.2C1160.7,204.7,1156.9,208.7,1152,208.8"/>
	<path class="st14" d="M1150.3,263.8c12.4,0,23.3,6.2,29.9,15.6c7.4-7.6,12-17.9,12-29.3c0-2.2-0.2-4.3-0.5-6.4l-80.4-8.8
		c-1.8,4.7-2.8,9.8-2.8,15.1c0,11.4,4.6,21.7,12,29.3C1127,269.9,1138,263.8,1150.3,263.8"/>
	<path class="st5" d="M1150.3,291.9c11.7,0,22.3-4.8,29.9-12.6c-6.6-9.4-17.5-15.6-29.9-15.6s-23.3,6.1-29.9,15.6
		C1128,287.1,1138.6,291.9,1150.3,291.9"/>
	<path class="st28" d="M1118.9,130.2c0,14.1-11.5,25.6-25.6,25.6s-25.6-11.5-25.6-25.6c0-14.1,11.5-25.6,25.6-25.6
		S1118.9,116.1,1118.9,130.2"/>
	<path class="st28" d="M1271.4,143.7c0,15.2-12.3,27.5-27.5,27.5c-15.2,0-27.5-12.3-27.5-27.5c0-15.2,12.3-27.5,27.5-27.5
		C1259.1,116.2,1271.4,128.5,1271.4,143.7"/>
	<path class="st28" d="M1105.5,97.2c0,19.9-16.2,36.1-36.1,36.1s-36.1-16.2-36.1-36.1c0-19.9,16.2-36.1,36.1-36.1
		S1105.5,77.3,1105.5,97.2"/>
	<path class="st28" d="M1158,110.7c0,19.9-16.2,36.1-36.1,36.1c-19.9,0-36.1-16.2-36.1-36.1s16.2-36.1,36.1-36.1
		C1141.8,74.6,1158,90.8,1158,110.7"/>
	<path class="st28" d="M1198.5,75.4c0,22-17.8,39.8-39.8,39.8c-22,0-39.8-17.8-39.8-39.8s17.8-39.8,39.8-39.8
		C1180.6,35.6,1198.5,53.4,1198.5,75.4"/>
	<path class="st28" d="M1133.5,58c0,22-17.8,39.8-39.8,39.8c-22,0-39.8-17.8-39.8-39.8s17.8-39.8,39.8-39.8
		C1115.7,18.1,1133.5,36,1133.5,58"/>
	<path class="st28" d="M1165.5,46.2c0,19.9-16.2,36.1-36.1,36.1c-19.9,0-36.1-16.2-36.1-36.1c0-19.9,16.2-36.1,36.1-36.1
		C1149.3,10.1,1165.5,26.3,1165.5,46.2"/>
	<path class="st28" d="M1227,56.7c0,19.9-16.2,36.1-36.1,36.1s-36.1-16.2-36.1-36.1c0-19.9,16.2-36.1,36.1-36.1S1227,36.8,1227,56.7
		"/>
	<path class="st28" d="M1269,103.2c0,19.9-16.2,36.1-36.1,36.1s-36.1-16.2-36.1-36.1c0-19.9,16.2-36.1,36.1-36.1
		S1269,83.3,1269,103.2"/>
	<path class="st28" d="M1290.9,216.6c0,13.1-10.6,23.8-23.8,23.8c-13.1,0-23.8-10.6-23.8-23.8c0-13.1,10.6-23.8,23.8-23.8
		C1280.2,192.8,1290.9,203.5,1290.9,216.6"/>
	<path class="st6" d="M1149.3,253.7c11.4,1.3,22.2-4.6,28.8-11.9l-54.2-6.1C1128.7,244.3,1137.9,252.5,1149.3,253.7"/>
	<path class="st29" d="M1206.8,158.2c-0.5,4.8-3,9.3-7.2,12.1c-4.3,2.7-9.4,3.2-14,1.6c0.5-4.8,3-9.3,7.2-12.1
		C1197.1,157.1,1199.8,160.9,1206.8,158.2"/>
	<path class="st29" d="M1095,158.9c0.5,4.8,3,9.3,7.2,12.1c4.3,2.7,9.4,3.2,14,1.6c-0.5-4.8-3-9.3-7.2-12.1
		C1104.7,157.8,1101.9,161.6,1095,158.9"/>
</g>
<g>
	<path class="st11" d="M2484.9,177.2c0,9.9-8,17.9-17.9,17.9s-17.9-8-17.9-17.9c0-9.9,8-17.9,17.9-17.9S2484.9,167.3,2484.9,177.2"
		/>
	<path class="st12" d="M2479,177.2c0,6.7-5.4,12.1-12.1,12.1c-6.7,0-12.1-5.4-12.1-12.1c0-6.7,5.4-12.1,12.1-12.1
		C2473.6,165.2,2479,170.6,2479,177.2"/>
	<path class="st11" d="M2652.2,177.2c0,9.9-8,17.9-17.9,17.9c-9.9,0-17.9-8-17.9-17.9c0-9.9,8-17.9,17.9-17.9
		C2644.2,159.3,2652.2,167.3,2652.2,177.2"/>
	<path class="st12" d="M2646.3,177.2c0,6.7-5.4,12.1-12.1,12.1c-6.7,0-12.1-5.4-12.1-12.1c0-6.7,5.4-12.1,12.1-12.1
		C2640.9,165.2,2646.3,170.6,2646.3,177.2"/>
	<path class="st13" d="M2647.5,120.6c0,53.8-43.7,97.5-97.5,97.5c-53.8,0-97.5-43.7-97.5-97.5c0-53.8,43.7-97.5,97.5-97.5
		C2603.9,23.1,2647.5,66.8,2647.5,120.6"/>
	<path class="st11" d="M2561.8,309.8h-22.5c-40,0-72.4-32.4-72.4-72.4V124.7c0-40,32.4-72.4,72.4-72.4h22.5
		c40,0,72.4,32.4,72.4,72.4v112.7C2634.2,277.4,2601.8,309.8,2561.8,309.8"/>
	<path class="st12" d="M2550.1,223.7L2550.1,223.7c-9.5,0.1-17.3-4.5-17.4-10.3l-1.4-56.6c-0.1-5.8,7.4-10.5,16.9-10.6
		c9.5-0.1,17.3,4.5,17.4,10.3l1.4,56.6C2567.1,218.8,2559.5,223.6,2550.1,223.7"/>
	<path class="st14" d="M2519.2,256.7c0,4,0.7,8,2.1,11.6c5.5-4.3,12.3-6.7,19.8-6.7c13.8,0,25.5,8.7,30.1,20.9
		c7.5-5.9,12.4-15.5,12.4-25.8c0-6.3-1.8-11.5-4.9-17.5h-54.5C2521.1,245.1,2519.2,250.4,2519.2,256.7"/>
	<path class="st5" d="M2541.1,261.6c-7.5,0-14.4,2.6-19.8,6.8c4.6,12.2,16.3,20.8,30.1,20.8c7.5,0,14.4-2.6,19.8-6.8
		C2566.7,270.3,2554.9,261.6,2541.1,261.6"/>
	<path class="st4" d="M2517.7,164.2c0,6.8-5.5,12.3-12.3,12.3c-6.8,0-12.3-5.5-12.3-12.3c0-6.8,5.5-12.3,12.3-12.3
		C2512.2,151.9,2517.7,157.4,2517.7,164.2"/>
	<path class="st4" d="M2602,164.2c0,6.8-5.5,12.3-12.3,12.3c-6.8,0-12.3-5.5-12.3-12.3c0-6.8,5.5-12.3,12.3-12.3
		C2596.5,151.9,2602,157.4,2602,164.2"/>
	<path class="st13" d="M2434.4,104.4c28.7,15,90,9.1,121.3-4.3c31.3-13.4,26.1-31.5,35-62.6c-28.7-15-62.9-17.6-94.3-4.2
		C2465.1,46.7,2476.2,75.9,2434.4,104.4"/>
</g>
<g>
	<path class="st14" d="M1850.3,219.2c-55,0-99.7-50-99.7-111.6v176.6h199V117.7C1944.6,174.6,1902.2,219.2,1850.3,219.2"/>
	<path class="st20" d="M1955,174.3c0,10.1-8.2,18.3-18.3,18.3c-10.1,0-18.3-8.2-18.3-18.3c0-10.1,8.2-18.3,18.3-18.3
		C1946.8,156.1,1955,164.2,1955,174.3"/>
	<path class="st21" d="M1949,174.3c0,6.8-5.5,12.3-12.3,12.3c-6.8,0-12.3-5.5-12.3-12.3c0-6.8,5.5-12.3,12.3-12.3
		C1943.5,162,1949,167.5,1949,174.3"/>
	<path class="st20" d="M1784,174.3c0,10.1-8.2,18.3-18.3,18.3c-10.1,0-18.3-8.2-18.3-18.3c0-10.1,8.2-18.3,18.3-18.3
		C1775.8,156.1,1784,164.2,1784,174.3"/>
	<path class="st21" d="M1778,174.3c0,6.8-5.5,12.3-12.3,12.3c-6.8,0-12.3-5.5-12.3-12.3c0-6.8,5.5-12.3,12.3-12.3
		C1772.5,162,1778,167.5,1778,174.3"/>
	<path class="st14" d="M1850.6,16.6c-35.9,0-67.4,19.5-84.9,47.5h169.8C1917.9,36.1,1886.5,16.6,1850.6,16.6"/>
	<path class="st14" d="M1850.5,216.2c51.9,0,94.1-39.8,99.1-90.5v-18.2c-1-15.7-6.2-30.3-14.1-43.3h-169.8
		c-9.3,16-14.8,33.2-14.8,52.3C1750.9,171.4,1795.5,216.2,1850.5,216.2"/>
	<path class="st14" d="M1773.7,186.4c-36.9-36.9-32.3-101.3,10.3-143.9"/>
	<path class="st20" d="M1862.6,309.8h-22.9c-40.8,0-74-33.1-74-74V120.7c0-40.8,33.1-74,74-74h22.9c40.8,0,74,33.1,74,74v115.1
		C1936.6,276.7,1903.5,309.8,1862.6,309.8"/>
	<path class="st14" d="M1821.3,155.2c0,6.8-5.5,12.3-12.3,12.3c-6.8,0-12.3-5.5-12.3-12.3c0-6.8,5.5-12.3,12.3-12.3
		C1815.8,142.9,1821.3,148.4,1821.3,155.2"/>
	<path class="st14" d="M1905.6,155.2c0,6.8-5.5,12.3-12.3,12.3c-6.8,0-12.3-5.5-12.3-12.3c0-6.8,5.5-12.3,12.3-12.3
		C1900.1,142.9,1905.6,148.4,1905.6,155.2"/>
	<path class="st21" d="M1853,202.9l-2.7,0c-5.2,0.1-9.4-4-9.5-9.2l-0.6-41.8c-0.1-5.2,4-9.4,9.2-9.5l2.7,0c5.2-0.1,9.4,4,9.5,9.2
		l0.6,41.8C1862.2,198.6,1858.1,202.8,1853,202.9"/>
	<path class="st21" d="M1873,183.9l0,5.5c0,4.4-3.6,7.9-8,7.9l-27.8-0.2c-4.4,0-7.9-3.6-7.9-8l0-5.5c0-4.4,3.6-7.9,8-7.9l27.8,0.2
		C1869.5,175.9,1873,179.5,1873,183.9"/>
	<path class="st14" d="M1851.2,261.6c-13.2,0-24.9,6.6-31.9,16.6c-7.9-8.1-12.8-19.1-12.8-31.3c0-2.3,0.2-4.6,0.5-6.8l85.8-9.4
		c1.9,5,3,10.5,3,16.2c0,12.2-4.9,23.2-12.8,31.3C1876,268.1,1864.4,261.6,1851.2,261.6"/>
	<path class="st5" d="M1851.2,291.6c-12.5,0-23.8-5.1-31.9-13.4c7.1-10,18.7-16.6,31.9-16.6s24.9,6.6,31.9,16.6
		C1875,286.4,1863.7,291.6,1851.2,291.6"/>
	<path class="st14" d="M1938.8,148.3c9-28,6.1-58.8-10.8-84.3c-16.9-25.5-44.1-40.2-73.4-42.8c-9,28-6.1,58.8,10.8,84.3
		C1882.3,130.9,1909.5,145.7,1938.8,148.3"/>
	<path class="st14" d="M1766.9,145.3c-8.9-27.5-6-57.9,10.6-83c16.6-25.1,43.4-39.6,72.3-42.2c8.9,27.5,6,57.9-10.6,83
		C1822.5,128.2,1795.7,142.7,1766.9,145.3"/>
	<g>
		<g class="st15">
			<g>
				<defs>
					<rect id="SVGID_9_" x="1772.6" y="139.4" width="62" height="36.1"/>
				</defs>
				<clipPath id="SVGID_10_">
					<use xlink:href="#SVGID_9_"  style="overflow:visible;"/>
				</clipPath>
				<path class="st30" d="M1822,175.5h-36.7c-7,0-12.7-4-12.7-9v-18.1c0-5,5.7-9,12.7-9h36.7c7,0,12.7,4,12.7,9v18.1
					C1834.6,171.5,1829,175.5,1822,175.5"/>
			</g>
		</g>
		<g class="st15">
			<g>
				<defs>
					<rect id="SVGID_11_" x="1867.3" y="139.4" width="62" height="36.1"/>
				</defs>
				<clipPath id="SVGID_12_">
					<use xlink:href="#SVGID_11_"  style="overflow:visible;"/>
				</clipPath>
				<path class="st31" d="M1916.6,175.5h-36.7c-7,0-12.7-4-12.7-9v-18.1c0-5,5.7-9,12.7-9h36.7c7,0,12.7,4,12.7,9v18.1
					C1929.3,171.5,1923.6,175.5,1916.6,175.5"/>
			</g>
		</g>
		<path class="st32" d="M1822,175.5h-36.7c-7,0-12.7-4-12.7-9v-18.1c0-5,5.7-9,12.7-9h36.7c7,0,12.7,4,12.7,9v18.1
			C1834.6,171.5,1829,175.5,1822,175.5z"/>
		<path class="st32" d="M1916.6,175.5h-36.7c-7,0-12.7-4-12.7-9v-18.1c0-5,5.7-9,12.7-9h36.7c7,0,12.7,4,12.7,9v18.1
			C1929.3,171.5,1923.6,175.5,1916.6,175.5z"/>
		<line class="st32" x1="1772.6" y1="158.1" x2="1764.8" y2="157.4"/>
		<line class="st32" x1="1937.5" y1="157.4" x2="1929.7" y2="158.1"/>
		<line class="st32" x1="1834.1" y1="157.2" x2="1867" y2="157.2"/>
	</g>
</g>
<g>
	<path class="st22" d="M1397.5,179.9c0,9.9,8,17.9,17.9,17.9s17.9-8,17.9-17.9c0-9.9-8-17.9-17.9-17.9S1397.5,170,1397.5,179.9"/>
	<path class="st23" d="M1403.4,179.9c0,6.7,5.4,12.1,12.1,12.1c6.7,0,12.1-5.4,12.1-12.1c0-6.7-5.4-12.1-12.1-12.1
		C1408.8,167.8,1403.4,173.2,1403.4,179.9"/>
	<path class="st33" d="M1352.3,81.5c19.7,26,75.7,34.6,108.1,26.2c32.4-8.4,34.4-32.1,53.5-68.2c-19.7-26-48.8-38.1-81.2-29.7
		C1400.4,18.2,1399.4,57.2,1352.3,81.5"/>
	<path class="st22" d="M1602.6,177.2c0,9.9-8,17.9-17.9,17.9s-17.9-8-17.9-17.9c0-9.9,8-17.9,17.9-17.9S1602.6,167.3,1602.6,177.2"
		/>
	<path class="st23" d="M1596.8,177.2c0,6.7-5.4,12.1-12.1,12.1c-6.7,0-12.1-5.4-12.1-12.1c0-6.7,5.4-12.1,12.1-12.1
		C1591.4,165.2,1596.8,170.6,1596.8,177.2"/>
	<path class="st33" d="M1598,120.6c0,53.8-43.7,97.5-97.5,97.5c-53.8,0-97.5-43.7-97.5-97.5c0-53.8,43.7-97.5,97.5-97.5
		C1554.3,23.1,1598,66.8,1598,120.6"/>
	<path class="st22" d="M1512.3,309.8h-22.5c-40,0-72.4-32.4-72.4-72.4V124.7c0-40,32.4-72.4,72.4-72.4h22.5
		c40,0,72.4,32.4,72.4,72.4v112.7C1584.7,277.4,1552.3,309.8,1512.3,309.8"/>
	<path class="st14" d="M1474.1,158.5c0,7.7-6.2,13.9-13.9,13.9c-7.7,0-13.9-6.2-13.9-13.9c0-7.7,6.2-13.9,13.9-13.9
		C1467.8,144.5,1474.1,150.8,1474.1,158.5"/>
	<path class="st14" d="M1555.9,158.5c0,7.7-6.2,13.9-13.9,13.9c-7.7,0-13.9-6.2-13.9-13.9c0-7.7,6.2-13.9,13.9-13.9
		C1549.7,144.5,1555.9,150.8,1555.9,158.5"/>
	<path class="st14" d="M1469.2,263.2c0,4,0.7,8,2.1,11.6c5.5-4.3,12.3-6.7,19.8-6.7c13.8,0,25.5,8.7,30.1,20.9
		c7.5-5.9,12.4-15.5,12.4-25.8c0-6.3-1.8-11.5-4.9-17.5h-54.5C1471,251.6,1469.2,256.9,1469.2,263.2"/>
	<path class="st6" d="M1501.4,230.6c-11.5,0-21.6,7.1-27.3,15.1h54.5C1523,237.6,1512.9,230.6,1501.4,230.6"/>
	<path class="st5" d="M1491.1,268.2c-7.5,0-14.4,2.6-19.8,6.8c4.6,12.2,16.3,20.8,30.1,20.8c7.5,0,14.4-2.6,19.8-6.8
		C1516.6,276.8,1504.9,268.2,1491.1,268.2"/>
	<path class="st23" d="M1501.4,217h-0.7c-5.6,0-10.1-4.5-10.1-10.1v-52.2c0-5.6,4.5-10.1,10.1-10.1h0.7c5.6,0,10.1,4.5,10.1,10.1
		v52.2C1511.5,212.4,1507,217,1501.4,217"/>
	<path class="st33" d="M1612,93.3c-17.7,23.8-68.3,31.4-97.6,23.5c-29.3-7.9-31.2-29.7-48.7-63c17.7-23.8,44-34.8,73.3-26.9
		C1568.2,34.8,1569.3,70.7,1612,93.3"/>
	<path class="st14" d="M1560.7,149.4c-0.5,5.2-3.2,9.9-7.7,12.8c-4.5,2.9-10,3.4-14.9,1.7c0.5-5.2,3.2-9.9,7.7-12.8
		C1550.4,148.2,1553.3,152.3,1560.7,149.4"/>
	<path class="st14" d="M1441.5,150.1c0.5,5.2,3.2,9.9,7.7,12.8c4.5,2.9,10,3.4,14.9,1.7c-0.5-5.2-3.2-9.9-7.7-12.8
		C1451.9,148.9,1449,153,1441.5,150.1"/>
	<path class="st34" d="M1597.5,201.1c0,4.4-3.6,7.9-7.9,7.9c-4.4,0-7.9-3.6-7.9-7.9c0-4.4,3.6-7.9,7.9-7.9
		C1594,193.2,1597.5,196.7,1597.5,201.1"/>
	<path class="st34" d="M1406,204.4c0,4.4,3.6,7.9,7.9,7.9c4.4,0,7.9-3.6,7.9-7.9c0-4.4-3.6-7.9-7.9-7.9
		C1409.5,196.5,1406,200.1,1406,204.4"/>
</g>
<g>
	<path class="st1" d="M2835.2,174.9c0,10.1-8.2,18.2-18.2,18.2c-10.1,0-18.2-8.2-18.2-18.2c0-10.1,8.2-18.2,18.2-18.2
		C2827.1,156.7,2835.2,164.8,2835.2,174.9"/>
	<path class="st2" d="M2829.3,174.9c0,6.8-5.5,12.3-12.3,12.3c-6.8,0-12.3-5.5-12.3-12.3c0-6.8,5.5-12.3,12.3-12.3
		C2823.8,162.6,2829.3,168.1,2829.3,174.9"/>
	<path class="st1" d="M3005.5,174.9c0,10.1-8.2,18.2-18.2,18.2c-10.1,0-18.2-8.2-18.2-18.2c0-10.1,8.2-18.2,18.2-18.2
		C2997.3,156.7,3005.5,164.8,3005.5,174.9"/>
	<path class="st2" d="M2999.5,174.9c0,6.8-5.5,12.3-12.3,12.3c-6.8,0-12.3-5.5-12.3-12.3c0-6.8,5.5-12.3,12.3-12.3
		C2994.1,162.6,2999.5,168.1,2999.5,174.9"/>
	<path class="st33" d="M3000.8,117.3c0,54.8-44.4,99.2-99.2,99.2s-99.2-44.4-99.2-99.2c0-54.8,44.4-99.2,99.2-99.2
		S3000.8,62.5,3000.8,117.3"/>
	<path class="st1" d="M2913.5,309.8h-22.9c-40.7,0-73.7-33-73.7-73.7V121.5c0-40.7,33-73.7,73.7-73.7h22.9c40.7,0,73.7,33,73.7,73.7
		v114.6C2987.2,276.8,2954.2,309.8,2913.5,309.8"/>
	<path class="st2" d="M2903.5,201.8h-2.7c-5.1,0-9.3-4.2-9.3-9.3v-41.5c0-5.1,4.2-9.3,9.3-9.3h2.7c5.1,0,9.3,4.2,9.3,9.3v41.5
		C2912.8,197.6,2908.6,201.8,2903.5,201.8"/>
	<path class="st14" d="M2869.7,262.6c0,4.1,0.7,8.1,2.1,11.7c5.6-4.4,12.6-6.9,20.2-6.9c14,0,26,8.9,30.7,21.2
		c7.7-6,12.6-15.6,12.6-26c0-6.4-1.8-11.6-5-17.7h-55.5C2871.6,251,2869.7,256.2,2869.7,262.6"/>
	<path class="st6" d="M2902.5,229.6c-11.7,0-21.9,7.2-27.7,15.3h55.5C2924.4,236.7,2914.2,229.6,2902.5,229.6"/>
	<path class="st5" d="M2892,267.4c-7.6,0-14.6,2.6-20.2,7c4.7,12.4,16.6,21.2,30.7,21.2c7.6,0,14.6-2.6,20.2-7
		C2918,276.3,2906,267.4,2892,267.4"/>
	<path class="st33" d="M3008.7,119.8c-23.6,5.9-48.9,1.8-69-13.5c-20.1-15.3-30.8-38.6-31.3-63c23.6-5.9,48.9-1.8,69,13.5
		C2997.5,72.1,2983.9,91.5,3008.7,119.8"/>
	<path class="st33" d="M2756,47.9c9.4,34.9,60.4,80.1,94.9,95c34.5,15,45.2-3.4,77.1-20.3c-9.4-34.9-33.1-64.8-67.6-79.7
		C2825.9,28,2810.6,59.7,2756,47.9"/>
	<path class="st33" d="M2823.8,16.4c1.9,24.2,13.9,46.9,34.8,61.1c20.9,14.2,46.4,16.9,69.7,9.6c-1.9-24.2-13.9-46.9-34.8-61.1
		C2872.5,11.9,2858.4,30.9,2823.8,16.4"/>
	<path class="st4" d="M2962.9,151.4c-0.5,4.9-3,9.5-7.4,12.3c-4.3,2.8-9.5,3.2-14.2,1.6c0.5-4.9,3-9.5,7.4-12.3
		C2953,150.2,2955.8,154.2,2962.9,151.4"/>
	<path class="st4" d="M2957.9,155.8c0,7.8-6.3,14.2-14.2,14.2c-7.8,0-14.2-6.3-14.2-14.2c0-7.8,6.3-14.2,14.2-14.2
		C2951.6,141.6,2957.9,148,2957.9,155.8"/>
	<path class="st4" d="M2840.1,151.4c0.5,4.9,3,9.5,7.4,12.3c4.3,2.8,9.5,3.2,14.2,1.6c-0.5-4.9-3-9.5-7.4-12.3
		C2849.9,150.2,2847.2,154.2,2840.1,151.4"/>
	<path class="st4" d="M2846,155.8c0,7.8,6.3,14.2,14.2,14.2s14.2-6.3,14.2-14.2c0-7.8-6.3-14.2-14.2-14.2S2846,148,2846,155.8"/>
	<path class="st33" d="M2769.7,140.3c37.6,19.7,117.9,11.9,159-5.6c41-17.6,34.1-41.3,45.8-82C2936.9,33,2892,29.6,2851,47.2
		C2809.9,64.7,2824.4,103,2769.7,140.3"/>
</g>
<g>
	<path class="st35" d="M2200.9,242.7c-51.7,0-93.7-21.1-93.7-47.1v74.6h187v-70.3C2289.5,223.9,2249.7,242.7,2200.9,242.7"/>
	<path class="st36" d="M2338.6,198.1c-1.6,15.7-9.7,30.2-23.5,39.1c-13.8,8.9-30.4,10.2-45.3,5.2c1.6-15.7,9.7-30.2,23.5-39.1
		C2307.1,194.4,2316,207,2338.6,198.1"/>
	<path class="st37" d="M2302.7,226.3c0,6.8-5.5,12.3-12.3,12.3c-6.8,0-12.3-5.5-12.3-12.3c0-6.8,5.5-12.3,12.3-12.3
		C2297.1,214,2302.7,219.5,2302.7,226.3"/>
	<path class="st36" d="M2067.9,198.1c1.6,15.7,9.7,30.2,23.5,39.1c13.8,8.9,30.4,10.2,45.3,5.2c-1.6-15.7-9.7-30.2-23.5-39.1
		C2099.4,194.4,2090.5,207,2067.9,198.1"/>
	<path class="st37" d="M2129.7,224.3c0,6.8-5.5,12.3-12.3,12.3c-6.8,0-12.3-5.5-12.3-12.3c0-6.8,5.5-12.3,12.3-12.3
		C2124.2,212,2129.7,217.5,2129.7,224.3"/>
	<path class="st35" d="M2202.2,254.2c51.9,0,94.1-26.2,99.1-59.5v-12c-1-10.3-6.2-19.9-14.1-28.5h-169.8
		c-9.3,10.5-14.8,21.8-14.8,34.4C2102.6,224.7,2147.1,254.2,2202.2,254.2"/>
	<path class="st36" d="M2214.3,309.8h-22.9c-40.8,0-74-26.9-74-60.2v-93.7c0-33.2,33.1-60.2,74-60.2h22.9c40.8,0,74,26.9,74,60.2
		v93.7C2288.3,282.9,2255.2,309.8,2214.3,309.8"/>
	<path class="st14" d="M2172,189.2c0,6.8-5.5,12.3-12.3,12.3c-6.8,0-12.3-5.5-12.3-12.3c0-6.8,5.5-12.3,12.3-12.3
		C2166.5,176.9,2172,182.4,2172,189.2"/>
	<path class="st14" d="M2256.2,189.2c0,6.8-5.5,12.3-12.3,12.3c-6.8,0-12.3-5.5-12.3-12.3c0-6.8,5.5-12.3,12.3-12.3
		C2250.7,176.9,2256.2,182.4,2256.2,189.2"/>
	<path class="st37" d="M2203.6,229.9l-2.7,0c-5.2,0-9.4-1.9-9.5-4.4l-0.6-20c-0.1-2.5,4-4.5,9.2-4.5l2.7,0c5.2,0,9.4,1.9,9.5,4.4
		l0.6,20C2212.9,227.8,2208.8,229.9,2203.6,229.9"/>
	<path class="st37" d="M2223.7,216l0,4.3c0,3.4-3.6,6.1-8,6.1l-27.8-0.1c-4.4,0-7.9-2.8-7.9-6.2l0-4.3c0-3.4,3.6-6.1,8-6.1l27.8,0.1
		C2220.2,209.8,2223.7,212.6,2223.7,216"/>
	<path class="st14" d="M2204.8,273.9c10,0,18.7,4.9,24.1,12.5c6-6.1,9.6-14.4,9.6-23.6c0-1.7-0.1-3.5-0.4-5.1l-64.7-7.1
		c-1.5,3.8-2.3,7.9-2.3,12.2c0,9.2,3.7,17.5,9.6,23.6C2186.1,278.9,2194.9,273.9,2204.8,273.9"/>
	<path class="st5" d="M2204.8,296.6c9.4,0,18-3.9,24.1-10.1c-5.3-7.6-14.1-12.5-24.1-12.5s-18.7,4.9-24.1,12.5
		C2186.9,292.7,2195.4,296.6,2204.8,296.6"/>
</g>
</svg>
