<svg id="Layer_1" data-name="Layer 1" xmlns="http://www.w3.org/2000/svg" viewBox="0 0 1304 815"><defs><style>.cls-1{fill:#60c2c5;opacity:0.8;}.cls-2{fill:#f8931f;opacity:0.8;}.cls-3{fill:#652d90;opacity:0.8;}.cls-4{fill:#e5176b;opacity:0.8;}.cls-5{fill:#fff;opacity:0.8;}.cls-1:hover{opacity:1;}.cls-2:hover{opacity:1;}.cls-3:hover{opacity:1;}.cls-4:hover{opacity:1;}.cls-5:hover{opacity:1;}</style></defs><title>Art boa</title><rect class="cls-1" y="205" width="201" height="201"/><rect class="cls-2" y="409" width="201" height="202"/><rect class="cls-3" width="201" height="202"/><rect class="cls-4" x="409" width="402" height="202"/><rect class="cls-2" x="610" y="205" width="201" height="201"/><rect class="cls-1" x="610" y="409" width="201" height="202"/><rect class="cls-4" x="204" y="205" width="403" height="406"/><rect class="cls-2" x="204" width="202" height="202"/><rect class="cls-1" x="815" y="205" width="202" height="201"/><rect class="cls-1" x="815" width="202" height="202"/><rect class="cls-2" x="1020" y="205" width="201" height="201"/><rect class="cls-4" x="1020" width="201" height="202"/><rect class="cls-3" x="815" y="410" width="406" height="406"/><rect class="cls-3" x="610" y="613" width="201" height="202"/><rect class="cls-1" y="613" width="403" height="202"/><rect class="cls-2" x="406" y="613" width="201" height="202"/><rect class="cls-1" x="1224.19" y="204.5" width="79.81" height="201.51"/><rect class="cls-4" x="1224.19" y="409" width="79.81" height="201.51"/><rect class="cls-3" x="1224.19" width="79.81" height="201.51"/><rect class="cls-2" x="1224.19" y="613.5" width="79.81" height="201.51"/><rect class="cls-5" y="1" width="1304" height="814"/></svg>