<svg xmlns="http://www.w3.org/2000/svg" viewBox="0 0 66.52 66.52"><defs><style>.cls-1{fill:#652d90;}</style></defs><title>close-icon</title><g id="Camada_2" data-name="Camada 2"><g id="Layer_1" data-name="Layer 1"><path class="cls-1" d="M33.26,0A33.26,33.26,0,1,0,66.52,33.26,33.17,33.17,0,0,0,33.26,0ZM38.1,33.87,49.44,45.21a1.46,1.46,0,0,1,0,2.12l-2.12,2.12a1.64,1.64,0,0,1-1.06.45,1.37,1.37,0,0,1-1.06-.45L33.86,38.1a.73.73,0,0,0-1.06,0L21.47,49.44a1.63,1.63,0,0,1-1.06.45,1.37,1.37,0,0,1-1.06-.45l-2.12-2.12a1.46,1.46,0,0,1,0-2.12L28.57,33.87a.73.73,0,0,0,0-1.06L17.23,21.47a1.46,1.46,0,0,1,0-2.12l2.12-2.12a1.46,1.46,0,0,1,2.12,0L32.81,28.57a.73.73,0,0,0,1.06,0L45.21,17.24a1.63,1.63,0,0,1,1.06-.45,1.38,1.38,0,0,1,1.06.45l2.12,2.12a1.46,1.46,0,0,1,0,2.12L38.1,32.81C37.8,33,37.8,33.56,38.1,33.87Z"/></g></g></svg>