<?xml version="1.0" encoding="utf-8"?>
<!-- Generator: Adobe Illustrator 19.2.1, SVG Export Plug-In . SVG Version: 6.00 Build 0)  -->
<svg version="1.1" id="Layer_1" xmlns="http://www.w3.org/2000/svg" xmlns:xlink="http://www.w3.org/1999/xlink" x="0px" y="0px"
	 viewBox="0 0 241 55" style="enable-background:new 0 0 241 55;" xml:space="preserve">
<style type="text/css">
	.st0{fill-rule:evenodd;clip-rule:evenodd;fill:#425F9C;}
	.st1{fill-rule:evenodd;clip-rule:evenodd;fill:#FEFEFE;}
	.st2{fill:#FFFFFF;}
</style>
<g>
	<path class="st0" d="M4.6,0h45.7C52.9,0,55,2.1,55,4.6v45.8c0,2.5-2.1,4.6-4.6,4.6H4.6C2.1,55,0,52.9,0,50.4V4.6C0,2.1,2.1,0,4.6,0
		L4.6,0z"/>
	<path class="st1" d="M36.8,22.1v-3.8c0-1.8,1.2-2.3,2.1-2.3c0.9,0,5.3,0,5.3,0v-8l-7.3,0c-8.1,0-10,6-10,9.8v4.2h-4.7v9.4H27
		C27,42.1,27,55,27,55h9.5c0,0,0-13,0-23.5h7.9l0-9.4H36.8z"/>
	<g>
		<path class="st2" d="M74,23.1c-1.4-1.3-2-3-2-5c0-2,0.7-3.7,2-5c1.4-1.3,3-2,5-2c1.5,0,2.8,0.4,3.9,1.1c1.1,0.7,2,1.7,2.5,3h-2.7
			c-0.7-1.4-2-2.1-3.7-2.1c-1.4,0-2.5,0.5-3.4,1.4c-0.9,0.9-1.3,2.1-1.3,3.6s0.4,2.7,1.3,3.6c0.9,0.9,2,1.4,3.4,1.4
			c1.7,0,2.9-0.7,3.7-2.1h2.7c-0.5,1.3-1.3,2.3-2.5,3c-1.1,0.7-2.4,1.1-3.9,1.1C77,25.1,75.3,24.4,74,23.1z"/>
		<path class="st2" d="M94.2,25.1c-2,0-3.6-0.7-5-2s-2-3-2-5c0-2,0.7-3.7,2-5c1.4-1.3,3-2,5-2s3.6,0.7,5,2c1.3,1.3,2,3,2,5
			c0,2-0.7,3.7-2,5C97.8,24.4,96.1,25.1,94.2,25.1z M94.2,23c1.4,0,2.5-0.5,3.4-1.4c0.9-0.9,1.3-2.1,1.3-3.6s-0.4-2.7-1.3-3.6
			c-0.9-0.9-2-1.4-3.4-1.4s-2.5,0.5-3.4,1.4c-0.9,0.9-1.3,2.1-1.3,3.6s0.4,2.7,1.3,3.6S92.8,23,94.2,23z"/>
		<path class="st2" d="M112.3,11.2h2.2v13.7h-2.2l-6.7-10.2v10.2h-2.2V11.2h2.2l6.7,10.2V11.2z"/>
		<path class="st2" d="M125.1,11.2V13h-5.3v4.2h4.7v1.7h-4.7v4.3h5.3v1.8h-7.6V11.2H125.1z"/>
		<path class="st2" d="M129.1,23.1c-1.4-1.3-2-3-2-5c0-2,0.7-3.7,2-5c1.4-1.3,3-2,5-2c1.5,0,2.8,0.4,3.9,1.1s2,1.7,2.5,3h-2.7
			c-0.7-1.4-2-2.1-3.7-2.1c-1.4,0-2.5,0.5-3.4,1.4c-0.9,0.9-1.3,2.1-1.3,3.6s0.4,2.7,1.3,3.6c0.9,0.9,2,1.4,3.4,1.4
			c1.7,0,2.9-0.7,3.7-2.1h2.7c-0.5,1.3-1.3,2.3-2.5,3c-1.1,0.7-2.4,1.1-3.9,1.1C132.1,25.1,130.5,24.4,129.1,23.1z"/>
		<path class="st2" d="M142.3,13v-1.8h9.5V13h-3.6v11.9H146V13H142.3z"/>
		<path class="st2" d="M163.4,24.9l-1-2.8h-5.7l-1,2.8h-2.3l4.9-13.7h2.6l4.9,13.7H163.4z M157.3,20.4h4.5l-2.2-6.4L157.3,20.4z"/>
		<path class="st2" d="M170.1,19.4v5.5h-2.2V11.3h4.7c1.5,0,2.7,0.4,3.6,1.2c0.8,0.8,1.3,1.7,1.3,2.9c0,0.9-0.3,1.7-0.8,2.5
			c-0.6,0.7-1.4,1.2-2.6,1.4l3.6,5.7h-2.7l-3.4-5.5H170.1z M170.1,13v4.6h2.5c0.9,0,1.5-0.2,1.9-0.6c0.4-0.4,0.6-1,0.6-1.7
			s-0.2-1.3-0.6-1.7s-1.1-0.6-1.9-0.6H170.1z"/>
		<path class="st2" d="M187.5,23.1c-1.4-1.3-2-3-2-5c0-2,0.7-3.7,2-5c1.4-1.3,3-2,5-2c1.5,0,2.8,0.4,3.9,1.1s2,1.7,2.5,3h-2.7
			c-0.7-1.4-2-2.1-3.7-2.1c-1.4,0-2.5,0.5-3.4,1.4c-0.9,0.9-1.3,2.1-1.3,3.6s0.4,2.7,1.3,3.6c0.9,0.9,2,1.4,3.4,1.4
			c1.7,0,2.9-0.7,3.7-2.1h2.7c-0.5,1.3-1.3,2.3-2.5,3c-1.1,0.7-2.4,1.1-3.9,1.1C190.5,25.1,188.8,24.4,187.5,23.1z"/>
		<path class="st2" d="M207.7,25.1c-2,0-3.6-0.7-5-2c-1.4-1.3-2-3-2-5c0-2,0.7-3.7,2-5c1.4-1.3,3-2,5-2s3.6,0.7,5,2c1.3,1.3,2,3,2,5
			c0,2-0.7,3.7-2,5S209.6,25.1,207.7,25.1z M207.6,23c1.4,0,2.5-0.5,3.4-1.4c0.9-0.9,1.3-2.1,1.3-3.6s-0.4-2.7-1.3-3.6
			c-0.9-0.9-2-1.4-3.4-1.4s-2.5,0.5-3.4,1.4c-0.9,0.9-1.3,2.1-1.3,3.6s0.4,2.7,1.3,3.6C205.1,22.6,206.3,23,207.6,23z"/>
		<path class="st2" d="M231.2,11.3v13.7H229v-9.4l-4.2,9.4h-1.6l-4.2-9.4v9.4h-2.2V11.3h2.4l4.8,10.7l4.8-10.7H231.2z"/>
		<path class="st2" d="M72.7,48.5V34.9h8v1.8H75v4.2h4.5v1.7H75v6H72.7z"/>
		<path class="st2" d="M92.1,48.5l-1-2.8h-5.7l-1,2.8H82l4.9-13.7h2.6l4.9,13.7H92.1z M86,44h4.5l-2.2-6.4L86,44z"/>
		<path class="st2" d="M97.8,46.7c-1.4-1.3-2-3-2-5c0-2,0.7-3.7,2-5s3-2,5-2c1.5,0,2.8,0.4,3.9,1.1c1.1,0.7,2,1.7,2.5,3h-2.7
			c-0.7-1.4-2-2.1-3.7-2.1c-1.4,0-2.5,0.5-3.4,1.4c-0.9,0.9-1.3,2.1-1.3,3.6c0,1.5,0.4,2.7,1.3,3.6c0.9,0.9,2,1.4,3.4,1.4
			c1.7,0,2.9-0.7,3.7-2.1h2.7c-0.5,1.3-1.3,2.3-2.5,3c-1.1,0.7-2.4,1.1-3.9,1.1C100.8,48.7,99.2,48,97.8,46.7z"/>
		<path class="st2" d="M119.3,34.9v1.8H114v4.2h4.7v1.7H114v4.3h5.3v1.8h-7.6V34.9H119.3z"/>
		<path class="st2" d="M122.1,34.9h5.2c1.4,0,2.5,0.3,3.3,1c0.8,0.7,1.2,1.5,1.2,2.6c0,1.5-0.9,2.5-2.7,3c0.9,0.1,1.6,0.5,2.2,1.2
			c0.5,0.6,0.8,1.4,0.8,2.2c0,1-0.4,1.9-1.2,2.6c-0.8,0.7-1.9,1-3.3,1h-5.5V34.9z M124.3,36.6v4.1h2.8c0.7,0,1.3-0.2,1.7-0.5
			c0.4-0.4,0.6-0.8,0.6-1.5c0-0.6-0.2-1.1-0.6-1.5c-0.4-0.4-1-0.5-1.7-0.5H124.3z M124.3,46.8h3c0.8,0,1.4-0.2,1.8-0.6
			c0.4-0.4,0.6-0.9,0.6-1.6s-0.2-1.2-0.7-1.6c-0.5-0.4-1.1-0.6-1.8-0.6h-3V46.8z"/>
		<path class="st2" d="M140.7,48.7c-2,0-3.6-0.7-5-2c-1.4-1.3-2-3-2-5c0-2,0.7-3.7,2-5c1.4-1.3,3-2,5-2s3.6,0.7,5,2s2,3,2,5
			c0,2-0.7,3.7-2,5S142.7,48.7,140.7,48.7z M140.7,46.7c1.4,0,2.5-0.5,3.4-1.4c0.9-0.9,1.3-2.1,1.3-3.6c0-1.5-0.4-2.7-1.3-3.6
			c-0.9-0.9-2-1.4-3.4-1.4s-2.5,0.5-3.4,1.4c-0.9,0.9-1.3,2.1-1.3,3.6c0,1.5,0.4,2.7,1.3,3.6C138.2,46.2,139.3,46.7,140.7,46.7z"/>
		<path class="st2" d="M156.1,48.7c-2,0-3.6-0.7-5-2c-1.4-1.3-2-3-2-5c0-2,0.7-3.7,2-5c1.4-1.3,3-2,5-2s3.6,0.7,5,2s2,3,2,5
			c0,2-0.7,3.7-2,5S158.1,48.7,156.1,48.7z M156.1,46.7c1.4,0,2.5-0.5,3.4-1.4c0.9-0.9,1.3-2.1,1.3-3.6c0-1.5-0.4-2.7-1.3-3.6
			c-0.9-0.9-2-1.4-3.4-1.4s-2.5,0.5-3.4,1.4c-0.9,0.9-1.3,2.1-1.3,3.6c0,1.5,0.4,2.7,1.3,3.6C153.6,46.2,154.8,46.7,156.1,46.7z"/>
		<path class="st2" d="M167.6,48.5h-2.2V34.9h2.2v6.2l5.3-6.2h2.9l-6.2,6.9l6.2,6.8h-3l-5.3-6.1V48.5z"/>
	</g>
</g>
<g>
	<path class="st0" d="M4.6,0h45.8c2.5,0,4.6,2.1,4.6,4.6v45.8c0,2.5-2.1,4.6-4.6,4.6H4.6C2.1,55.1,0,53,0,50.4V4.6
		C0,2.1,2.1,0,4.6,0L4.6,0z"/>
	<path class="st1" d="M36.9,22.2v-3.8c0-1.8,1.2-2.3,2.1-2.3c0.9,0,5.3,0,5.3,0V8.1l-7.3,0c-8.1,0-10,6-10,9.9v4.3h-4.7v9.4H27
		C27,42.2,27,55,27,55h9.5c0,0,0-13,0-23.5h7.9l0-9.4H36.9z"/>
	<g>
		<path class="st2" d="M74.1,23.1c-1.4-1.3-2-3-2-5s0.7-3.7,2-5c1.4-1.3,3-2,5-2c1.5,0,2.8,0.4,3.9,1.1c1.1,0.7,2,1.7,2.5,3h-2.7
			c-0.7-1.4-2-2.1-3.7-2.1c-1.4,0-2.5,0.5-3.4,1.4c-0.9,0.9-1.3,2.1-1.3,3.6s0.4,2.7,1.3,3.6c0.9,0.9,2,1.4,3.4,1.4
			c1.7,0,2.9-0.7,3.7-2.1h2.7c-0.5,1.3-1.3,2.3-2.5,3c-1.1,0.7-2.4,1.1-3.9,1.1C77.1,25.1,75.4,24.4,74.1,23.1z"/>
		<path class="st2" d="M94.3,25.1c-2,0-3.6-0.7-5-2c-1.4-1.3-2-3-2-5s0.7-3.7,2-5c1.4-1.3,3-2,5-2c2,0,3.6,0.7,5,2s2,3,2,5
			s-0.7,3.7-2,5C97.9,24.4,96.3,25.1,94.3,25.1z M94.3,23.1c1.4,0,2.5-0.5,3.4-1.4c0.9-0.9,1.3-2.1,1.3-3.6s-0.4-2.7-1.3-3.6
			s-2-1.4-3.4-1.4c-1.4,0-2.5,0.5-3.4,1.4c-0.9,0.9-1.3,2.1-1.3,3.6s0.4,2.7,1.3,3.6C91.8,22.6,92.9,23.1,94.3,23.1z"/>
		<path class="st2" d="M112.5,11.3h2.2V25h-2.2l-6.8-10.2V25h-2.2V11.3h2.2l6.8,10.2V11.3z"/>
		<path class="st2" d="M125.3,11.3V13h-5.3v4.2h4.7v1.7h-4.7v4.3h5.3V25h-7.6V11.3H125.3z"/>
		<path class="st2" d="M129.3,23.1c-1.4-1.3-2-3-2-5s0.7-3.7,2-5s3-2,5-2c1.5,0,2.8,0.4,3.9,1.1c1.1,0.7,2,1.7,2.5,3h-2.7
			c-0.7-1.4-2-2.1-3.7-2.1c-1.4,0-2.5,0.5-3.4,1.4c-0.9,0.9-1.3,2.1-1.3,3.6s0.4,2.7,1.3,3.6c0.9,0.9,2,1.4,3.4,1.4
			c1.7,0,2.9-0.7,3.7-2.1h2.7c-0.5,1.3-1.3,2.3-2.5,3c-1.1,0.7-2.4,1.1-3.9,1.1C132.3,25.1,130.6,24.4,129.3,23.1z"/>
		<path class="st2" d="M142.5,13v-1.8h9.6V13h-3.6V25h-2.2V13H142.5z"/>
		<path class="st2" d="M163.6,25l-1-2.8h-5.7l-1,2.8h-2.3l4.9-13.7h2.6L166,25H163.6z M157.5,20.4h4.5l-2.2-6.4L157.5,20.4z"/>
		<path class="st2" d="M170.3,19.4V25h-2.2V11.3h4.7c1.5,0,2.7,0.4,3.6,1.2c0.8,0.8,1.3,1.7,1.3,2.9c0,0.9-0.3,1.7-0.8,2.5
			c-0.6,0.7-1.4,1.2-2.6,1.4l3.6,5.7h-2.7l-3.4-5.6H170.3z M170.3,13v4.6h2.5c0.9,0,1.5-0.2,1.9-0.6c0.4-0.4,0.6-1,0.6-1.7
			s-0.2-1.3-0.6-1.7c-0.4-0.4-1.1-0.6-1.9-0.6H170.3z"/>
		<path class="st2" d="M187.7,23.1c-1.4-1.3-2-3-2-5s0.7-3.7,2-5s3-2,5-2c1.5,0,2.8,0.4,3.9,1.1c1.1,0.7,2,1.7,2.5,3h-2.7
			c-0.7-1.4-2-2.1-3.7-2.1c-1.4,0-2.5,0.5-3.4,1.4c-0.9,0.9-1.3,2.1-1.3,3.6s0.4,2.7,1.3,3.6c0.9,0.9,2,1.4,3.4,1.4
			c1.7,0,2.9-0.7,3.7-2.1h2.7c-0.5,1.3-1.3,2.3-2.5,3c-1.1,0.7-2.4,1.1-3.9,1.1C190.7,25.1,189.1,24.4,187.7,23.1z"/>
		<path class="st2" d="M207.9,25.1c-2,0-3.6-0.7-5-2c-1.4-1.3-2-3-2-5s0.7-3.7,2-5s3-2,5-2s3.6,0.7,5,2s2,3,2,5s-0.7,3.7-2,5
			C211.5,24.4,209.9,25.1,207.9,25.1z M207.9,23.1c1.4,0,2.5-0.5,3.4-1.4c0.9-0.9,1.3-2.1,1.3-3.6s-0.4-2.7-1.3-3.6
			c-0.9-0.9-2-1.4-3.4-1.4s-2.5,0.5-3.4,1.4c-0.9,0.9-1.3,2.1-1.3,3.6s0.4,2.7,1.3,3.6C205.4,22.6,206.5,23.1,207.9,23.1z"/>
		<path class="st2" d="M231.5,11.3V25h-2.2v-9.4l-4.2,9.4h-1.6l-4.2-9.4V25h-2.2V11.3h2.4l4.8,10.7l4.8-10.7H231.5z"/>
		<path class="st2" d="M72.8,48.6V34.9h8.1v1.8h-5.8v4.2h4.5v1.7h-4.5v6H72.8z"/>
		<path class="st2" d="M92.2,48.6l-1-2.8h-5.7l-1,2.8h-2.3l4.9-13.7h2.6l4.9,13.7H92.2z M86.1,44.1h4.5l-2.2-6.4L86.1,44.1z"/>
		<path class="st2" d="M98,46.8c-1.4-1.3-2-3-2-5s0.7-3.7,2-5c1.4-1.3,3-2,5-2c1.5,0,2.8,0.4,3.9,1.1c1.1,0.7,2,1.7,2.5,3h-2.7
			c-0.7-1.4-2-2.1-3.7-2.1c-1.4,0-2.5,0.5-3.4,1.4c-0.9,0.9-1.3,2.1-1.3,3.6c0,1.5,0.4,2.7,1.3,3.6c0.9,0.9,2,1.4,3.4,1.4
			c1.7,0,2.9-0.7,3.7-2.1h2.7c-0.5,1.3-1.3,2.3-2.5,3c-1.1,0.7-2.4,1.1-3.9,1.1C101,48.7,99.3,48.1,98,46.8z"/>
		<path class="st2" d="M119.5,34.9v1.8h-5.3v4.2h4.7v1.7h-4.7v4.3h5.3v1.8h-7.6V34.9H119.5z"/>
		<path class="st2" d="M122.2,34.9h5.2c1.4,0,2.5,0.3,3.3,1c0.8,0.7,1.2,1.5,1.2,2.6c0,1.5-0.9,2.5-2.7,3c0.9,0.1,1.6,0.5,2.2,1.2
			c0.5,0.7,0.8,1.4,0.8,2.2c0,1.1-0.4,1.9-1.2,2.6c-0.8,0.7-1.9,1-3.3,1h-5.5V34.9z M124.5,36.7v4.1h2.8c0.7,0,1.3-0.2,1.7-0.5
			c0.4-0.4,0.6-0.9,0.6-1.5c0-0.6-0.2-1.1-0.6-1.5c-0.4-0.4-1-0.5-1.7-0.5H124.5z M124.5,46.9h3c0.8,0,1.4-0.2,1.8-0.6
			c0.4-0.4,0.7-0.9,0.7-1.6c0-0.7-0.2-1.2-0.7-1.6c-0.5-0.4-1.1-0.6-1.8-0.6h-3V46.9z"/>
		<path class="st2" d="M140.9,48.7c-2,0-3.6-0.7-5-2c-1.4-1.3-2-3-2-5s0.7-3.7,2-5s3-2,5-2s3.6,0.7,5,2s2,3,2,5s-0.7,3.7-2,5
			C144.5,48.1,142.9,48.7,140.9,48.7z M140.9,46.7c1.4,0,2.5-0.5,3.4-1.4c0.9-0.9,1.3-2.1,1.3-3.6c0-1.5-0.4-2.7-1.3-3.6
			c-0.9-0.9-2-1.4-3.4-1.4s-2.5,0.5-3.4,1.4c-0.9,0.9-1.3,2.1-1.3,3.6c0,1.5,0.4,2.7,1.3,3.6C138.4,46.3,139.5,46.7,140.9,46.7z"/>
		<path class="st2" d="M156.3,48.7c-2,0-3.6-0.7-5-2c-1.4-1.3-2-3-2-5s0.7-3.7,2-5s3-2,5-2s3.6,0.7,5,2s2,3,2,5s-0.7,3.7-2,5
			C160,48.1,158.3,48.7,156.3,48.7z M156.3,46.7c1.4,0,2.5-0.5,3.4-1.4c0.9-0.9,1.3-2.1,1.3-3.6c0-1.5-0.4-2.7-1.3-3.6
			c-0.9-0.9-2-1.4-3.4-1.4s-2.5,0.5-3.4,1.4c-0.9,0.9-1.3,2.1-1.3,3.6c0,1.5,0.4,2.7,1.3,3.6C153.8,46.3,155,46.7,156.3,46.7z"/>
		<path class="st2" d="M167.8,48.6h-2.2V34.9h2.2v6.2l5.3-6.2h2.9l-6.2,6.9l6.2,6.8h-3l-5.3-6.1V48.6z"/>
	</g>
</g>
</svg>
