<svg xmlns="http://www.w3.org/2000/svg" viewBox="0 0 434.64 534.63"><defs><style>.cls-1{fill:#60c2c5;}.cls-2{fill:#f8931f;}.cls-3{fill:#e5176b;}.cls-4{fill:#fff;}.cls-5{font-size:80.17px;fill:#636363;font-family:LemonMilklight, Lemon/Milk light;}</style></defs><title>logo-font1</title><g id="Camada_2" data-name="Camada 2"><g id="Layer_1" data-name="Layer 1"><path class="cls-1" d="M360.26,255.82A179.38,179.38,0,1,1,180.88,76.44,179.38,179.38,0,0,1,360.26,255.82"/><path class="cls-2" d="M389.91,179.38A179.38,179.38,0,1,1,210.53,0,179.38,179.38,0,0,1,389.91,179.38"/><path class="cls-3" d="M434.64,233.63A179.38,179.38,0,1,1,255.26,54.25,179.38,179.38,0,0,1,434.64,233.63"/><path class="cls-4" d="M178,256.4h0V195.67h0V139.85a12.84,12.84,0,0,1-.09-1.47V76.65H122.5V375.42h55.38V317.53a12,12,0,0,1,.33-2.84H178Z"/><path class="cls-4" d="M289.74,195.69l-.46,0h-1.37l-.45,0-.46,0H174.57V256.4H276.65l.42,0H346.9V195.69Z"/><path class="cls-4" d="M289.85,195.69c.68,2,1.29,4,1.82,6.05a90.57,90.57,0,0,1,3.12,22.87,116.87,116.87,0,0,1-2.94,25.91c-.45,2-1,3.92-1.56,5.85h57.1a160.38,160.38,0,0,0,0-60.68Z"/><path class="cls-4" d="M285.46,268.77c-1.08,2.24-2.25,4.46-3.52,6.65a84.73,84.73,0,0,1-18,21.46q-11,9.52-27.55,14.78-2.2.81-7,2a33.78,33.78,0,0,1-8.08,1.21H178V137.17h42.61a21.91,21.91,0,0,1,5.33.81q3.12.82,6.43,1.62a58.83,58.83,0,0,1,6.06,1.82q2.76,1,4.22,1.42a79,79,0,0,1,23.14,15,87.56,87.56,0,0,1,16.35,20.65c.86,1.52,1.66,3,2.43,4.57a7.1,7.1,0,0,1,1-.07h58.7q-2.74-9.61-6.8-20.29-1.47-3.64-3.12-6.88t-3.12-6.07A124.19,124.19,0,0,0,317,127.66a139.87,139.87,0,0,0-36.74-32.39,117,117,0,0,0-18.18-9.11q-1.47-.4-6.25-2T245.19,80.9q-5.88-1.61-11.76-3a42.17,42.17,0,0,0-9.18-1.42H122.5V375.62H224.26a40.59,40.59,0,0,0,6.61-.81q4.41-.81,8.82-1.82t8.27-2q3.86-1,5.69-1.42,25.35-8.91,43.53-24.7a148.15,148.15,0,0,0,29.94-35.22,156.17,156.17,0,0,0,17.44-40.86Z"/><text class="cls-5" transform="translate(0 515.73)">ESTUDESIGN</text></g></g></svg>