<?xml version="1.0" encoding="utf-8"?>
<!-- Generator: Adobe Illustrator 19.2.1, SVG Export Plug-In . SVG Version: 6.00 Build 0)  -->
<svg version="1.1" id="Layer_1" xmlns="http://www.w3.org/2000/svg" xmlns:xlink="http://www.w3.org/1999/xlink" x="0px" y="0px"
	 viewBox="0 0 434.6 534.6" style="enable-background:new 0 0 434.6 534.6;" xml:space="preserve">
<style type="text/css">
	.st0{fill:#60C2C5;}
	.st1{fill:#F8931F;}
	.st2{fill:#E5176B;}
	.st3{fill:#FFFFFF;}
	.st4{enable-background:new    ;}
	.st5{fill:#636363;}
</style>
<title>logo1</title>
<g id="Camada_2">
	<g id="Layer_1_1_">
		<path class="st0" d="M360.3,255.8c0,99.1-80.3,179.4-179.4,179.4S1.5,354.9,1.5,255.8S81.8,76.4,180.9,76.4
			S360.3,156.8,360.3,255.8L360.3,255.8"/>
		<path class="st1" d="M389.9,179.4c0,99.1-80.3,179.4-179.4,179.4S31.1,278.4,31.1,179.4C31.1,80.3,111.5,0,210.5,0
			C309.6,0,389.9,80.3,389.9,179.4L389.9,179.4"/>
		<path class="st2" d="M434.6,233.6c0,99.1-80.3,179.4-179.4,179.4S75.9,332.7,75.9,233.6S156.2,54.3,255.3,54.3
			C354.3,54.3,434.6,134.6,434.6,233.6L434.6,233.6"/>
		<path class="st3" d="M178,256.4L178,256.4v-60.7l0,0v-55.8c-0.1-0.5-0.1-1-0.1-1.5V76.7h-55.4v298.8h55.4v-57.9
			c0-1,0.1-1.9,0.3-2.8H178V256.4z"/>
		<path class="st3" d="M289.7,195.7h-0.5h-1.4h-0.5H287H174.6v60.7h102.1h0.4h69.8v-60.7H289.7z"/>
		<path class="st3" d="M289.9,195.7c0.7,2,1.3,4,1.8,6.1c2,7.5,3.1,15.1,3.1,22.9c0,8.7-1,17.4-2.9,25.9c-0.5,2-1,3.9-1.6,5.8h57.1
			c3.9-20,3.9-40.6,0-60.7H289.9z"/>
		<path class="st3" d="M285.5,268.8c-1.1,2.2-2.3,4.5-3.5,6.6c-4.8,8.1-10.9,15.4-18,21.5c-7.3,6.3-16.5,11.3-27.6,14.8
			c-1.5,0.5-3.8,1.2-7,2c-2.6,0.7-5.3,1.1-8.1,1.2H178V137.2h42.6c1.8,0,3.6,0.3,5.3,0.8c2.1,0.5,4.2,1.1,6.4,1.6
			c2.1,0.5,4.1,1.1,6.1,1.8c1.8,0.7,3.2,1.1,4.2,1.4c8.5,3.6,16.4,8.7,23.1,15c6.5,6,12,13,16.4,20.6c0.9,1.5,1.7,3,2.4,4.6
			c0.3,0,0.7-0.1,1-0.1h58.7c-1.8-6.4-4.1-13.2-6.8-20.3c-1-2.4-2-4.7-3.1-6.9c-1.1-2.2-2.1-4.2-3.1-6.1
			c-3.9-7.8-8.7-15.3-14.2-22.1c-10.2-12.9-22.7-23.8-36.7-32.4c-5.8-3.6-11.9-6.6-18.2-9.1c-1-0.3-3.1-0.9-6.3-2
			c-3.2-1.1-6.7-2.2-10.6-3.3c-3.9-1.1-7.8-2.1-11.8-3c-3-0.8-6.1-1.3-9.2-1.4H122.5v299.1h101.8c2.2-0.1,4.4-0.4,6.6-0.8
			c2.9-0.5,5.9-1.1,8.8-1.8s5.7-1.3,8.3-2c2.6-0.7,4.5-1.1,5.7-1.4c16.9-5.9,31.4-14.2,43.5-24.7c11.8-10.1,21.9-22,29.9-35.2
			c7.7-12.7,13.6-26.5,17.4-40.9L285.5,268.8z"/>
		<g class="st4">
			<path class="st5" d="M37,454.9v7.8H14.1h-2.4v2.4v12.7v2.5h2.4h16.6v7.8H14.1h-2.4v2.4v12.7v2.5h2.4H37v7.7H14.1H3.9v-58.5H37z"
				/>
			<path class="st5" d="M60.8,505.1c1.2-0.5,2.2-1.1,3.1-1.8c0.9-0.7,1.7-1.7,2.3-2.8c0.6-1.1,0.9-2.3,0.9-3.5c0-1-0.2-2-0.7-2.9
				c-0.5-0.9-1-1.7-1.8-2.3c-0.7-0.6-1.6-1.2-2.6-1.8c-1.1-0.6-2.1-1-3-1.3c-1-0.3-2-0.7-3.2-1c-2.6-0.7-4.9-1.6-6.9-2.8
				s-3.8-2.6-5.3-4.4c-1-1.2-1.8-2.6-2.4-4.2s-0.8-3.2-0.8-4.9c0-2.3,0.4-4.5,1.3-6.5c0.9-2,2.1-3.8,3.6-5.4
				c1.6-1.6,3.4-2.8,5.4-3.6c2.1-0.9,4.2-1.3,6.5-1.3c2.1,0,4.1,0.4,5.9,1.1c1.9,0.7,3.6,1.7,5.1,3c2.5,2.2,4.3,4.9,5.2,8.1
				l-7.8,1.6c-0.4-1.2-1.1-2.3-2.1-3.3c-1.8-1.7-3.8-2.6-6.2-2.6c-1.2,0-2.3,0.2-3.4,0.7c-1.1,0.5-2,1.1-2.8,1.9
				c-0.8,0.8-1.5,1.8-1.9,2.9c-0.5,1.1-0.7,2.2-0.7,3.4c0,0.9,0.1,1.7,0.4,2.4c0.3,0.7,0.6,1.4,1,1.9c0.4,0.5,0.9,1.1,1.6,1.6
				s1.3,0.9,1.8,1.2s1.3,0.6,2.1,1c0.8,0.3,1.5,0.6,2.1,0.8c0.6,0.2,1.3,0.4,2.1,0.7c0.8,0.3,1.4,0.5,1.9,0.6c1.4,0.5,2.8,1.1,4,1.8
				s2.5,1.5,3.7,2.5s2.2,2,3,3.1s1.5,2.4,2,3.8c0.5,1.4,0.8,2.9,0.8,4.4c0,2.3-0.5,4.5-1.5,6.6s-2.3,3.9-3.9,5.4
				c-1.6,1.5-3.5,2.7-5.7,3.5s-4.4,1.3-6.6,1.3c-2.5,0-4.9-0.5-7.2-1.5c-2.3-1-4.4-2.5-6.1-4.3c-1.7-1.9-3-4-3.7-6.4L48,500
				c0.7,1.8,2,3.2,3.7,4.3c1.8,1.1,3.6,1.7,5.5,1.7C58.4,505.9,59.6,505.6,60.8,505.1z"/>
			<path class="st5" d="M104,455.1H117v7.7H104h-2.5v2.4v48.1h-7.8v-48.1v-2.4h-2.5H78.2v-7.7h13.1H104z"/>
			<path class="st5" d="M168.6,455.1v23v12.8c0,3.2-0.5,6.2-1.6,8.8c-1.1,2.7-2.8,5.2-5.1,7.4v0c-2.4,2.3-4.9,4-7.5,5
				c-2.7,1.1-5.6,1.7-8.8,1.7c-3.2,0-6.2-0.5-8.9-1.6c-2.8-1.1-5.3-2.9-7.5-5.1c-2.3-2.2-4-4.7-5.1-7.4c-1.1-2.7-1.6-5.6-1.6-8.8
				v-12.8v-23h7.9v23v11.4v1.3c0,2,0.4,4,1.1,5.8c0.7,1.7,1.8,3.4,3.3,4.9c1.5,1.5,3.1,2.6,4.9,3.3c1.8,0.8,3.7,1.1,5.8,1.1
				c2,0,3.9-0.4,5.8-1.1c1.8-0.8,3.5-1.9,4.9-3.3c1.4-1.4,2.6-3,3.4-4.9c0.8-1.8,1.1-3.8,1.1-5.8v-1.3v-11.4v-23H168.6z"/>
			<path class="st5" d="M192.4,455.1c3.7,0.2,7,0.9,10.1,2.2c3.6,1.4,6.8,3.5,9.6,6.3l0,0c2.6,2.6,4.5,5.7,5.8,9.3s1.9,7.4,1.9,11.2
				c0,3.9-0.6,7.6-1.9,11.2c-1.3,3.6-3.2,6.7-5.8,9.3l0,0c-2.8,2.8-6,4.9-9.6,6.3c-3.6,1.5-7.5,2.2-11.7,2.2h-14.3v-58.2h14.3H192.4
				z M190.9,505.5c3.1,0,5.9-0.5,8.5-1.4c2.6-0.9,4.8-2.4,6.8-4.4c2-2,3.4-4.3,4.4-6.9c1-2.6,1.4-5.4,1.4-8.6c0-3.1-0.5-6-1.4-8.6
				c-1-2.6-2.4-4.9-4.4-6.9c-2-1.9-4.3-3.4-6.9-4.5c-2.6-1-5.4-1.4-8.6-1.4h-4.1h-2.5v2.4v37.9v2.4h2.5H190.9L190.9,505.5z"/>
			<path class="st5" d="M258.5,454.9v7.8h-22.9h-2.4v2.4v12.7v2.5h2.4h16.6v7.8h-16.6h-2.4v2.4v12.7v2.5h2.4h22.9v7.7h-22.9h-10.2
				v-58.5H258.5z"/>
			<path class="st5" d="M282.2,505.1c1.2-0.5,2.2-1.1,3.1-1.8c0.9-0.7,1.7-1.7,2.3-2.8s0.9-2.3,0.9-3.5c0-1-0.2-2-0.7-2.9
				c-0.5-0.9-1-1.7-1.8-2.3c-0.7-0.6-1.6-1.2-2.6-1.8c-1.1-0.6-2.1-1-3-1.3c-1-0.3-2-0.7-3.2-1c-2.6-0.7-4.9-1.6-6.9-2.8
				s-3.8-2.6-5.3-4.4c-1-1.2-1.8-2.6-2.4-4.2s-0.8-3.2-0.8-4.9c0-2.3,0.4-4.5,1.3-6.5c0.9-2,2.1-3.8,3.6-5.4
				c1.6-1.6,3.4-2.8,5.4-3.6c2.1-0.9,4.2-1.3,6.5-1.3c2.1,0,4.1,0.4,5.9,1.1c1.9,0.7,3.6,1.7,5.1,3c2.5,2.2,4.3,4.9,5.2,8.1
				l-7.8,1.6c-0.4-1.2-1.1-2.3-2.1-3.3c-1.8-1.7-3.8-2.6-6.2-2.6c-1.2,0-2.3,0.2-3.4,0.7c-1.1,0.5-2,1.1-2.8,1.9
				c-0.8,0.8-1.5,1.8-1.9,2.9c-0.5,1.1-0.7,2.2-0.7,3.4c0,0.9,0.1,1.7,0.4,2.4c0.3,0.7,0.6,1.4,1,1.9s0.9,1.1,1.6,1.6
				c0.6,0.5,1.3,0.9,1.8,1.2s1.3,0.6,2.1,1c0.8,0.3,1.5,0.6,2.1,0.8c0.6,0.2,1.3,0.4,2.1,0.7c0.8,0.3,1.4,0.5,1.9,0.6
				c1.4,0.5,2.8,1.1,4,1.8s2.5,1.5,3.7,2.5c1.2,1,2.2,2,3,3.1c0.9,1.1,1.5,2.4,2,3.8c0.5,1.4,0.8,2.9,0.8,4.4c0,2.3-0.5,4.5-1.5,6.6
				s-2.3,3.9-3.9,5.4s-3.5,2.7-5.7,3.5s-4.4,1.3-6.6,1.3c-2.5,0-4.9-0.5-7.2-1.5c-2.3-1-4.4-2.5-6.1-4.3s-3-4-3.7-6.4l7.8-1.7
				c0.7,1.8,2,3.2,3.7,4.3c1.8,1.1,3.6,1.7,5.5,1.7C279.9,505.9,281.1,505.6,282.2,505.1z"/>
			<path class="st5" d="M302,455.1h7.8v58.2H302V455.1z"/>
			<path class="st5" d="M343,454.7h1.8c2.1,0,4,0.2,5.9,0.6c2,0.4,3.8,1,5.5,1.7c1.7,0.8,3.4,1.7,5.1,2.8c0.7,0.5,1.6,1.1,2.6,1.9
				l-5.6,5.6c-1.6-1.3-3.3-2.3-5.2-3.1c-2.5-1.1-5.3-1.6-8.3-1.6c-3.1,0-5.8,0.5-8.3,1.6c-2.5,1-4.9,2.6-7,4.8
				c-2.1,2.2-3.7,4.5-4.7,7c-1.1,2.6-1.6,5.4-1.6,8.3c0,2.9,0.5,5.7,1.6,8.3c1,2.5,2.6,4.9,4.7,7c2.1,2.1,4.4,3.7,7,4.8
				c2.6,1.1,5.4,1.6,8.3,1.6c2.3,0,4.5-0.4,6.7-1.1c2-0.6,4-1.6,5.9-3c1.5-1.1,2.9-2.4,4-3.8c1.2-1.4,2.2-2.9,2.9-4.6l1.6-3.5h-3.9
				h-15.5v-7.2h0.7h26.9c0.1,4.1-0.5,7.9-1.7,11.5c-1.4,4.1-3.7,7.8-6.9,10.9c-2.9,2.9-6.1,5.1-9.6,6.5c-3.4,1.4-7.2,2.2-11.3,2.2
				c-4.1,0-7.9-0.7-11.3-2.2c-3.5-1.4-6.7-3.6-9.5-6.5c-3-2.9-5.1-6.1-6.5-9.5c-1.4-3.4-2.2-7.2-2.2-11.4c0-4.1,0.7-7.9,2.2-11.3
				c1.4-3.4,3.5-6.6,6.5-9.6c2.8-2.9,6-5.1,9.5-6.5C336.3,455.5,339.5,454.8,343,454.7L343,454.7z"/>
			<path class="st5" d="M417.7,494.4v-6.9v-32.6h7.8v59.4l-38-40.5v4.5v35.1h-7.8v-58.9L417.7,494.4z"/>
		</g>
	</g>
</g>
</svg>
