<?xml version="1.0" encoding="utf-8"?>
<!-- Generator: Adobe Illustrator 19.2.1, SVG Export Plug-In . SVG Version: 6.00 Build 0)  -->
<svg version="1.1" id="Layer_1" xmlns="http://www.w3.org/2000/svg" xmlns:xlink="http://www.w3.org/1999/xlink" x="0px" y="0px"
	 viewBox="0 0 160 180" style="enable-background:new 0 0 160 180;" xml:space="preserve">
<style type="text/css">
	.st0{fill:#E02E00;}
	.st1{fill:#FF4719;}
	.st2{fill:#C20035;}
	.st3{fill:#FF0F47;}
	.st4{fill:#999999;}
	.st5{fill:#C1C1C1;}
	.st6{fill:#DDDDDD;}
	.st7{enable-background:new    ;}
	.st8{fill:#7C7C7C;}
</style>
<g>
	<polygon class="st0" points="77.9,67.5 62.1,105.6 58.3,98.8 68.8,60.9 	"/>
	<polygon class="st1" points="59.8,53.8 41.8,97.2 55.3,93.3 58.3,98.8 72.8,63.7 	"/>
	<polygon class="st2" points="82.1,67.5 97.9,105.6 101.7,98.8 91.2,60.9 	"/>
	<polygon class="st3" points="100.2,53.8 87.2,63.7 101.7,98.8 104.7,93.3 118.2,97.2 	"/>
	<path class="st4" d="M80,13.1L69.8,42.3L80,71.5c16.1,0,29.2-13.1,29.2-29.2C109.2,26.1,96.1,13.1,80,13.1z"/>
	<path class="st5" d="M50.8,42.3c0,16.1,13.1,29.2,29.2,29.2V13.1C63.9,13.1,50.8,26.1,50.8,42.3z"/>
	<path class="st5" d="M80,19.2v46.2c12.7,0,23.1-10.4,23.1-23.1C103.1,29.5,92.7,19.2,80,19.2z"/>
	<path class="st6" d="M80,19.2c-12.7,0-23.1,10.4-23.1,23.1S67.3,65.4,80,65.4c10.5,0,19-10.4,19-23.1C99,29.5,90.5,19.2,80,19.2z"
		/>
	<polygon class="st4" points="90.2,33 92.8,38.1 98.5,39 94.5,43.1 95.3,48.8 90.2,46.3 85,48.8 85.9,43.1 81.8,39 87.5,38.1 	"/>
	<polygon class="st4" points="71,33.2 73.7,38.3 79.3,39.2 75.3,43.3 76.1,49 71,46.5 65.8,49 66.7,43.3 62.7,39.2 68.3,38.3 	"/>
</g>
<g>
	<g class="st7">
		<path class="st8" d="M25.4,130.9l-1.1-3.1h-6.4l-1.1,3.1h-2.6l5.5-15.3h2.9l5.5,15.3H25.4z M18.6,125.8h5l-2.5-7.2L18.6,125.8z"/>
		<path class="st8" d="M31.2,129.4c-1.1-1.1-1.7-2.7-1.7-4.5s0.6-3.4,1.7-4.5c1.1-1.1,2.5-1.7,4.3-1.7c1.5,0,2.7,0.3,3.6,1
			c1,0.7,1.6,1.7,1.9,3h-2.7c-0.5-1.3-1.4-1.9-2.9-1.9c-1,0-1.8,0.4-2.5,1.1c-0.6,0.7-0.9,1.7-0.9,3c0,1.3,0.3,2.3,0.9,3.1
			s1.4,1.1,2.5,1.1c1.5,0,2.4-0.6,2.9-1.9h2.7c-0.4,1.2-1,2.2-2,2.9c-1,0.7-2.2,1.1-3.6,1.1C33.8,131.1,32.3,130.5,31.2,129.4z"/>
		<path class="st8" d="M48.7,131.1c-1.8,0-3.2-0.6-4.3-1.7c-1.1-1.1-1.6-2.7-1.6-4.6c0-1.9,0.6-3.4,1.7-4.5c1.1-1.1,2.6-1.7,4.3-1.7
			c1.8,0,3.2,0.5,4.3,1.6c1.1,1.1,1.6,2.5,1.6,4.3c0,0.4,0,0.8-0.1,1.2h-9.3c0.1,1,0.4,1.8,1,2.4c0.6,0.6,1.4,0.9,2.3,0.9
			c1.4,0,2.3-0.6,2.9-1.7h2.7c-0.4,1.1-1,2-2,2.7C51.3,130.8,50.2,131.1,48.7,131.1z M51.1,121.6c-0.6-0.6-1.4-0.9-2.4-0.9
			c-0.9,0-1.7,0.3-2.3,0.9c-0.6,0.6-1,1.4-1.1,2.4h6.7C52.1,123,51.8,122.2,51.1,121.6z"/>
		<path class="st8" d="M59.7,118.8v2.1c0.8-1.5,2-2.3,3.6-2.3v2.6h-0.6c-1,0-1.7,0.2-2.2,0.7c-0.5,0.5-0.8,1.4-0.8,2.6v6.4h-2.5
			v-12.1H59.7z"/>
		<path class="st8" d="M71.5,120.8h-2.9v6.7c0,0.5,0.1,0.8,0.3,1c0.2,0.2,0.6,0.3,1.1,0.3h1.5v2.1h-2c-2.3,0-3.5-1.1-3.5-3.4v-6.7
			h-1.4v-2H66v-3h2.5v3h2.9V120.8z"/>
		<path class="st8" d="M79.1,131.1c-1.8,0-3.2-0.6-4.4-1.7c-1.1-1.2-1.7-2.7-1.7-4.5c0-1.9,0.6-3.4,1.8-4.5s2.7-1.7,4.4-1.7
			c1.8,0,3.2,0.6,4.4,1.7c1.2,1.2,1.8,2.7,1.8,4.5c0,1.9-0.6,3.4-1.8,4.5C82.4,130.5,80.9,131.1,79.1,131.1z M81.7,127.9
			c0.7-0.7,1.1-1.8,1.1-3.1c0-1.3-0.4-2.3-1.1-3c-0.7-0.7-1.6-1.1-2.6-1.1c-1,0-1.9,0.4-2.6,1.1c-0.7,0.7-1,1.7-1,3.1s0.3,2.3,1,3.1
			c0.7,0.7,1.5,1.1,2.5,1.1S81,128.6,81.7,127.9z"/>
	</g>
	<g class="st7">
		<path class="st8" d="M96.4,118.8h2.5v12.1h-2.5V129c-0.8,1.4-2.1,2.1-3.9,2.1c-1.4,0-2.5-0.5-3.4-1.4c-0.9-0.9-1.3-2.2-1.3-3.8
			v-7.2h2.5v6.8c0,1.1,0.3,1.9,0.8,2.5c0.5,0.6,1.3,0.9,2.2,0.9s1.7-0.3,2.2-0.9s0.8-1.4,0.8-2.5V118.8z"/>
	</g>
	<g class="st7">
		<path class="st8" d="M107,115.6c1-0.8,2.2-1.1,3.7-1.1c1.5,0,2.7,0.4,3.6,1.2c0.9,0.8,1.3,1.8,1.3,3c0,0.9-0.2,1.7-0.7,2.3
			c-0.5,0.6-1.1,1.1-1.7,1.3v0.1c0.9,0.3,1.5,0.7,2,1.4c0.5,0.7,0.7,1.6,0.7,2.8c0,1.2-0.5,2.2-1.4,3.1c-0.9,0.8-2.2,1.3-3.8,1.3
			c-1.6,0-2.9-0.4-3.9-1.2c-1-0.8-1.6-2-1.6-3.5h2.4c0.1,0.8,0.4,1.4,0.9,1.9c0.5,0.5,1.3,0.7,2.2,0.7s1.6-0.2,2.1-0.7
			c0.5-0.5,0.7-1.1,0.7-1.9c0-1-0.3-1.8-1-2.2s-1.7-0.6-3-0.6H109v-2.1h0.6c2.4,0,3.7-0.8,3.7-2.4c0-0.7-0.2-1.3-0.7-1.7
			c-0.5-0.4-1.1-0.6-1.9-0.6c-0.8,0-1.5,0.2-1.9,0.6c-0.5,0.4-0.7,0.9-0.8,1.6h-2.4C105.5,117.5,106,116.4,107,115.6z"/>
	</g>
	<g class="st7">
		<path class="st8" d="M119.1,115.5c0.8-0.4,1.7-0.6,2.8-0.6s2,0.2,2.8,0.6c0.8,0.4,1.4,1,1.8,1.7s0.7,1.6,0.9,2.5
			c0.2,0.9,0.3,2,0.3,3.2c0,1.2-0.1,2.2-0.3,3.2c-0.2,0.9-0.5,1.8-0.9,2.5c-0.4,0.8-1,1.3-1.8,1.7c-0.8,0.4-1.7,0.6-2.8,0.6
			s-2-0.2-2.8-0.6c-0.8-0.4-1.4-1-1.8-1.7c-0.4-0.8-0.7-1.6-0.9-2.5c-0.2-0.9-0.3-2-0.3-3.2c0-1.2,0.1-2.2,0.3-3.2
			c0.2-0.9,0.5-1.7,0.9-2.5S118.3,115.9,119.1,115.5z M121.9,117.2c-0.7,0-1.3,0.2-1.7,0.5c-0.5,0.3-0.8,0.7-1,1.3
			c-0.4,1-0.5,2.3-0.5,3.9c0,1.6,0.2,2.9,0.5,3.9c0.4,1.2,1.3,1.8,2.7,1.8s2.3-0.6,2.7-1.8c0.4-1,0.5-2.3,0.5-3.9
			c0-1.6-0.2-2.9-0.5-3.9C124.2,117.8,123.3,117.2,121.9,117.2z"/>
		<path class="st8" d="M139.7,118.8l-3.9,6l3.9,6.1h-2.8l-2.6-4.1l-2.5,4.1h-2.6l3.9-6l-3.9-6.2h2.8l2.6,4.1l2.5-4.1H139.7z"/>
	</g>
	<g class="st7">
		<path class="st8" d="M30.1,148.7c0-1,0.4-1.9,1.3-2.6c0.9-0.7,2-1.1,3.4-1.1c1.4,0,2.5,0.3,3.4,1c0.8,0.7,1.3,1.6,1.3,2.8H37
			c0-0.6-0.3-1.1-0.6-1.4c-0.4-0.3-0.9-0.5-1.6-0.5c-0.7,0-1.2,0.2-1.6,0.5c-0.4,0.3-0.6,0.7-0.6,1.2c0,0.5,0.2,0.9,0.7,1.2
			s1.1,0.5,1.8,0.6c0.7,0.1,1.4,0.3,2.1,0.5c0.7,0.2,1.3,0.5,1.8,1c0.5,0.5,0.7,1.2,0.7,2c0,1.1-0.4,1.9-1.3,2.6c-0.9,0.7-2,1-3.4,1
			c-1.4,0-2.5-0.3-3.4-1c-0.9-0.7-1.3-1.6-1.4-2.9h2.6c0,0.6,0.3,1.1,0.7,1.4c0.4,0.3,0.9,0.5,1.6,0.5c0.7,0,1.2-0.2,1.6-0.5
			c0.4-0.3,0.6-0.7,0.6-1.2c0-0.5-0.2-0.9-0.7-1.2s-1.1-0.5-1.8-0.6c-0.7-0.1-1.4-0.3-2.1-0.5c-0.7-0.2-1.3-0.5-1.8-1
			C30.4,150.1,30.1,149.5,30.1,148.7z"/>
		<path class="st8" d="M47.5,157.5c-1.8,0-3.2-0.6-4.3-1.7c-1.1-1.1-1.6-2.7-1.6-4.6c0-1.9,0.6-3.4,1.7-4.5c1.1-1.1,2.6-1.7,4.3-1.7
			c1.8,0,3.2,0.5,4.3,1.6s1.6,2.5,1.6,4.3c0,0.4,0,0.8-0.1,1.2h-9.3c0.1,1,0.4,1.8,1,2.4c0.6,0.6,1.4,0.9,2.3,0.9
			c1.4,0,2.3-0.6,2.9-1.7h2.7c-0.4,1.1-1,2-2,2.7C50.2,157.2,49,157.5,47.5,157.5z M49.9,148c-0.6-0.6-1.4-0.9-2.4-0.9
			c-0.9,0-1.7,0.3-2.3,0.9c-0.6,0.6-1,1.4-1.1,2.4h6.7C50.9,149.4,50.6,148.6,49.9,148z"/>
		<path class="st8" d="M56.8,155.7c-1.1-1.2-1.6-2.7-1.6-4.5c0-1.8,0.5-3.3,1.6-4.5c1.1-1.2,2.5-1.7,4.1-1.7c1,0,1.8,0.2,2.5,0.6
			c0.7,0.4,1.3,1,1.7,1.7v-2.2h2.5v12.3c0,1.7-0.5,3.1-1.6,4.2c-1,1.1-2.4,1.6-4.2,1.6c-1.7,0-3.2-0.4-4.2-1.2
			c-1.1-0.8-1.7-1.8-1.8-3.1h2.5c0.2,0.6,0.6,1.1,1.2,1.5c0.6,0.4,1.4,0.6,2.3,0.6c0.9,0,1.7-0.3,2.3-0.9s0.9-1.5,0.9-2.7V155
			c-0.4,0.7-1,1.3-1.7,1.8c-0.7,0.4-1.6,0.7-2.5,0.7C59.3,157.5,57.9,156.9,56.8,155.7z M64,154.2c0.7-0.7,1.1-1.7,1.1-3
			c0-1.2-0.4-2.2-1.1-3s-1.6-1.1-2.6-1.1c-1,0-1.9,0.4-2.6,1.1c-0.7,0.7-1.1,1.7-1.1,2.9c0,1.2,0.4,2.2,1.1,3
			c0.7,0.8,1.6,1.1,2.6,1.1C62.4,155.3,63.3,155,64,154.2z"/>
		<path class="st8" d="M79.4,145.2h2.5v12.1h-2.5v-1.9c-0.8,1.4-2.1,2.1-3.9,2.1c-1.4,0-2.5-0.5-3.4-1.4c-0.9-0.9-1.3-2.2-1.3-3.8
			v-7.2h2.5v6.8c0,1.1,0.3,1.9,0.8,2.5s1.3,0.9,2.2,0.9c0.9,0,1.7-0.3,2.2-0.9c0.6-0.6,0.8-1.4,0.8-2.5V145.2z"/>
		<path class="st8" d="M88.1,142c0,0.5-0.2,0.8-0.5,1.1c-0.3,0.3-0.7,0.5-1.1,0.5c-0.4,0-0.8-0.2-1.1-0.5c-0.3-0.3-0.5-0.7-0.5-1.1
			c0-0.5,0.2-0.8,0.5-1.1c0.3-0.3,0.7-0.5,1.1-0.5c0.4,0,0.8,0.2,1.1,0.5C87.9,141.1,88.1,141.5,88.1,142z M85.2,157.3v-12.1h2.5
			v12.1H85.2z"/>
		<path class="st8" d="M91.8,155.7c-1.1-1.2-1.6-2.7-1.6-4.5c0-1.8,0.5-3.3,1.6-4.5s2.5-1.7,4.1-1.7c1,0,1.8,0.2,2.5,0.6
			c0.7,0.4,1.3,1,1.7,1.7V141h2.5v16.3h-2.5V155c-0.4,0.7-1,1.3-1.7,1.8s-1.6,0.7-2.5,0.7C94.3,157.5,92.9,156.9,91.8,155.7z
			 M99,154.2c0.7-0.7,1.1-1.7,1.1-3c0-1.2-0.4-2.2-1.1-3c-0.7-0.7-1.6-1.1-2.6-1.1c-1,0-1.9,0.4-2.6,1.1c-0.7,0.7-1.1,1.7-1.1,2.9
			c0,1.2,0.4,2.2,1.1,3c0.7,0.8,1.6,1.1,2.6,1.1C97.4,155.3,98.3,155,99,154.2z"/>
		<path class="st8" d="M106.7,155.7c-1.1-1.2-1.7-2.7-1.7-4.5c0-1.8,0.5-3.3,1.6-4.5c1.1-1.2,2.5-1.7,4.1-1.7c1,0,1.8,0.2,2.5,0.6
			s1.3,1,1.7,1.7v-2.2h2.5v12.1H115V155c-0.4,0.7-1,1.3-1.7,1.8c-0.7,0.4-1.6,0.7-2.5,0.7C109.2,157.5,107.8,156.9,106.7,155.7z
			 M113.9,154.2c0.7-0.7,1.1-1.7,1.1-3c0-1.2-0.4-2.2-1.1-3c-0.7-0.7-1.6-1.1-2.6-1.1s-1.9,0.4-2.6,1.1c-0.7,0.7-1.1,1.7-1.1,2.9
			c0,1.2,0.4,2.2,1.1,3c0.7,0.8,1.6,1.1,2.6,1.1S113.2,155,113.9,154.2z"/>
		<path class="st8" d="M120.3,148.7c0-1,0.4-1.9,1.3-2.6c0.9-0.7,2-1.1,3.4-1.1s2.5,0.3,3.4,1c0.8,0.7,1.3,1.6,1.3,2.8h-2.6
			c0-0.6-0.3-1.1-0.6-1.4c-0.4-0.3-0.9-0.5-1.6-0.5s-1.2,0.2-1.6,0.5c-0.4,0.3-0.6,0.7-0.6,1.2c0,0.5,0.2,0.9,0.7,1.2
			c0.5,0.3,1.1,0.5,1.8,0.6s1.4,0.3,2.1,0.5c0.7,0.2,1.3,0.5,1.8,1c0.5,0.5,0.7,1.2,0.7,2c0,1.1-0.4,1.9-1.3,2.6s-2,1-3.4,1
			s-2.5-0.3-3.4-1c-0.9-0.7-1.3-1.6-1.4-2.9h2.6c0,0.6,0.3,1.1,0.7,1.4c0.4,0.3,0.9,0.5,1.6,0.5c0.7,0,1.2-0.2,1.6-0.5
			c0.4-0.3,0.6-0.7,0.6-1.2c0-0.5-0.2-0.9-0.7-1.2c-0.5-0.3-1.1-0.5-1.8-0.6s-1.4-0.3-2.1-0.5s-1.3-0.5-1.8-1
			C120.5,150.1,120.3,149.5,120.3,148.7z"/>
	</g>
</g>
</svg>
