<?xml version="1.0" encoding="utf-8"?>
<!-- Generator: Adobe Illustrator 19.2.1, SVG Export Plug-In . SVG Version: 6.00 Build 0)  -->
<svg version="1.1" id="Layer_1" xmlns="http://www.w3.org/2000/svg" xmlns:xlink="http://www.w3.org/1999/xlink" x="0px" y="0px"
	 viewBox="0 0 66.5 66.5" style="enable-background:new 0 0 66.5 66.5;" xml:space="preserve">
<style type="text/css">
	.st0{fill:#652D90;}
</style>
<title>menu-icon</title>
<g id="Camada_2">
	<g id="Layer_1_1_">
		<path class="st0" d="M33.3,0C14.9,0,0,14.9,0,33.3s14.9,33.3,33.3,33.3s33.3-14.9,33.3-33.3l0,0C66.6,14.9,51.8,0.1,33.5,0
			C33.4,0,33.3,0,33.3,0z M51.4,46.9c0,0.8-0.6,1.5-1.3,1.5c-0.1,0-0.1,0-0.2,0H16.6c-0.8,0-1.5-0.6-1.5-1.3c0-0.1,0-0.1,0-0.2v-3
			c0-0.8,0.6-1.5,1.3-1.5c0.1,0,0.1,0,0.2,0h33.3c0.8,0,1.5,0.6,1.5,1.3c0,0.1,0,0.1,0,0.2L51.4,46.9z M51.4,34.8
			c0,0.8-0.6,1.5-1.3,1.5c-0.1,0-0.1,0-0.2,0H16.6c-0.8,0-1.5-0.6-1.5-1.3c0-0.1,0-0.1,0-0.2v-3c0-0.8,0.6-1.5,1.3-1.5
			c0.1,0,0.1,0,0.2,0h33.3c0.8,0,1.5,0.6,1.5,1.3c0,0.1,0,0.1,0,0.2L51.4,34.8z M51.4,22.7c0,0.8-0.6,1.5-1.3,1.5
			c-0.1,0-0.1,0-0.2,0H16.6c-0.8,0-1.5-0.6-1.5-1.3c0-0.1,0-0.1,0-0.2v-3c0-0.8,0.6-1.5,1.3-1.5c0.1,0,0.1,0,0.2,0h33.3
			c0.8,0,1.5,0.6,1.5,1.3c0,0.1,0,0.1,0,0.2L51.4,22.7z"/>
	</g>
</g>
</svg>
