<?xml version="1.0" encoding="utf-8"?>
<!-- Generator: Adobe Illustrator 19.2.1, SVG Export Plug-In . SVG Version: 6.00 Build 0)  -->
<svg version="1.1" id="Layer_1" xmlns="http://www.w3.org/2000/svg" xmlns:xlink="http://www.w3.org/1999/xlink" x="0px" y="0px"
	 viewBox="0 0 21.2 36.3" style="enable-background:new 0 0 21.2 36.3;" xml:space="preserve">
<style type="text/css">
	.st0{fill:#5D5D5D;}
</style>
<g>
	<path class="st0" d="M20.8,17.3l-17-17C3.6,0.1,3.3,0,3,0C2.7,0,2.4,0.1,2.2,0.4L0.4,2.2C0.1,2.4,0,2.7,0,3c0,0.3,0.1,0.6,0.4,0.8
		l14.3,14.3L0.4,32.5C0.1,32.7,0,33,0,33.3c0,0.3,0.1,0.6,0.4,0.8L2.2,36c0.2,0.2,0.5,0.4,0.8,0.4c0.3,0,0.6-0.1,0.8-0.4l17-17
		c0.2-0.2,0.4-0.5,0.4-0.8C21.2,17.9,21.1,17.6,20.8,17.3z"/>
</g>
</svg>
